M48
; DRILL file KiCad 10.0.3 date 2026-07-19T19:03:08
; FORMAT={-:-/ absolute / metric / decimal}
; #@! TF.CreationDate,2026-07-19T19:03:08+03:00
; #@! TF.GenerationSoftware,Kicad,Pcbnew,10.0.3
; #@! TF.FileFunction,Plated,1,2,PTH
FMAT,2
METRIC
; #@! TA.AperFunction,Plated,PTH,ComponentDrill
T1C0.200
; #@! TA.AperFunction,Plated,PTH,ViaDrill
T2C0.300
; #@! TA.AperFunction,Plated,PTH,ComponentDrill
T3C0.300
; #@! TA.AperFunction,Plated,PTH,ComponentDrill
T4C0.500
; #@! TA.AperFunction,Plated,PTH,ComponentDrill
T5C0.600
; #@! TA.AperFunction,Plated,PTH,ComponentDrill
T6C0.650
; #@! TA.AperFunction,Plated,PTH,ComponentDrill
T7C0.800
%
G90
G05
T1
X77.1Y-114.84
X77.1Y-116.24
X77.8Y-114.14
X77.8Y-115.54
X77.8Y-116.94
X78.5Y-114.84
X78.5Y-116.24
X79.2Y-114.14
X79.2Y-115.54
X79.2Y-116.94
X79.9Y-114.84
X79.9Y-116.24
T2
X71.23Y-99.31
X71.23Y-104.05
X72.26Y-95.19
X72.78Y-121.35
X72.84Y-122.74
X73.0Y-105.5
X76.31Y-100.66
X76.5Y-96.5
X76.86Y-89.25
X76.87Y-90.05
X77.67Y-90.05
X77.671Y-89.25
X79.801Y-88.021
X80.28Y-98.05
X81.0Y-97.0
X82.64Y-87.72
X83.44Y-84.74
X86.5Y-123.5
X87.0Y-113.0
X90.42Y-105.19
X90.47Y-119.82
X92.76Y-87.77
X93.85Y-121.62
X93.9Y-105.11
X93.95Y-119.52
X94.58Y-107.85
X94.75Y-94.45
X97.29Y-86.58
X97.38Y-96.09
X97.85Y-104.35
X99.6Y-106.1
X99.76Y-87.36
X102.34Y-95.46
X102.71Y-107.24
X103.06Y-89.23
X104.203Y-104.02
X104.92Y-86.16
T3
X87.75Y-96.0
X88.95Y-96.0
T4
X73.1Y-91.0
X73.1Y-92.25
X73.1Y-93.5
T6
X72.22Y-77.68
X73.49Y-77.68
T7
X99.199Y-93.75
X99.199Y-96.75
X99.259Y-77.574
X99.259Y-80.574
T5
G00X76.225Y-78.575
M15
G01X76.225Y-77.975
M16
G05
G00X76.225Y-83.005
M15
G01X76.225Y-81.905
M16
G05
G00X84.865Y-78.575
M15
G01X84.865Y-77.975
M16
G05
G00X84.865Y-83.005
M15
G01X84.865Y-81.905
M16
G05
M30
