%TF.GenerationSoftware,KiCad,Pcbnew,10.0.3*%
%TF.CreationDate,2026-07-19T19:03:14+03:00*%
%TF.ProjectId,photometer3,70686f74-6f6d-4657-9465-72332e6b6963,rev?*%
%TF.SameCoordinates,Original*%
%TF.FileFunction,Copper,L1,Top*%
%TF.FilePolarity,Positive*%
%FSLAX46Y46*%
G04 Gerber Fmt 4.6, Leading zero omitted, Abs format (unit mm)*
G04 Created by KiCad (PCBNEW 10.0.3) date 2026-07-19 19:03:14*
%MOMM*%
%LPD*%
G01*
G04 APERTURE LIST*
G04 Aperture macros list*
%AMRoundRect*
0 Rectangle with rounded corners*
0 $1 Rounding radius*
0 $2 $3 $4 $5 $6 $7 $8 $9 X,Y pos of 4 corners*
0 Add a 4 corners polygon primitive as box body*
4,1,4,$2,$3,$4,$5,$6,$7,$8,$9,$2,$3,0*
0 Add four circle primitives for the rounded corners*
1,1,$1+$1,$2,$3*
1,1,$1+$1,$4,$5*
1,1,$1+$1,$6,$7*
1,1,$1+$1,$8,$9*
0 Add four rect primitives between the rounded corners*
20,1,$1+$1,$2,$3,$4,$5,0*
20,1,$1+$1,$4,$5,$6,$7,0*
20,1,$1+$1,$6,$7,$8,$9,0*
20,1,$1+$1,$8,$9,$2,$3,0*%
G04 Aperture macros list end*
%ADD10C,0.150000*%
%ADD11C,0.300000*%
%ADD12C,0.400000*%
%TA.AperFunction,EtchedComponent*%
%ADD13C,0.000000*%
%TD*%
%TA.AperFunction,SMDPad,CuDef*%
%ADD14RoundRect,0.250000X0.450000X-0.262500X0.450000X0.262500X-0.450000X0.262500X-0.450000X-0.262500X0*%
%TD*%
%TA.AperFunction,SMDPad,CuDef*%
%ADD15RoundRect,0.150000X0.150000X0.575000X-0.150000X0.575000X-0.150000X-0.575000X0.150000X-0.575000X0*%
%TD*%
%TA.AperFunction,SMDPad,CuDef*%
%ADD16RoundRect,0.075000X0.075000X0.650000X-0.075000X0.650000X-0.075000X-0.650000X0.075000X-0.650000X0*%
%TD*%
%TA.AperFunction,ComponentPad*%
%ADD17O,1.000000X2.100000*%
%TD*%
%TA.AperFunction,ComponentPad*%
%ADD18O,1.000000X1.600000*%
%TD*%
%TA.AperFunction,SMDPad,CuDef*%
%ADD19R,2.800000X0.850000*%
%TD*%
%TA.AperFunction,SMDPad,CuDef*%
%ADD20RoundRect,0.250000X0.250000X0.475000X-0.250000X0.475000X-0.250000X-0.475000X0.250000X-0.475000X0*%
%TD*%
%TA.AperFunction,SMDPad,CuDef*%
%ADD21RoundRect,0.250000X0.262500X0.450000X-0.262500X0.450000X-0.262500X-0.450000X0.262500X-0.450000X0*%
%TD*%
%TA.AperFunction,SMDPad,CuDef*%
%ADD22RoundRect,0.250000X-0.262500X-0.450000X0.262500X-0.450000X0.262500X0.450000X-0.262500X0.450000X0*%
%TD*%
%TA.AperFunction,ComponentPad*%
%ADD23RoundRect,0.200000X0.450000X-0.200000X0.450000X0.200000X-0.450000X0.200000X-0.450000X-0.200000X0*%
%TD*%
%TA.AperFunction,ComponentPad*%
%ADD24O,1.300000X0.800000*%
%TD*%
%TA.AperFunction,SMDPad,CuDef*%
%ADD25RoundRect,0.250000X-0.250000X-0.475000X0.250000X-0.475000X0.250000X0.475000X-0.250000X0.475000X0*%
%TD*%
%TA.AperFunction,SMDPad,CuDef*%
%ADD26RoundRect,0.250000X-0.475000X0.250000X-0.475000X-0.250000X0.475000X-0.250000X0.475000X0.250000X0*%
%TD*%
%TA.AperFunction,ComponentPad*%
%ADD27C,0.600000*%
%TD*%
%TA.AperFunction,SMDPad,CuDef*%
%ADD28RoundRect,0.243750X-0.456250X0.243750X-0.456250X-0.243750X0.456250X-0.243750X0.456250X0.243750X0*%
%TD*%
%TA.AperFunction,ComponentPad*%
%ADD29R,1.000000X1.000000*%
%TD*%
%TA.AperFunction,ComponentPad*%
%ADD30C,1.000000*%
%TD*%
%TA.AperFunction,SMDPad,CuDef*%
%ADD31RoundRect,0.250000X0.475000X-0.250000X0.475000X0.250000X-0.475000X0.250000X-0.475000X-0.250000X0*%
%TD*%
%TA.AperFunction,SMDPad,CuDef*%
%ADD32RoundRect,0.062500X-0.375000X-0.062500X0.375000X-0.062500X0.375000X0.062500X-0.375000X0.062500X0*%
%TD*%
%TA.AperFunction,SMDPad,CuDef*%
%ADD33RoundRect,0.062500X-0.062500X-0.375000X0.062500X-0.375000X0.062500X0.375000X-0.062500X0.375000X0*%
%TD*%
%TA.AperFunction,HeatsinkPad*%
%ADD34R,1.600000X1.600000*%
%TD*%
%TA.AperFunction,SMDPad,CuDef*%
%ADD35RoundRect,0.062500X-0.350000X-0.062500X0.350000X-0.062500X0.350000X0.062500X-0.350000X0.062500X0*%
%TD*%
%TA.AperFunction,HeatsinkPad*%
%ADD36R,1.200000X2.000000*%
%TD*%
%TA.AperFunction,ComponentPad*%
%ADD37C,1.800000*%
%TD*%
%TA.AperFunction,HeatsinkPad*%
%ADD38C,0.600000*%
%TD*%
%TA.AperFunction,ViaPad*%
%ADD39C,0.600000*%
%TD*%
%TA.AperFunction,Conductor*%
%ADD40C,0.300000*%
%TD*%
%TA.AperFunction,Conductor*%
%ADD41C,0.500000*%
%TD*%
%TA.AperFunction,Conductor*%
%ADD42C,0.200000*%
%TD*%
G04 APERTURE END LIST*
D10*
X177002200Y-166007200D02*
X285002200Y-166007200D01*
X285002200Y-198007200D01*
X177002200Y-198007200D01*
X177002200Y-166007200D01*
X10000000Y-10000000D02*
X287002200Y-10000000D01*
X287002200Y-200007200D01*
X10000000Y-200007200D01*
X10000000Y-10000000D01*
X12000000Y-12000000D02*
X285002200Y-12000000D01*
X285002200Y-198007200D01*
X12000000Y-198007200D01*
X12000000Y-12000000D01*
X60000000Y-12000000D02*
X60000000Y-10000000D01*
X110000000Y-12000000D02*
X110000000Y-10000000D01*
X160000000Y-12000000D02*
X160000000Y-10000000D01*
X210000000Y-12000000D02*
X210000000Y-10000000D01*
X260000000Y-12000000D02*
X260000000Y-10000000D01*
X36089160Y-11593604D02*
X35346303Y-11593604D01*
X35717731Y-11593604D02*
X35717731Y-10293604D01*
X35717731Y-10293604D02*
X35593922Y-10479319D01*
X35593922Y-10479319D02*
X35470112Y-10603128D01*
X35470112Y-10603128D02*
X35346303Y-10665033D01*
X85346303Y-10417414D02*
X85408207Y-10355509D01*
X85408207Y-10355509D02*
X85532017Y-10293604D01*
X85532017Y-10293604D02*
X85841541Y-10293604D01*
X85841541Y-10293604D02*
X85965350Y-10355509D01*
X85965350Y-10355509D02*
X86027255Y-10417414D01*
X86027255Y-10417414D02*
X86089160Y-10541223D01*
X86089160Y-10541223D02*
X86089160Y-10665033D01*
X86089160Y-10665033D02*
X86027255Y-10850747D01*
X86027255Y-10850747D02*
X85284398Y-11593604D01*
X85284398Y-11593604D02*
X86089160Y-11593604D01*
X135284398Y-10293604D02*
X136089160Y-10293604D01*
X136089160Y-10293604D02*
X135655826Y-10788842D01*
X135655826Y-10788842D02*
X135841541Y-10788842D01*
X135841541Y-10788842D02*
X135965350Y-10850747D01*
X135965350Y-10850747D02*
X136027255Y-10912652D01*
X136027255Y-10912652D02*
X136089160Y-11036461D01*
X136089160Y-11036461D02*
X136089160Y-11345985D01*
X136089160Y-11345985D02*
X136027255Y-11469795D01*
X136027255Y-11469795D02*
X135965350Y-11531700D01*
X135965350Y-11531700D02*
X135841541Y-11593604D01*
X135841541Y-11593604D02*
X135470112Y-11593604D01*
X135470112Y-11593604D02*
X135346303Y-11531700D01*
X135346303Y-11531700D02*
X135284398Y-11469795D01*
X185965350Y-10726938D02*
X185965350Y-11593604D01*
X185655826Y-10231700D02*
X185346303Y-11160271D01*
X185346303Y-11160271D02*
X186151064Y-11160271D01*
X236027255Y-10293604D02*
X235408207Y-10293604D01*
X235408207Y-10293604D02*
X235346303Y-10912652D01*
X235346303Y-10912652D02*
X235408207Y-10850747D01*
X235408207Y-10850747D02*
X235532017Y-10788842D01*
X235532017Y-10788842D02*
X235841541Y-10788842D01*
X235841541Y-10788842D02*
X235965350Y-10850747D01*
X235965350Y-10850747D02*
X236027255Y-10912652D01*
X236027255Y-10912652D02*
X236089160Y-11036461D01*
X236089160Y-11036461D02*
X236089160Y-11345985D01*
X236089160Y-11345985D02*
X236027255Y-11469795D01*
X236027255Y-11469795D02*
X235965350Y-11531700D01*
X235965350Y-11531700D02*
X235841541Y-11593604D01*
X235841541Y-11593604D02*
X235532017Y-11593604D01*
X235532017Y-11593604D02*
X235408207Y-11531700D01*
X235408207Y-11531700D02*
X235346303Y-11469795D01*
X285965350Y-10293604D02*
X285717731Y-10293604D01*
X285717731Y-10293604D02*
X285593922Y-10355509D01*
X285593922Y-10355509D02*
X285532017Y-10417414D01*
X285532017Y-10417414D02*
X285408207Y-10603128D01*
X285408207Y-10603128D02*
X285346303Y-10850747D01*
X285346303Y-10850747D02*
X285346303Y-11345985D01*
X285346303Y-11345985D02*
X285408207Y-11469795D01*
X285408207Y-11469795D02*
X285470112Y-11531700D01*
X285470112Y-11531700D02*
X285593922Y-11593604D01*
X285593922Y-11593604D02*
X285841541Y-11593604D01*
X285841541Y-11593604D02*
X285965350Y-11531700D01*
X285965350Y-11531700D02*
X286027255Y-11469795D01*
X286027255Y-11469795D02*
X286089160Y-11345985D01*
X286089160Y-11345985D02*
X286089160Y-11036461D01*
X286089160Y-11036461D02*
X286027255Y-10912652D01*
X286027255Y-10912652D02*
X285965350Y-10850747D01*
X285965350Y-10850747D02*
X285841541Y-10788842D01*
X285841541Y-10788842D02*
X285593922Y-10788842D01*
X285593922Y-10788842D02*
X285470112Y-10850747D01*
X285470112Y-10850747D02*
X285408207Y-10912652D01*
X285408207Y-10912652D02*
X285346303Y-11036461D01*
X60000000Y-198007200D02*
X60000000Y-200007200D01*
X110000000Y-198007200D02*
X110000000Y-200007200D01*
X160000000Y-198007200D02*
X160000000Y-200007200D01*
X210000000Y-198007200D02*
X210000000Y-200007200D01*
X260000000Y-198007200D02*
X260000000Y-200007200D01*
X36089160Y-199600804D02*
X35346303Y-199600804D01*
X35717731Y-199600804D02*
X35717731Y-198300804D01*
X35717731Y-198300804D02*
X35593922Y-198486519D01*
X35593922Y-198486519D02*
X35470112Y-198610328D01*
X35470112Y-198610328D02*
X35346303Y-198672233D01*
X85346303Y-198424614D02*
X85408207Y-198362709D01*
X85408207Y-198362709D02*
X85532017Y-198300804D01*
X85532017Y-198300804D02*
X85841541Y-198300804D01*
X85841541Y-198300804D02*
X85965350Y-198362709D01*
X85965350Y-198362709D02*
X86027255Y-198424614D01*
X86027255Y-198424614D02*
X86089160Y-198548423D01*
X86089160Y-198548423D02*
X86089160Y-198672233D01*
X86089160Y-198672233D02*
X86027255Y-198857947D01*
X86027255Y-198857947D02*
X85284398Y-199600804D01*
X85284398Y-199600804D02*
X86089160Y-199600804D01*
X135284398Y-198300804D02*
X136089160Y-198300804D01*
X136089160Y-198300804D02*
X135655826Y-198796042D01*
X135655826Y-198796042D02*
X135841541Y-198796042D01*
X135841541Y-198796042D02*
X135965350Y-198857947D01*
X135965350Y-198857947D02*
X136027255Y-198919852D01*
X136027255Y-198919852D02*
X136089160Y-199043661D01*
X136089160Y-199043661D02*
X136089160Y-199353185D01*
X136089160Y-199353185D02*
X136027255Y-199476995D01*
X136027255Y-199476995D02*
X135965350Y-199538900D01*
X135965350Y-199538900D02*
X135841541Y-199600804D01*
X135841541Y-199600804D02*
X135470112Y-199600804D01*
X135470112Y-199600804D02*
X135346303Y-199538900D01*
X135346303Y-199538900D02*
X135284398Y-199476995D01*
X185965350Y-198734138D02*
X185965350Y-199600804D01*
X185655826Y-198238900D02*
X185346303Y-199167471D01*
X185346303Y-199167471D02*
X186151064Y-199167471D01*
X236027255Y-198300804D02*
X235408207Y-198300804D01*
X235408207Y-198300804D02*
X235346303Y-198919852D01*
X235346303Y-198919852D02*
X235408207Y-198857947D01*
X235408207Y-198857947D02*
X235532017Y-198796042D01*
X235532017Y-198796042D02*
X235841541Y-198796042D01*
X235841541Y-198796042D02*
X235965350Y-198857947D01*
X235965350Y-198857947D02*
X236027255Y-198919852D01*
X236027255Y-198919852D02*
X236089160Y-199043661D01*
X236089160Y-199043661D02*
X236089160Y-199353185D01*
X236089160Y-199353185D02*
X236027255Y-199476995D01*
X236027255Y-199476995D02*
X235965350Y-199538900D01*
X235965350Y-199538900D02*
X235841541Y-199600804D01*
X235841541Y-199600804D02*
X235532017Y-199600804D01*
X235532017Y-199600804D02*
X235408207Y-199538900D01*
X235408207Y-199538900D02*
X235346303Y-199476995D01*
X285965350Y-198300804D02*
X285717731Y-198300804D01*
X285717731Y-198300804D02*
X285593922Y-198362709D01*
X285593922Y-198362709D02*
X285532017Y-198424614D01*
X285532017Y-198424614D02*
X285408207Y-198610328D01*
X285408207Y-198610328D02*
X285346303Y-198857947D01*
X285346303Y-198857947D02*
X285346303Y-199353185D01*
X285346303Y-199353185D02*
X285408207Y-199476995D01*
X285408207Y-199476995D02*
X285470112Y-199538900D01*
X285470112Y-199538900D02*
X285593922Y-199600804D01*
X285593922Y-199600804D02*
X285841541Y-199600804D01*
X285841541Y-199600804D02*
X285965350Y-199538900D01*
X285965350Y-199538900D02*
X286027255Y-199476995D01*
X286027255Y-199476995D02*
X286089160Y-199353185D01*
X286089160Y-199353185D02*
X286089160Y-199043661D01*
X286089160Y-199043661D02*
X286027255Y-198919852D01*
X286027255Y-198919852D02*
X285965350Y-198857947D01*
X285965350Y-198857947D02*
X285841541Y-198796042D01*
X285841541Y-198796042D02*
X285593922Y-198796042D01*
X285593922Y-198796042D02*
X285470112Y-198857947D01*
X285470112Y-198857947D02*
X285408207Y-198919852D01*
X285408207Y-198919852D02*
X285346303Y-199043661D01*
X10000000Y-60000000D02*
X12000000Y-60000000D01*
X10000000Y-110000000D02*
X12000000Y-110000000D01*
X10000000Y-160000000D02*
X12000000Y-160000000D01*
X10690476Y-35222176D02*
X11309523Y-35222176D01*
X10566666Y-35593604D02*
X10999999Y-34293604D01*
X10999999Y-34293604D02*
X11433333Y-35593604D01*
X11092857Y-84912652D02*
X11278571Y-84974557D01*
X11278571Y-84974557D02*
X11340476Y-85036461D01*
X11340476Y-85036461D02*
X11402380Y-85160271D01*
X11402380Y-85160271D02*
X11402380Y-85345985D01*
X11402380Y-85345985D02*
X11340476Y-85469795D01*
X11340476Y-85469795D02*
X11278571Y-85531700D01*
X11278571Y-85531700D02*
X11154761Y-85593604D01*
X11154761Y-85593604D02*
X10659523Y-85593604D01*
X10659523Y-85593604D02*
X10659523Y-84293604D01*
X10659523Y-84293604D02*
X11092857Y-84293604D01*
X11092857Y-84293604D02*
X11216666Y-84355509D01*
X11216666Y-84355509D02*
X11278571Y-84417414D01*
X11278571Y-84417414D02*
X11340476Y-84541223D01*
X11340476Y-84541223D02*
X11340476Y-84665033D01*
X11340476Y-84665033D02*
X11278571Y-84788842D01*
X11278571Y-84788842D02*
X11216666Y-84850747D01*
X11216666Y-84850747D02*
X11092857Y-84912652D01*
X11092857Y-84912652D02*
X10659523Y-84912652D01*
X11402380Y-135469795D02*
X11340476Y-135531700D01*
X11340476Y-135531700D02*
X11154761Y-135593604D01*
X11154761Y-135593604D02*
X11030952Y-135593604D01*
X11030952Y-135593604D02*
X10845238Y-135531700D01*
X10845238Y-135531700D02*
X10721428Y-135407890D01*
X10721428Y-135407890D02*
X10659523Y-135284080D01*
X10659523Y-135284080D02*
X10597619Y-135036461D01*
X10597619Y-135036461D02*
X10597619Y-134850747D01*
X10597619Y-134850747D02*
X10659523Y-134603128D01*
X10659523Y-134603128D02*
X10721428Y-134479319D01*
X10721428Y-134479319D02*
X10845238Y-134355509D01*
X10845238Y-134355509D02*
X11030952Y-134293604D01*
X11030952Y-134293604D02*
X11154761Y-134293604D01*
X11154761Y-134293604D02*
X11340476Y-134355509D01*
X11340476Y-134355509D02*
X11402380Y-134417414D01*
X10659523Y-185593604D02*
X10659523Y-184293604D01*
X10659523Y-184293604D02*
X10969047Y-184293604D01*
X10969047Y-184293604D02*
X11154761Y-184355509D01*
X11154761Y-184355509D02*
X11278571Y-184479319D01*
X11278571Y-184479319D02*
X11340476Y-184603128D01*
X11340476Y-184603128D02*
X11402380Y-184850747D01*
X11402380Y-184850747D02*
X11402380Y-185036461D01*
X11402380Y-185036461D02*
X11340476Y-185284080D01*
X11340476Y-185284080D02*
X11278571Y-185407890D01*
X11278571Y-185407890D02*
X11154761Y-185531700D01*
X11154761Y-185531700D02*
X10969047Y-185593604D01*
X10969047Y-185593604D02*
X10659523Y-185593604D01*
X287002200Y-60000000D02*
X285002200Y-60000000D01*
X287002200Y-110000000D02*
X285002200Y-110000000D01*
X287002200Y-160000000D02*
X285002200Y-160000000D01*
X285692676Y-35222176D02*
X286311723Y-35222176D01*
X285568866Y-35593604D02*
X286002199Y-34293604D01*
X286002199Y-34293604D02*
X286435533Y-35593604D01*
X286095057Y-84912652D02*
X286280771Y-84974557D01*
X286280771Y-84974557D02*
X286342676Y-85036461D01*
X286342676Y-85036461D02*
X286404580Y-85160271D01*
X286404580Y-85160271D02*
X286404580Y-85345985D01*
X286404580Y-85345985D02*
X286342676Y-85469795D01*
X286342676Y-85469795D02*
X286280771Y-85531700D01*
X286280771Y-85531700D02*
X286156961Y-85593604D01*
X286156961Y-85593604D02*
X285661723Y-85593604D01*
X285661723Y-85593604D02*
X285661723Y-84293604D01*
X285661723Y-84293604D02*
X286095057Y-84293604D01*
X286095057Y-84293604D02*
X286218866Y-84355509D01*
X286218866Y-84355509D02*
X286280771Y-84417414D01*
X286280771Y-84417414D02*
X286342676Y-84541223D01*
X286342676Y-84541223D02*
X286342676Y-84665033D01*
X286342676Y-84665033D02*
X286280771Y-84788842D01*
X286280771Y-84788842D02*
X286218866Y-84850747D01*
X286218866Y-84850747D02*
X286095057Y-84912652D01*
X286095057Y-84912652D02*
X285661723Y-84912652D01*
X286404580Y-135469795D02*
X286342676Y-135531700D01*
X286342676Y-135531700D02*
X286156961Y-135593604D01*
X286156961Y-135593604D02*
X286033152Y-135593604D01*
X286033152Y-135593604D02*
X285847438Y-135531700D01*
X285847438Y-135531700D02*
X285723628Y-135407890D01*
X285723628Y-135407890D02*
X285661723Y-135284080D01*
X285661723Y-135284080D02*
X285599819Y-135036461D01*
X285599819Y-135036461D02*
X285599819Y-134850747D01*
X285599819Y-134850747D02*
X285661723Y-134603128D01*
X285661723Y-134603128D02*
X285723628Y-134479319D01*
X285723628Y-134479319D02*
X285847438Y-134355509D01*
X285847438Y-134355509D02*
X286033152Y-134293604D01*
X286033152Y-134293604D02*
X286156961Y-134293604D01*
X286156961Y-134293604D02*
X286342676Y-134355509D01*
X286342676Y-134355509D02*
X286404580Y-134417414D01*
X285661723Y-185593604D02*
X285661723Y-184293604D01*
X285661723Y-184293604D02*
X285971247Y-184293604D01*
X285971247Y-184293604D02*
X286156961Y-184355509D01*
X286156961Y-184355509D02*
X286280771Y-184479319D01*
X286280771Y-184479319D02*
X286342676Y-184603128D01*
X286342676Y-184603128D02*
X286404580Y-184850747D01*
X286404580Y-184850747D02*
X286404580Y-185036461D01*
X286404580Y-185036461D02*
X286342676Y-185284080D01*
X286342676Y-185284080D02*
X286280771Y-185407890D01*
X286280771Y-185407890D02*
X286156961Y-185531700D01*
X286156961Y-185531700D02*
X285971247Y-185593604D01*
X285971247Y-185593604D02*
X285661723Y-185593604D01*
X200458026Y-193793328D02*
X200458026Y-192293328D01*
X200458026Y-192293328D02*
X200815169Y-192293328D01*
X200815169Y-192293328D02*
X201029455Y-192364757D01*
X201029455Y-192364757D02*
X201172312Y-192507614D01*
X201172312Y-192507614D02*
X201243741Y-192650471D01*
X201243741Y-192650471D02*
X201315169Y-192936185D01*
X201315169Y-192936185D02*
X201315169Y-193150471D01*
X201315169Y-193150471D02*
X201243741Y-193436185D01*
X201243741Y-193436185D02*
X201172312Y-193579042D01*
X201172312Y-193579042D02*
X201029455Y-193721900D01*
X201029455Y-193721900D02*
X200815169Y-193793328D01*
X200815169Y-193793328D02*
X200458026Y-193793328D01*
X202600884Y-193793328D02*
X202600884Y-193007614D01*
X202600884Y-193007614D02*
X202529455Y-192864757D01*
X202529455Y-192864757D02*
X202386598Y-192793328D01*
X202386598Y-192793328D02*
X202100884Y-192793328D01*
X202100884Y-192793328D02*
X201958026Y-192864757D01*
X202600884Y-193721900D02*
X202458026Y-193793328D01*
X202458026Y-193793328D02*
X202100884Y-193793328D01*
X202100884Y-193793328D02*
X201958026Y-193721900D01*
X201958026Y-193721900D02*
X201886598Y-193579042D01*
X201886598Y-193579042D02*
X201886598Y-193436185D01*
X201886598Y-193436185D02*
X201958026Y-193293328D01*
X201958026Y-193293328D02*
X202100884Y-193221900D01*
X202100884Y-193221900D02*
X202458026Y-193221900D01*
X202458026Y-193221900D02*
X202600884Y-193150471D01*
X203100884Y-192793328D02*
X203672312Y-192793328D01*
X203315169Y-192293328D02*
X203315169Y-193579042D01*
X203315169Y-193579042D02*
X203386598Y-193721900D01*
X203386598Y-193721900D02*
X203529455Y-193793328D01*
X203529455Y-193793328D02*
X203672312Y-193793328D01*
X204743741Y-193721900D02*
X204600884Y-193793328D01*
X204600884Y-193793328D02*
X204315170Y-193793328D01*
X204315170Y-193793328D02*
X204172312Y-193721900D01*
X204172312Y-193721900D02*
X204100884Y-193579042D01*
X204100884Y-193579042D02*
X204100884Y-193007614D01*
X204100884Y-193007614D02*
X204172312Y-192864757D01*
X204172312Y-192864757D02*
X204315170Y-192793328D01*
X204315170Y-192793328D02*
X204600884Y-192793328D01*
X204600884Y-192793328D02*
X204743741Y-192864757D01*
X204743741Y-192864757D02*
X204815170Y-193007614D01*
X204815170Y-193007614D02*
X204815170Y-193150471D01*
X204815170Y-193150471D02*
X204100884Y-193293328D01*
X205458026Y-193650471D02*
X205529455Y-193721900D01*
X205529455Y-193721900D02*
X205458026Y-193793328D01*
X205458026Y-193793328D02*
X205386598Y-193721900D01*
X205386598Y-193721900D02*
X205458026Y-193650471D01*
X205458026Y-193650471D02*
X205458026Y-193793328D01*
X205458026Y-192864757D02*
X205529455Y-192936185D01*
X205529455Y-192936185D02*
X205458026Y-193007614D01*
X205458026Y-193007614D02*
X205386598Y-192936185D01*
X205386598Y-192936185D02*
X205458026Y-192864757D01*
X205458026Y-192864757D02*
X205458026Y-193007614D01*
X177002200Y-194507200D02*
X285002200Y-194507200D01*
X178458026Y-196593328D02*
X178458026Y-195093328D01*
X179315169Y-196593328D02*
X178672312Y-195736185D01*
X179315169Y-195093328D02*
X178458026Y-195950471D01*
X179958026Y-196593328D02*
X179958026Y-195593328D01*
X179958026Y-195093328D02*
X179886598Y-195164757D01*
X179886598Y-195164757D02*
X179958026Y-195236185D01*
X179958026Y-195236185D02*
X180029455Y-195164757D01*
X180029455Y-195164757D02*
X179958026Y-195093328D01*
X179958026Y-195093328D02*
X179958026Y-195236185D01*
X181529455Y-196450471D02*
X181458027Y-196521900D01*
X181458027Y-196521900D02*
X181243741Y-196593328D01*
X181243741Y-196593328D02*
X181100884Y-196593328D01*
X181100884Y-196593328D02*
X180886598Y-196521900D01*
X180886598Y-196521900D02*
X180743741Y-196379042D01*
X180743741Y-196379042D02*
X180672312Y-196236185D01*
X180672312Y-196236185D02*
X180600884Y-195950471D01*
X180600884Y-195950471D02*
X180600884Y-195736185D01*
X180600884Y-195736185D02*
X180672312Y-195450471D01*
X180672312Y-195450471D02*
X180743741Y-195307614D01*
X180743741Y-195307614D02*
X180886598Y-195164757D01*
X180886598Y-195164757D02*
X181100884Y-195093328D01*
X181100884Y-195093328D02*
X181243741Y-195093328D01*
X181243741Y-195093328D02*
X181458027Y-195164757D01*
X181458027Y-195164757D02*
X181529455Y-195236185D01*
X182815170Y-196593328D02*
X182815170Y-195807614D01*
X182815170Y-195807614D02*
X182743741Y-195664757D01*
X182743741Y-195664757D02*
X182600884Y-195593328D01*
X182600884Y-195593328D02*
X182315170Y-195593328D01*
X182315170Y-195593328D02*
X182172312Y-195664757D01*
X182815170Y-196521900D02*
X182672312Y-196593328D01*
X182672312Y-196593328D02*
X182315170Y-196593328D01*
X182315170Y-196593328D02*
X182172312Y-196521900D01*
X182172312Y-196521900D02*
X182100884Y-196379042D01*
X182100884Y-196379042D02*
X182100884Y-196236185D01*
X182100884Y-196236185D02*
X182172312Y-196093328D01*
X182172312Y-196093328D02*
X182315170Y-196021900D01*
X182315170Y-196021900D02*
X182672312Y-196021900D01*
X182672312Y-196021900D02*
X182815170Y-195950471D01*
X184172313Y-196593328D02*
X184172313Y-195093328D01*
X184172313Y-196521900D02*
X184029455Y-196593328D01*
X184029455Y-196593328D02*
X183743741Y-196593328D01*
X183743741Y-196593328D02*
X183600884Y-196521900D01*
X183600884Y-196521900D02*
X183529455Y-196450471D01*
X183529455Y-196450471D02*
X183458027Y-196307614D01*
X183458027Y-196307614D02*
X183458027Y-195879042D01*
X183458027Y-195879042D02*
X183529455Y-195736185D01*
X183529455Y-195736185D02*
X183600884Y-195664757D01*
X183600884Y-195664757D02*
X183743741Y-195593328D01*
X183743741Y-195593328D02*
X184029455Y-195593328D01*
X184029455Y-195593328D02*
X184172313Y-195664757D01*
X186029455Y-195807614D02*
X186529455Y-195807614D01*
X186743741Y-196593328D02*
X186029455Y-196593328D01*
X186029455Y-196593328D02*
X186029455Y-195093328D01*
X186029455Y-195093328D02*
X186743741Y-195093328D01*
X187386598Y-196450471D02*
X187458027Y-196521900D01*
X187458027Y-196521900D02*
X187386598Y-196593328D01*
X187386598Y-196593328D02*
X187315170Y-196521900D01*
X187315170Y-196521900D02*
X187386598Y-196450471D01*
X187386598Y-196450471D02*
X187386598Y-196593328D01*
X188100884Y-196593328D02*
X188100884Y-195093328D01*
X188100884Y-195093328D02*
X188458027Y-195093328D01*
X188458027Y-195093328D02*
X188672313Y-195164757D01*
X188672313Y-195164757D02*
X188815170Y-195307614D01*
X188815170Y-195307614D02*
X188886599Y-195450471D01*
X188886599Y-195450471D02*
X188958027Y-195736185D01*
X188958027Y-195736185D02*
X188958027Y-195950471D01*
X188958027Y-195950471D02*
X188886599Y-196236185D01*
X188886599Y-196236185D02*
X188815170Y-196379042D01*
X188815170Y-196379042D02*
X188672313Y-196521900D01*
X188672313Y-196521900D02*
X188458027Y-196593328D01*
X188458027Y-196593328D02*
X188100884Y-196593328D01*
X189600884Y-196450471D02*
X189672313Y-196521900D01*
X189672313Y-196521900D02*
X189600884Y-196593328D01*
X189600884Y-196593328D02*
X189529456Y-196521900D01*
X189529456Y-196521900D02*
X189600884Y-196450471D01*
X189600884Y-196450471D02*
X189600884Y-196593328D01*
X190243742Y-196164757D02*
X190958028Y-196164757D01*
X190100885Y-196593328D02*
X190600885Y-195093328D01*
X190600885Y-195093328D02*
X191100885Y-196593328D01*
X191600884Y-196450471D02*
X191672313Y-196521900D01*
X191672313Y-196521900D02*
X191600884Y-196593328D01*
X191600884Y-196593328D02*
X191529456Y-196521900D01*
X191529456Y-196521900D02*
X191600884Y-196450471D01*
X191600884Y-196450471D02*
X191600884Y-196593328D01*
X194243742Y-196593328D02*
X193386599Y-196593328D01*
X193815170Y-196593328D02*
X193815170Y-195093328D01*
X193815170Y-195093328D02*
X193672313Y-195307614D01*
X193672313Y-195307614D02*
X193529456Y-195450471D01*
X193529456Y-195450471D02*
X193386599Y-195521900D01*
X195172313Y-195093328D02*
X195315170Y-195093328D01*
X195315170Y-195093328D02*
X195458027Y-195164757D01*
X195458027Y-195164757D02*
X195529456Y-195236185D01*
X195529456Y-195236185D02*
X195600884Y-195379042D01*
X195600884Y-195379042D02*
X195672313Y-195664757D01*
X195672313Y-195664757D02*
X195672313Y-196021900D01*
X195672313Y-196021900D02*
X195600884Y-196307614D01*
X195600884Y-196307614D02*
X195529456Y-196450471D01*
X195529456Y-196450471D02*
X195458027Y-196521900D01*
X195458027Y-196521900D02*
X195315170Y-196593328D01*
X195315170Y-196593328D02*
X195172313Y-196593328D01*
X195172313Y-196593328D02*
X195029456Y-196521900D01*
X195029456Y-196521900D02*
X194958027Y-196450471D01*
X194958027Y-196450471D02*
X194886598Y-196307614D01*
X194886598Y-196307614D02*
X194815170Y-196021900D01*
X194815170Y-196021900D02*
X194815170Y-195664757D01*
X194815170Y-195664757D02*
X194886598Y-195379042D01*
X194886598Y-195379042D02*
X194958027Y-195236185D01*
X194958027Y-195236185D02*
X195029456Y-195164757D01*
X195029456Y-195164757D02*
X195172313Y-195093328D01*
X196315169Y-196450471D02*
X196386598Y-196521900D01*
X196386598Y-196521900D02*
X196315169Y-196593328D01*
X196315169Y-196593328D02*
X196243741Y-196521900D01*
X196243741Y-196521900D02*
X196315169Y-196450471D01*
X196315169Y-196450471D02*
X196315169Y-196593328D01*
X197315170Y-195093328D02*
X197458027Y-195093328D01*
X197458027Y-195093328D02*
X197600884Y-195164757D01*
X197600884Y-195164757D02*
X197672313Y-195236185D01*
X197672313Y-195236185D02*
X197743741Y-195379042D01*
X197743741Y-195379042D02*
X197815170Y-195664757D01*
X197815170Y-195664757D02*
X197815170Y-196021900D01*
X197815170Y-196021900D02*
X197743741Y-196307614D01*
X197743741Y-196307614D02*
X197672313Y-196450471D01*
X197672313Y-196450471D02*
X197600884Y-196521900D01*
X197600884Y-196521900D02*
X197458027Y-196593328D01*
X197458027Y-196593328D02*
X197315170Y-196593328D01*
X197315170Y-196593328D02*
X197172313Y-196521900D01*
X197172313Y-196521900D02*
X197100884Y-196450471D01*
X197100884Y-196450471D02*
X197029455Y-196307614D01*
X197029455Y-196307614D02*
X196958027Y-196021900D01*
X196958027Y-196021900D02*
X196958027Y-195664757D01*
X196958027Y-195664757D02*
X197029455Y-195379042D01*
X197029455Y-195379042D02*
X197100884Y-195236185D01*
X197100884Y-195236185D02*
X197172313Y-195164757D01*
X197172313Y-195164757D02*
X197315170Y-195093328D01*
X198458026Y-196450471D02*
X198529455Y-196521900D01*
X198529455Y-196521900D02*
X198458026Y-196593328D01*
X198458026Y-196593328D02*
X198386598Y-196521900D01*
X198386598Y-196521900D02*
X198458026Y-196450471D01*
X198458026Y-196450471D02*
X198458026Y-196593328D01*
X199029455Y-195093328D02*
X199958027Y-195093328D01*
X199958027Y-195093328D02*
X199458027Y-195664757D01*
X199458027Y-195664757D02*
X199672312Y-195664757D01*
X199672312Y-195664757D02*
X199815170Y-195736185D01*
X199815170Y-195736185D02*
X199886598Y-195807614D01*
X199886598Y-195807614D02*
X199958027Y-195950471D01*
X199958027Y-195950471D02*
X199958027Y-196307614D01*
X199958027Y-196307614D02*
X199886598Y-196450471D01*
X199886598Y-196450471D02*
X199815170Y-196521900D01*
X199815170Y-196521900D02*
X199672312Y-196593328D01*
X199672312Y-196593328D02*
X199243741Y-196593328D01*
X199243741Y-196593328D02*
X199100884Y-196521900D01*
X199100884Y-196521900D02*
X199029455Y-196450471D01*
X177002200Y-191507200D02*
X285002200Y-191507200D01*
D11*
X264413853Y-193785528D02*
X263913853Y-193071242D01*
X263556710Y-193785528D02*
X263556710Y-192285528D01*
X263556710Y-192285528D02*
X264128139Y-192285528D01*
X264128139Y-192285528D02*
X264270996Y-192356957D01*
X264270996Y-192356957D02*
X264342425Y-192428385D01*
X264342425Y-192428385D02*
X264413853Y-192571242D01*
X264413853Y-192571242D02*
X264413853Y-192785528D01*
X264413853Y-192785528D02*
X264342425Y-192928385D01*
X264342425Y-192928385D02*
X264270996Y-192999814D01*
X264270996Y-192999814D02*
X264128139Y-193071242D01*
X264128139Y-193071242D02*
X263556710Y-193071242D01*
X265628139Y-193714100D02*
X265485282Y-193785528D01*
X265485282Y-193785528D02*
X265199568Y-193785528D01*
X265199568Y-193785528D02*
X265056710Y-193714100D01*
X265056710Y-193714100D02*
X264985282Y-193571242D01*
X264985282Y-193571242D02*
X264985282Y-192999814D01*
X264985282Y-192999814D02*
X265056710Y-192856957D01*
X265056710Y-192856957D02*
X265199568Y-192785528D01*
X265199568Y-192785528D02*
X265485282Y-192785528D01*
X265485282Y-192785528D02*
X265628139Y-192856957D01*
X265628139Y-192856957D02*
X265699568Y-192999814D01*
X265699568Y-192999814D02*
X265699568Y-193142671D01*
X265699568Y-193142671D02*
X264985282Y-193285528D01*
X266199567Y-192785528D02*
X266556710Y-193785528D01*
X266556710Y-193785528D02*
X266913853Y-192785528D01*
X267485281Y-193642671D02*
X267556710Y-193714100D01*
X267556710Y-193714100D02*
X267485281Y-193785528D01*
X267485281Y-193785528D02*
X267413853Y-193714100D01*
X267413853Y-193714100D02*
X267485281Y-193642671D01*
X267485281Y-193642671D02*
X267485281Y-193785528D01*
X267485281Y-192856957D02*
X267556710Y-192928385D01*
X267556710Y-192928385D02*
X267485281Y-192999814D01*
X267485281Y-192999814D02*
X267413853Y-192928385D01*
X267413853Y-192928385D02*
X267485281Y-192856957D01*
X267485281Y-192856957D02*
X267485281Y-192999814D01*
D10*
X178386598Y-193721900D02*
X178600884Y-193793328D01*
X178600884Y-193793328D02*
X178958026Y-193793328D01*
X178958026Y-193793328D02*
X179100884Y-193721900D01*
X179100884Y-193721900D02*
X179172312Y-193650471D01*
X179172312Y-193650471D02*
X179243741Y-193507614D01*
X179243741Y-193507614D02*
X179243741Y-193364757D01*
X179243741Y-193364757D02*
X179172312Y-193221900D01*
X179172312Y-193221900D02*
X179100884Y-193150471D01*
X179100884Y-193150471D02*
X178958026Y-193079042D01*
X178958026Y-193079042D02*
X178672312Y-193007614D01*
X178672312Y-193007614D02*
X178529455Y-192936185D01*
X178529455Y-192936185D02*
X178458026Y-192864757D01*
X178458026Y-192864757D02*
X178386598Y-192721900D01*
X178386598Y-192721900D02*
X178386598Y-192579042D01*
X178386598Y-192579042D02*
X178458026Y-192436185D01*
X178458026Y-192436185D02*
X178529455Y-192364757D01*
X178529455Y-192364757D02*
X178672312Y-192293328D01*
X178672312Y-192293328D02*
X179029455Y-192293328D01*
X179029455Y-192293328D02*
X179243741Y-192364757D01*
X179886597Y-193793328D02*
X179886597Y-192793328D01*
X179886597Y-192293328D02*
X179815169Y-192364757D01*
X179815169Y-192364757D02*
X179886597Y-192436185D01*
X179886597Y-192436185D02*
X179958026Y-192364757D01*
X179958026Y-192364757D02*
X179886597Y-192293328D01*
X179886597Y-192293328D02*
X179886597Y-192436185D01*
X180458026Y-192793328D02*
X181243741Y-192793328D01*
X181243741Y-192793328D02*
X180458026Y-193793328D01*
X180458026Y-193793328D02*
X181243741Y-193793328D01*
X182386598Y-193721900D02*
X182243741Y-193793328D01*
X182243741Y-193793328D02*
X181958027Y-193793328D01*
X181958027Y-193793328D02*
X181815169Y-193721900D01*
X181815169Y-193721900D02*
X181743741Y-193579042D01*
X181743741Y-193579042D02*
X181743741Y-193007614D01*
X181743741Y-193007614D02*
X181815169Y-192864757D01*
X181815169Y-192864757D02*
X181958027Y-192793328D01*
X181958027Y-192793328D02*
X182243741Y-192793328D01*
X182243741Y-192793328D02*
X182386598Y-192864757D01*
X182386598Y-192864757D02*
X182458027Y-193007614D01*
X182458027Y-193007614D02*
X182458027Y-193150471D01*
X182458027Y-193150471D02*
X181743741Y-193293328D01*
X183100883Y-193650471D02*
X183172312Y-193721900D01*
X183172312Y-193721900D02*
X183100883Y-193793328D01*
X183100883Y-193793328D02*
X183029455Y-193721900D01*
X183029455Y-193721900D02*
X183100883Y-193650471D01*
X183100883Y-193650471D02*
X183100883Y-193793328D01*
X183100883Y-192864757D02*
X183172312Y-192936185D01*
X183172312Y-192936185D02*
X183100883Y-193007614D01*
X183100883Y-193007614D02*
X183029455Y-192936185D01*
X183029455Y-192936185D02*
X183100883Y-192864757D01*
X183100883Y-192864757D02*
X183100883Y-193007614D01*
X184886598Y-193364757D02*
X185600884Y-193364757D01*
X184743741Y-193793328D02*
X185243741Y-192293328D01*
X185243741Y-192293328D02*
X185743741Y-193793328D01*
X186886598Y-192793328D02*
X186886598Y-193793328D01*
X186529455Y-192221900D02*
X186172312Y-193293328D01*
X186172312Y-193293328D02*
X187100883Y-193293328D01*
X263458026Y-196593328D02*
X263458026Y-195093328D01*
X264815170Y-196593328D02*
X264815170Y-195093328D01*
X264815170Y-196521900D02*
X264672312Y-196593328D01*
X264672312Y-196593328D02*
X264386598Y-196593328D01*
X264386598Y-196593328D02*
X264243741Y-196521900D01*
X264243741Y-196521900D02*
X264172312Y-196450471D01*
X264172312Y-196450471D02*
X264100884Y-196307614D01*
X264100884Y-196307614D02*
X264100884Y-195879042D01*
X264100884Y-195879042D02*
X264172312Y-195736185D01*
X264172312Y-195736185D02*
X264243741Y-195664757D01*
X264243741Y-195664757D02*
X264386598Y-195593328D01*
X264386598Y-195593328D02*
X264672312Y-195593328D01*
X264672312Y-195593328D02*
X264815170Y-195664757D01*
X265529455Y-196450471D02*
X265600884Y-196521900D01*
X265600884Y-196521900D02*
X265529455Y-196593328D01*
X265529455Y-196593328D02*
X265458027Y-196521900D01*
X265458027Y-196521900D02*
X265529455Y-196450471D01*
X265529455Y-196450471D02*
X265529455Y-196593328D01*
X265529455Y-195664757D02*
X265600884Y-195736185D01*
X265600884Y-195736185D02*
X265529455Y-195807614D01*
X265529455Y-195807614D02*
X265458027Y-195736185D01*
X265458027Y-195736185D02*
X265529455Y-195664757D01*
X265529455Y-195664757D02*
X265529455Y-195807614D01*
X268172313Y-196593328D02*
X267315170Y-196593328D01*
X267743741Y-196593328D02*
X267743741Y-195093328D01*
X267743741Y-195093328D02*
X267600884Y-195307614D01*
X267600884Y-195307614D02*
X267458027Y-195450471D01*
X267458027Y-195450471D02*
X267315170Y-195521900D01*
X269886598Y-195021900D02*
X268600884Y-196950471D01*
X270458027Y-196593328D02*
X270743741Y-196593328D01*
X270743741Y-196593328D02*
X270886598Y-196521900D01*
X270886598Y-196521900D02*
X270958027Y-196450471D01*
X270958027Y-196450471D02*
X271100884Y-196236185D01*
X271100884Y-196236185D02*
X271172313Y-195950471D01*
X271172313Y-195950471D02*
X271172313Y-195379042D01*
X271172313Y-195379042D02*
X271100884Y-195236185D01*
X271100884Y-195236185D02*
X271029456Y-195164757D01*
X271029456Y-195164757D02*
X270886598Y-195093328D01*
X270886598Y-195093328D02*
X270600884Y-195093328D01*
X270600884Y-195093328D02*
X270458027Y-195164757D01*
X270458027Y-195164757D02*
X270386598Y-195236185D01*
X270386598Y-195236185D02*
X270315170Y-195379042D01*
X270315170Y-195379042D02*
X270315170Y-195736185D01*
X270315170Y-195736185D02*
X270386598Y-195879042D01*
X270386598Y-195879042D02*
X270458027Y-195950471D01*
X270458027Y-195950471D02*
X270600884Y-196021900D01*
X270600884Y-196021900D02*
X270886598Y-196021900D01*
X270886598Y-196021900D02*
X271029456Y-195950471D01*
X271029456Y-195950471D02*
X271100884Y-195879042D01*
X271100884Y-195879042D02*
X271172313Y-195736185D01*
X177002200Y-187507200D02*
X285002200Y-187507200D01*
D12*
X178693928Y-188211638D02*
X179836785Y-188211638D01*
X179015357Y-190211638D02*
X179265357Y-188211638D01*
X180253452Y-190211638D02*
X180420119Y-188878304D01*
X180503452Y-188211638D02*
X180396309Y-188306876D01*
X180396309Y-188306876D02*
X180479643Y-188402114D01*
X180479643Y-188402114D02*
X180586786Y-188306876D01*
X180586786Y-188306876D02*
X180503452Y-188211638D01*
X180503452Y-188211638D02*
X180479643Y-188402114D01*
X181086786Y-188878304D02*
X181848690Y-188878304D01*
X181455833Y-188211638D02*
X181241548Y-189925923D01*
X181241548Y-189925923D02*
X181312976Y-190116400D01*
X181312976Y-190116400D02*
X181491548Y-190211638D01*
X181491548Y-190211638D02*
X181682024Y-190211638D01*
X182634405Y-190211638D02*
X182455833Y-190116400D01*
X182455833Y-190116400D02*
X182384405Y-189925923D01*
X182384405Y-189925923D02*
X182598690Y-188211638D01*
X184170119Y-190116400D02*
X183967738Y-190211638D01*
X183967738Y-190211638D02*
X183586785Y-190211638D01*
X183586785Y-190211638D02*
X183408214Y-190116400D01*
X183408214Y-190116400D02*
X183336785Y-189925923D01*
X183336785Y-189925923D02*
X183432024Y-189164019D01*
X183432024Y-189164019D02*
X183551071Y-188973542D01*
X183551071Y-188973542D02*
X183753452Y-188878304D01*
X183753452Y-188878304D02*
X184134404Y-188878304D01*
X184134404Y-188878304D02*
X184312976Y-188973542D01*
X184312976Y-188973542D02*
X184384404Y-189164019D01*
X184384404Y-189164019D02*
X184360595Y-189354495D01*
X184360595Y-189354495D02*
X183384404Y-189544971D01*
X185134405Y-190021161D02*
X185217738Y-190116400D01*
X185217738Y-190116400D02*
X185110595Y-190211638D01*
X185110595Y-190211638D02*
X185027262Y-190116400D01*
X185027262Y-190116400D02*
X185134405Y-190021161D01*
X185134405Y-190021161D02*
X185110595Y-190211638D01*
X185265357Y-188973542D02*
X185348690Y-189068780D01*
X185348690Y-189068780D02*
X185241548Y-189164019D01*
X185241548Y-189164019D02*
X185158214Y-189068780D01*
X185158214Y-189068780D02*
X185265357Y-188973542D01*
X185265357Y-188973542D02*
X185241548Y-189164019D01*
D10*
X178958026Y-185607614D02*
X178458026Y-185607614D01*
X178458026Y-186393328D02*
X178458026Y-184893328D01*
X178458026Y-184893328D02*
X179172312Y-184893328D01*
X179743740Y-186393328D02*
X179743740Y-185393328D01*
X179743740Y-184893328D02*
X179672312Y-184964757D01*
X179672312Y-184964757D02*
X179743740Y-185036185D01*
X179743740Y-185036185D02*
X179815169Y-184964757D01*
X179815169Y-184964757D02*
X179743740Y-184893328D01*
X179743740Y-184893328D02*
X179743740Y-185036185D01*
X180672312Y-186393328D02*
X180529455Y-186321900D01*
X180529455Y-186321900D02*
X180458026Y-186179042D01*
X180458026Y-186179042D02*
X180458026Y-184893328D01*
X181815169Y-186321900D02*
X181672312Y-186393328D01*
X181672312Y-186393328D02*
X181386598Y-186393328D01*
X181386598Y-186393328D02*
X181243740Y-186321900D01*
X181243740Y-186321900D02*
X181172312Y-186179042D01*
X181172312Y-186179042D02*
X181172312Y-185607614D01*
X181172312Y-185607614D02*
X181243740Y-185464757D01*
X181243740Y-185464757D02*
X181386598Y-185393328D01*
X181386598Y-185393328D02*
X181672312Y-185393328D01*
X181672312Y-185393328D02*
X181815169Y-185464757D01*
X181815169Y-185464757D02*
X181886598Y-185607614D01*
X181886598Y-185607614D02*
X181886598Y-185750471D01*
X181886598Y-185750471D02*
X181172312Y-185893328D01*
X182529454Y-186250471D02*
X182600883Y-186321900D01*
X182600883Y-186321900D02*
X182529454Y-186393328D01*
X182529454Y-186393328D02*
X182458026Y-186321900D01*
X182458026Y-186321900D02*
X182529454Y-186250471D01*
X182529454Y-186250471D02*
X182529454Y-186393328D01*
X182529454Y-185464757D02*
X182600883Y-185536185D01*
X182600883Y-185536185D02*
X182529454Y-185607614D01*
X182529454Y-185607614D02*
X182458026Y-185536185D01*
X182458026Y-185536185D02*
X182529454Y-185464757D01*
X182529454Y-185464757D02*
X182529454Y-185607614D01*
X184386597Y-185393328D02*
X184386597Y-186893328D01*
X184386597Y-185464757D02*
X184529455Y-185393328D01*
X184529455Y-185393328D02*
X184815169Y-185393328D01*
X184815169Y-185393328D02*
X184958026Y-185464757D01*
X184958026Y-185464757D02*
X185029455Y-185536185D01*
X185029455Y-185536185D02*
X185100883Y-185679042D01*
X185100883Y-185679042D02*
X185100883Y-186107614D01*
X185100883Y-186107614D02*
X185029455Y-186250471D01*
X185029455Y-186250471D02*
X184958026Y-186321900D01*
X184958026Y-186321900D02*
X184815169Y-186393328D01*
X184815169Y-186393328D02*
X184529455Y-186393328D01*
X184529455Y-186393328D02*
X184386597Y-186321900D01*
X185743740Y-186393328D02*
X185743740Y-184893328D01*
X186386598Y-186393328D02*
X186386598Y-185607614D01*
X186386598Y-185607614D02*
X186315169Y-185464757D01*
X186315169Y-185464757D02*
X186172312Y-185393328D01*
X186172312Y-185393328D02*
X185958026Y-185393328D01*
X185958026Y-185393328D02*
X185815169Y-185464757D01*
X185815169Y-185464757D02*
X185743740Y-185536185D01*
X187315169Y-186393328D02*
X187172312Y-186321900D01*
X187172312Y-186321900D02*
X187100883Y-186250471D01*
X187100883Y-186250471D02*
X187029455Y-186107614D01*
X187029455Y-186107614D02*
X187029455Y-185679042D01*
X187029455Y-185679042D02*
X187100883Y-185536185D01*
X187100883Y-185536185D02*
X187172312Y-185464757D01*
X187172312Y-185464757D02*
X187315169Y-185393328D01*
X187315169Y-185393328D02*
X187529455Y-185393328D01*
X187529455Y-185393328D02*
X187672312Y-185464757D01*
X187672312Y-185464757D02*
X187743741Y-185536185D01*
X187743741Y-185536185D02*
X187815169Y-185679042D01*
X187815169Y-185679042D02*
X187815169Y-186107614D01*
X187815169Y-186107614D02*
X187743741Y-186250471D01*
X187743741Y-186250471D02*
X187672312Y-186321900D01*
X187672312Y-186321900D02*
X187529455Y-186393328D01*
X187529455Y-186393328D02*
X187315169Y-186393328D01*
X188243741Y-185393328D02*
X188815169Y-185393328D01*
X188458026Y-184893328D02*
X188458026Y-186179042D01*
X188458026Y-186179042D02*
X188529455Y-186321900D01*
X188529455Y-186321900D02*
X188672312Y-186393328D01*
X188672312Y-186393328D02*
X188815169Y-186393328D01*
X189529455Y-186393328D02*
X189386598Y-186321900D01*
X189386598Y-186321900D02*
X189315169Y-186250471D01*
X189315169Y-186250471D02*
X189243741Y-186107614D01*
X189243741Y-186107614D02*
X189243741Y-185679042D01*
X189243741Y-185679042D02*
X189315169Y-185536185D01*
X189315169Y-185536185D02*
X189386598Y-185464757D01*
X189386598Y-185464757D02*
X189529455Y-185393328D01*
X189529455Y-185393328D02*
X189743741Y-185393328D01*
X189743741Y-185393328D02*
X189886598Y-185464757D01*
X189886598Y-185464757D02*
X189958027Y-185536185D01*
X189958027Y-185536185D02*
X190029455Y-185679042D01*
X190029455Y-185679042D02*
X190029455Y-186107614D01*
X190029455Y-186107614D02*
X189958027Y-186250471D01*
X189958027Y-186250471D02*
X189886598Y-186321900D01*
X189886598Y-186321900D02*
X189743741Y-186393328D01*
X189743741Y-186393328D02*
X189529455Y-186393328D01*
X190672312Y-186393328D02*
X190672312Y-185393328D01*
X190672312Y-185536185D02*
X190743741Y-185464757D01*
X190743741Y-185464757D02*
X190886598Y-185393328D01*
X190886598Y-185393328D02*
X191100884Y-185393328D01*
X191100884Y-185393328D02*
X191243741Y-185464757D01*
X191243741Y-185464757D02*
X191315170Y-185607614D01*
X191315170Y-185607614D02*
X191315170Y-186393328D01*
X191315170Y-185607614D02*
X191386598Y-185464757D01*
X191386598Y-185464757D02*
X191529455Y-185393328D01*
X191529455Y-185393328D02*
X191743741Y-185393328D01*
X191743741Y-185393328D02*
X191886598Y-185464757D01*
X191886598Y-185464757D02*
X191958027Y-185607614D01*
X191958027Y-185607614D02*
X191958027Y-186393328D01*
X193243741Y-186321900D02*
X193100884Y-186393328D01*
X193100884Y-186393328D02*
X192815170Y-186393328D01*
X192815170Y-186393328D02*
X192672312Y-186321900D01*
X192672312Y-186321900D02*
X192600884Y-186179042D01*
X192600884Y-186179042D02*
X192600884Y-185607614D01*
X192600884Y-185607614D02*
X192672312Y-185464757D01*
X192672312Y-185464757D02*
X192815170Y-185393328D01*
X192815170Y-185393328D02*
X193100884Y-185393328D01*
X193100884Y-185393328D02*
X193243741Y-185464757D01*
X193243741Y-185464757D02*
X193315170Y-185607614D01*
X193315170Y-185607614D02*
X193315170Y-185750471D01*
X193315170Y-185750471D02*
X192600884Y-185893328D01*
X193743741Y-185393328D02*
X194315169Y-185393328D01*
X193958026Y-184893328D02*
X193958026Y-186179042D01*
X193958026Y-186179042D02*
X194029455Y-186321900D01*
X194029455Y-186321900D02*
X194172312Y-186393328D01*
X194172312Y-186393328D02*
X194315169Y-186393328D01*
X195386598Y-186321900D02*
X195243741Y-186393328D01*
X195243741Y-186393328D02*
X194958027Y-186393328D01*
X194958027Y-186393328D02*
X194815169Y-186321900D01*
X194815169Y-186321900D02*
X194743741Y-186179042D01*
X194743741Y-186179042D02*
X194743741Y-185607614D01*
X194743741Y-185607614D02*
X194815169Y-185464757D01*
X194815169Y-185464757D02*
X194958027Y-185393328D01*
X194958027Y-185393328D02*
X195243741Y-185393328D01*
X195243741Y-185393328D02*
X195386598Y-185464757D01*
X195386598Y-185464757D02*
X195458027Y-185607614D01*
X195458027Y-185607614D02*
X195458027Y-185750471D01*
X195458027Y-185750471D02*
X194743741Y-185893328D01*
X196100883Y-186393328D02*
X196100883Y-185393328D01*
X196100883Y-185679042D02*
X196172312Y-185536185D01*
X196172312Y-185536185D02*
X196243741Y-185464757D01*
X196243741Y-185464757D02*
X196386598Y-185393328D01*
X196386598Y-185393328D02*
X196529455Y-185393328D01*
X196886597Y-184893328D02*
X197815169Y-184893328D01*
X197815169Y-184893328D02*
X197315169Y-185464757D01*
X197315169Y-185464757D02*
X197529454Y-185464757D01*
X197529454Y-185464757D02*
X197672312Y-185536185D01*
X197672312Y-185536185D02*
X197743740Y-185607614D01*
X197743740Y-185607614D02*
X197815169Y-185750471D01*
X197815169Y-185750471D02*
X197815169Y-186107614D01*
X197815169Y-186107614D02*
X197743740Y-186250471D01*
X197743740Y-186250471D02*
X197672312Y-186321900D01*
X197672312Y-186321900D02*
X197529454Y-186393328D01*
X197529454Y-186393328D02*
X197100883Y-186393328D01*
X197100883Y-186393328D02*
X196958026Y-186321900D01*
X196958026Y-186321900D02*
X196886597Y-186250471D01*
X198458025Y-186250471D02*
X198529454Y-186321900D01*
X198529454Y-186321900D02*
X198458025Y-186393328D01*
X198458025Y-186393328D02*
X198386597Y-186321900D01*
X198386597Y-186321900D02*
X198458025Y-186250471D01*
X198458025Y-186250471D02*
X198458025Y-186393328D01*
X199172311Y-186393328D02*
X199172311Y-184893328D01*
X199315169Y-185821900D02*
X199743740Y-186393328D01*
X199743740Y-185393328D02*
X199172311Y-185964757D01*
X200386597Y-186393328D02*
X200386597Y-185393328D01*
X200386597Y-184893328D02*
X200315169Y-184964757D01*
X200315169Y-184964757D02*
X200386597Y-185036185D01*
X200386597Y-185036185D02*
X200458026Y-184964757D01*
X200458026Y-184964757D02*
X200386597Y-184893328D01*
X200386597Y-184893328D02*
X200386597Y-185036185D01*
X201743741Y-186321900D02*
X201600883Y-186393328D01*
X201600883Y-186393328D02*
X201315169Y-186393328D01*
X201315169Y-186393328D02*
X201172312Y-186321900D01*
X201172312Y-186321900D02*
X201100883Y-186250471D01*
X201100883Y-186250471D02*
X201029455Y-186107614D01*
X201029455Y-186107614D02*
X201029455Y-185679042D01*
X201029455Y-185679042D02*
X201100883Y-185536185D01*
X201100883Y-185536185D02*
X201172312Y-185464757D01*
X201172312Y-185464757D02*
X201315169Y-185393328D01*
X201315169Y-185393328D02*
X201600883Y-185393328D01*
X201600883Y-185393328D02*
X201743741Y-185464757D01*
X203029455Y-186393328D02*
X203029455Y-185607614D01*
X203029455Y-185607614D02*
X202958026Y-185464757D01*
X202958026Y-185464757D02*
X202815169Y-185393328D01*
X202815169Y-185393328D02*
X202529455Y-185393328D01*
X202529455Y-185393328D02*
X202386597Y-185464757D01*
X203029455Y-186321900D02*
X202886597Y-186393328D01*
X202886597Y-186393328D02*
X202529455Y-186393328D01*
X202529455Y-186393328D02*
X202386597Y-186321900D01*
X202386597Y-186321900D02*
X202315169Y-186179042D01*
X202315169Y-186179042D02*
X202315169Y-186036185D01*
X202315169Y-186036185D02*
X202386597Y-185893328D01*
X202386597Y-185893328D02*
X202529455Y-185821900D01*
X202529455Y-185821900D02*
X202886597Y-185821900D01*
X202886597Y-185821900D02*
X203029455Y-185750471D01*
X204386598Y-186393328D02*
X204386598Y-184893328D01*
X204386598Y-186321900D02*
X204243740Y-186393328D01*
X204243740Y-186393328D02*
X203958026Y-186393328D01*
X203958026Y-186393328D02*
X203815169Y-186321900D01*
X203815169Y-186321900D02*
X203743740Y-186250471D01*
X203743740Y-186250471D02*
X203672312Y-186107614D01*
X203672312Y-186107614D02*
X203672312Y-185679042D01*
X203672312Y-185679042D02*
X203743740Y-185536185D01*
X203743740Y-185536185D02*
X203815169Y-185464757D01*
X203815169Y-185464757D02*
X203958026Y-185393328D01*
X203958026Y-185393328D02*
X204243740Y-185393328D01*
X204243740Y-185393328D02*
X204386598Y-185464757D01*
X204743741Y-186536185D02*
X205886598Y-186536185D01*
X206243740Y-185393328D02*
X206243740Y-186893328D01*
X206243740Y-185464757D02*
X206386598Y-185393328D01*
X206386598Y-185393328D02*
X206672312Y-185393328D01*
X206672312Y-185393328D02*
X206815169Y-185464757D01*
X206815169Y-185464757D02*
X206886598Y-185536185D01*
X206886598Y-185536185D02*
X206958026Y-185679042D01*
X206958026Y-185679042D02*
X206958026Y-186107614D01*
X206958026Y-186107614D02*
X206886598Y-186250471D01*
X206886598Y-186250471D02*
X206815169Y-186321900D01*
X206815169Y-186321900D02*
X206672312Y-186393328D01*
X206672312Y-186393328D02*
X206386598Y-186393328D01*
X206386598Y-186393328D02*
X206243740Y-186321900D01*
X208243741Y-186321900D02*
X208100883Y-186393328D01*
X208100883Y-186393328D02*
X207815169Y-186393328D01*
X207815169Y-186393328D02*
X207672312Y-186321900D01*
X207672312Y-186321900D02*
X207600883Y-186250471D01*
X207600883Y-186250471D02*
X207529455Y-186107614D01*
X207529455Y-186107614D02*
X207529455Y-185679042D01*
X207529455Y-185679042D02*
X207600883Y-185536185D01*
X207600883Y-185536185D02*
X207672312Y-185464757D01*
X207672312Y-185464757D02*
X207815169Y-185393328D01*
X207815169Y-185393328D02*
X208100883Y-185393328D01*
X208100883Y-185393328D02*
X208243741Y-185464757D01*
X208886597Y-186393328D02*
X208886597Y-184893328D01*
X208886597Y-185464757D02*
X209029455Y-185393328D01*
X209029455Y-185393328D02*
X209315169Y-185393328D01*
X209315169Y-185393328D02*
X209458026Y-185464757D01*
X209458026Y-185464757D02*
X209529455Y-185536185D01*
X209529455Y-185536185D02*
X209600883Y-185679042D01*
X209600883Y-185679042D02*
X209600883Y-186107614D01*
X209600883Y-186107614D02*
X209529455Y-186250471D01*
X209529455Y-186250471D02*
X209458026Y-186321900D01*
X209458026Y-186321900D02*
X209315169Y-186393328D01*
X209315169Y-186393328D02*
X209029455Y-186393328D01*
X209029455Y-186393328D02*
X208886597Y-186321900D01*
X177002200Y-181507200D02*
X285002200Y-181507200D01*
X178386598Y-183621900D02*
X178600884Y-183693328D01*
X178600884Y-183693328D02*
X178958026Y-183693328D01*
X178958026Y-183693328D02*
X179100884Y-183621900D01*
X179100884Y-183621900D02*
X179172312Y-183550471D01*
X179172312Y-183550471D02*
X179243741Y-183407614D01*
X179243741Y-183407614D02*
X179243741Y-183264757D01*
X179243741Y-183264757D02*
X179172312Y-183121900D01*
X179172312Y-183121900D02*
X179100884Y-183050471D01*
X179100884Y-183050471D02*
X178958026Y-182979042D01*
X178958026Y-182979042D02*
X178672312Y-182907614D01*
X178672312Y-182907614D02*
X178529455Y-182836185D01*
X178529455Y-182836185D02*
X178458026Y-182764757D01*
X178458026Y-182764757D02*
X178386598Y-182621900D01*
X178386598Y-182621900D02*
X178386598Y-182479042D01*
X178386598Y-182479042D02*
X178458026Y-182336185D01*
X178458026Y-182336185D02*
X178529455Y-182264757D01*
X178529455Y-182264757D02*
X178672312Y-182193328D01*
X178672312Y-182193328D02*
X179029455Y-182193328D01*
X179029455Y-182193328D02*
X179243741Y-182264757D01*
X179886597Y-183693328D02*
X179886597Y-182193328D01*
X180529455Y-183693328D02*
X180529455Y-182907614D01*
X180529455Y-182907614D02*
X180458026Y-182764757D01*
X180458026Y-182764757D02*
X180315169Y-182693328D01*
X180315169Y-182693328D02*
X180100883Y-182693328D01*
X180100883Y-182693328D02*
X179958026Y-182764757D01*
X179958026Y-182764757D02*
X179886597Y-182836185D01*
X181815169Y-183621900D02*
X181672312Y-183693328D01*
X181672312Y-183693328D02*
X181386598Y-183693328D01*
X181386598Y-183693328D02*
X181243740Y-183621900D01*
X181243740Y-183621900D02*
X181172312Y-183479042D01*
X181172312Y-183479042D02*
X181172312Y-182907614D01*
X181172312Y-182907614D02*
X181243740Y-182764757D01*
X181243740Y-182764757D02*
X181386598Y-182693328D01*
X181386598Y-182693328D02*
X181672312Y-182693328D01*
X181672312Y-182693328D02*
X181815169Y-182764757D01*
X181815169Y-182764757D02*
X181886598Y-182907614D01*
X181886598Y-182907614D02*
X181886598Y-183050471D01*
X181886598Y-183050471D02*
X181172312Y-183193328D01*
X183100883Y-183621900D02*
X182958026Y-183693328D01*
X182958026Y-183693328D02*
X182672312Y-183693328D01*
X182672312Y-183693328D02*
X182529454Y-183621900D01*
X182529454Y-183621900D02*
X182458026Y-183479042D01*
X182458026Y-183479042D02*
X182458026Y-182907614D01*
X182458026Y-182907614D02*
X182529454Y-182764757D01*
X182529454Y-182764757D02*
X182672312Y-182693328D01*
X182672312Y-182693328D02*
X182958026Y-182693328D01*
X182958026Y-182693328D02*
X183100883Y-182764757D01*
X183100883Y-182764757D02*
X183172312Y-182907614D01*
X183172312Y-182907614D02*
X183172312Y-183050471D01*
X183172312Y-183050471D02*
X182458026Y-183193328D01*
X183600883Y-182693328D02*
X184172311Y-182693328D01*
X183815168Y-182193328D02*
X183815168Y-183479042D01*
X183815168Y-183479042D02*
X183886597Y-183621900D01*
X183886597Y-183621900D02*
X184029454Y-183693328D01*
X184029454Y-183693328D02*
X184172311Y-183693328D01*
X184672311Y-183550471D02*
X184743740Y-183621900D01*
X184743740Y-183621900D02*
X184672311Y-183693328D01*
X184672311Y-183693328D02*
X184600883Y-183621900D01*
X184600883Y-183621900D02*
X184672311Y-183550471D01*
X184672311Y-183550471D02*
X184672311Y-183693328D01*
X184672311Y-182764757D02*
X184743740Y-182836185D01*
X184743740Y-182836185D02*
X184672311Y-182907614D01*
X184672311Y-182907614D02*
X184600883Y-182836185D01*
X184600883Y-182836185D02*
X184672311Y-182764757D01*
X184672311Y-182764757D02*
X184672311Y-182907614D01*
X197002200Y-191507200D02*
X197002200Y-194507200D01*
X261002200Y-191507200D02*
X261002200Y-198007200D01*
D13*
%TA.AperFunction,EtchedComponent*%
%TO.C,NT1*%
G36*
X88950000Y-96300000D02*
G01*
X87750000Y-96300000D01*
X87750000Y-95700000D01*
X88950000Y-95700000D01*
X88950000Y-96300000D01*
G37*
%TD.AperFunction*%
%TD*%
D14*
%TO.P,R1,1*%
%TO.N,Net-(D1-A)*%
X77090000Y-94910000D03*
%TO.P,R1,2*%
%TO.N,/+3V3*%
X77090000Y-93085000D03*
%TD*%
D15*
%TO.P,J1,A1,GND_A1*%
%TO.N,GND*%
X83795000Y-83370000D03*
%TO.P,J1,A4,VBUS_A4*%
%TO.N,/5V*%
X82995000Y-83370000D03*
D16*
%TO.P,J1,A5,CC1_A5*%
%TO.N,Net-(J1-CC1)*%
X81795000Y-83370000D03*
%TO.P,J1,A6,D+_A6*%
%TO.N,unconnected-(J1-D+-PadA6)*%
X80795000Y-83370000D03*
%TO.P,J1,A7,D-_A7*%
%TO.N,unconnected-(J1-D--PadA7)*%
X80295000Y-83370000D03*
%TO.P,J1,A8,SBU1_A8*%
%TO.N,unconnected-(J1-SBU1-PadA8)*%
X79295000Y-83370000D03*
D15*
%TO.P,J1,A9,VBUS_A9*%
%TO.N,/5V*%
X78095000Y-83370000D03*
%TO.P,J1,A12,GND_A12*%
%TO.N,GND*%
X77295000Y-83370000D03*
%TO.P,J1,B1,GND_B1*%
X77295000Y-83370000D03*
%TO.P,J1,B4,VBUS_B4*%
%TO.N,/5V*%
X78095000Y-83370000D03*
D16*
%TO.P,J1,B5,CC2_B5*%
%TO.N,Net-(J1-CC2)*%
X78795000Y-83370000D03*
%TO.P,J1,B6,D+_B6*%
%TO.N,unconnected-(J1-D+-PadB6)*%
X79795000Y-83370000D03*
%TO.P,J1,B7,D-_B7*%
%TO.N,unconnected-(J1-D--PadB7)*%
X81295000Y-83370000D03*
%TO.P,J1,B8,SBU2_B8*%
%TO.N,unconnected-(J1-SBU2-PadB8)*%
X82295000Y-83370000D03*
D15*
%TO.P,J1,B9,VBUS_B9*%
%TO.N,/5V*%
X82995000Y-83370000D03*
%TO.P,J1,B12,GND_B12*%
%TO.N,GND*%
X83795000Y-83370000D03*
D17*
%TO.P,J1,SH,SHIELD_SH*%
X84865000Y-82455000D03*
D18*
X84865000Y-78275000D03*
D17*
X76225000Y-82455000D03*
D18*
X76225000Y-78275000D03*
%TD*%
D19*
%TO.P,L1,1,1_1*%
%TO.N,/L*%
X72300000Y-102830000D03*
%TO.P,L1,2,2_2*%
%TO.N,Net-(DA4-L2)*%
X72300000Y-100480000D03*
%TD*%
D20*
%TO.P,C13,1*%
%TO.N,/+3V3*%
X74260000Y-98060000D03*
%TO.P,C13,2*%
%TO.N,GND*%
X72360000Y-98060000D03*
%TD*%
D21*
%TO.P,R6,1*%
%TO.N,GND*%
X79400000Y-86550000D03*
%TO.P,R6,2*%
%TO.N,Net-(DA2-TMR)*%
X77575000Y-86550000D03*
%TD*%
D22*
%TO.P,R18,1*%
%TO.N,/+3V3*%
X83962500Y-96995000D03*
%TO.P,R18,2*%
X85787500Y-96995000D03*
%TD*%
D23*
%TO.P,BT1,1,+BAT_1*%
%TO.N,/BAT*%
X73100000Y-93500000D03*
D24*
%TO.P,BT1,2,NTC_2*%
%TO.N,/NTC*%
X73100000Y-92250000D03*
%TO.P,BT1,3,GND_3*%
%TO.N,GND*%
X73100000Y-91000000D03*
%TD*%
D25*
%TO.P,C16,1*%
%TO.N,/+3V3*%
X76510000Y-97760000D03*
%TO.P,C16,2*%
%TO.N,GND*%
X78410000Y-97760000D03*
%TD*%
D20*
%TO.P,C14,1*%
%TO.N,GND*%
X81550000Y-103120000D03*
%TO.P,C14,2*%
%TO.N,/5V*%
X79650000Y-103120000D03*
%TD*%
D26*
%TO.P,C12,1*%
%TO.N,/5V*%
X81470000Y-90170000D03*
%TO.P,C12,2*%
%TO.N,GND*%
X81470000Y-92070000D03*
%TD*%
D27*
%TO.P,NT1,1,1_1*%
%TO.N,GNDA*%
X88950000Y-96000000D03*
%TO.P,NT1,2,2_2*%
%TO.N,GND*%
X87750000Y-96000000D03*
%TD*%
D21*
%TO.P,R13,1*%
%TO.N,GND*%
X85400000Y-86520000D03*
%TO.P,R13,2*%
%TO.N,/ITERM*%
X83575000Y-86520000D03*
%TD*%
D28*
%TO.P,D1,1,K_1*%
%TO.N,Net-(D1-K)*%
X79140000Y-93047500D03*
%TO.P,D1,2,A_2*%
%TO.N,Net-(D1-A)*%
X79140000Y-94922500D03*
%TD*%
D29*
%TO.P,SW1,1,1_1*%
%TO.N,/BAT*%
X72220000Y-77680000D03*
D30*
%TO.P,SW1,2,2_2*%
X73490000Y-77680000D03*
%TD*%
D22*
%TO.P,R15,1*%
%TO.N,GND*%
X72250000Y-87800000D03*
%TO.P,R15,2*%
%TO.N,/ISET*%
X74075000Y-87800000D03*
%TD*%
D21*
%TO.P,R17,1*%
%TO.N,Net-(J1-CC1)*%
X73920000Y-81320000D03*
%TO.P,R17,2*%
%TO.N,GND*%
X72095000Y-81320000D03*
%TD*%
D31*
%TO.P,C10,1*%
%TO.N,GND*%
X81462500Y-88260000D03*
%TO.P,C10,2*%
%TO.N,/5V*%
X81462500Y-86360000D03*
%TD*%
D22*
%TO.P,R14,1*%
%TO.N,GND*%
X72085000Y-83480000D03*
%TO.P,R14,2*%
%TO.N,Net-(J1-CC2)*%
X73910000Y-83480000D03*
%TD*%
D32*
%TO.P,DA2,0.3*%
%TO.N,GND*%
X75832500Y-90400000D03*
%TO.P,DA2,1,TS_1*%
%TO.N,/NTC*%
X75832500Y-88900000D03*
%TO.P,DA2,2,BAT_2*%
%TO.N,/BAT*%
X75832500Y-89400000D03*
%TO.P,DA2,3,BAT_3*%
X75832500Y-89900000D03*
D33*
%TO.P,DA2,5,EN2_5*%
%TO.N,/+3V3*%
X76520000Y-91087500D03*
%TO.P,DA2,6,EN1_6*%
%TO.N,GND*%
X77020000Y-91087500D03*
%TO.P,DA2,7,~{PGOOD}_7*%
X77520000Y-91087500D03*
%TO.P,DA2,8,VSS_8*%
X78020000Y-91087500D03*
D32*
%TO.P,DA2,9,~{CHG}_9*%
%TO.N,Net-(D1-K)*%
X78707500Y-90400000D03*
%TO.P,DA2,10,OUT_10*%
%TO.N,/5V*%
X78707500Y-89900000D03*
%TO.P,DA2,11,OUT_11*%
X78707500Y-89400000D03*
%TO.P,DA2,12,ILIM_12*%
%TO.N,/ILIM*%
X78707500Y-88900000D03*
D33*
%TO.P,DA2,13,IN_13*%
%TO.N,/5V*%
X78020000Y-88212500D03*
%TO.P,DA2,14,TMR_14*%
%TO.N,Net-(DA2-TMR)*%
X77520000Y-88212500D03*
%TO.P,DA2,15,ITERM_15*%
%TO.N,/ITERM*%
X77020000Y-88212500D03*
%TO.P,DA2,16,ISET_16*%
%TO.N,/ISET*%
X76520000Y-88212500D03*
D34*
%TO.P,DA2,17,VSS_17*%
%TO.N,GND*%
X77270000Y-89650000D03*
%TD*%
D25*
%TO.P,C11,1*%
%TO.N,/BAT*%
X72050000Y-85550000D03*
%TO.P,C11,2*%
%TO.N,GND*%
X73950000Y-85550000D03*
%TD*%
D21*
%TO.P,R16,1*%
%TO.N,GND*%
X85412500Y-89760000D03*
%TO.P,R16,2*%
%TO.N,/ILIM*%
X83587500Y-89760000D03*
%TD*%
D25*
%TO.P,C15,1*%
%TO.N,/VINA*%
X79640000Y-100500000D03*
%TO.P,C15,2*%
%TO.N,GND*%
X81540000Y-100500000D03*
%TD*%
D35*
%TO.P,DA4,1,VOUT_1*%
%TO.N,/+3V3*%
X75097500Y-99660000D03*
%TO.P,DA4,2,L2_2*%
%TO.N,Net-(DA4-L2)*%
X75097500Y-100160000D03*
%TO.P,DA4,3,PGND_3*%
%TO.N,GND*%
X75097500Y-100660000D03*
%TO.P,DA4,4,L1_4*%
%TO.N,/L*%
X75097500Y-101160000D03*
%TO.P,DA4,5,VIN_5*%
%TO.N,/5V*%
X75097500Y-101660000D03*
%TO.P,DA4,6,EN_6*%
%TO.N,/VINA*%
X77522500Y-101660000D03*
%TO.P,DA4,7,PS/SYNC_7*%
X77522500Y-101160000D03*
%TO.P,DA4,8,VINA_8*%
X77522500Y-100660000D03*
%TO.P,DA4,9,GND_9*%
%TO.N,GND*%
X77522500Y-100160000D03*
%TO.P,DA4,10,FB_10*%
%TO.N,/+3V3*%
X77522500Y-99660000D03*
D36*
%TO.P,DA4,11,PGND_11*%
%TO.N,GND*%
X76310000Y-100660000D03*
%TD*%
D37*
%TO.P,D2,1,K_1*%
%TO.N,Net-(D2-K)*%
X99198754Y-93750000D03*
%TO.P,D2,2,A_2*%
%TO.N,/VSHIFT*%
X99198754Y-96750000D03*
%TD*%
D38*
%TO.P,DA5,39,GND_39*%
%TO.N,GND*%
X77100000Y-114840000D03*
X77100000Y-116240000D03*
X77800000Y-114140000D03*
X77800000Y-115540000D03*
X77800000Y-116940000D03*
X78500000Y-114840000D03*
X78500000Y-116240000D03*
X79200000Y-114140000D03*
X79200000Y-115540000D03*
X79200000Y-116940000D03*
X79900000Y-114840000D03*
X79900000Y-116240000D03*
%TD*%
D37*
%TO.P,D3,1,K_1*%
%TO.N,Net-(D3-K)*%
X99258754Y-80574435D03*
%TO.P,D3,2,A_2*%
%TO.N,/VSHIFT*%
X99258754Y-77574435D03*
%TD*%
D39*
%TO.N,/+3V3*%
X93950000Y-119520000D03*
X76500000Y-96500000D03*
X104203478Y-104020000D03*
X81000000Y-97000000D03*
X72780000Y-121350000D03*
%TO.N,GND*%
X71230000Y-104050000D03*
X77671133Y-89250245D03*
X76870253Y-90050000D03*
X73000000Y-105500000D03*
X72840000Y-122740000D03*
X76860000Y-89250000D03*
X80280000Y-98050000D03*
X86500000Y-123500000D03*
X76310000Y-100660000D03*
X90470000Y-119820000D03*
X71230000Y-99310000D03*
X77670000Y-90050000D03*
X82640000Y-87720000D03*
%TO.N,/5V*%
X83440000Y-84740000D03*
X79801250Y-88021250D03*
%TO.N,/BAT*%
X72260000Y-95190000D03*
%TO.N,GNDA*%
X93900000Y-105110000D03*
X94580000Y-107850000D03*
X97290000Y-86580000D03*
X99760000Y-87360000D03*
X99600000Y-106100000D03*
X97850000Y-104350000D03*
X92760000Y-87770000D03*
%TO.N,/VSHIFT*%
X97380000Y-96090000D03*
X103060000Y-89230000D03*
X94750000Y-94450000D03*
X102340000Y-95460000D03*
X104920000Y-86160000D03*
%TO.N,/SCLK*%
X90420000Y-105190000D03*
X87000000Y-113000000D03*
%TO.N,/DIN*%
X102710000Y-107240000D03*
X93850000Y-121620000D03*
%TD*%
%TO.N,Net-(D1-A)*%
D40*
X79140000Y-94922500D02*
X77102500Y-94922500D01*
X77102500Y-94922500D02*
X77090000Y-94910000D01*
%TO.N,/+3V3*%
X75413750Y-97760000D02*
X75423750Y-97750000D01*
X75960000Y-91647500D02*
X75960000Y-92170000D01*
X75423750Y-96063750D02*
X75423750Y-97750000D01*
D41*
X81000000Y-97000000D02*
X83957500Y-97000000D01*
D40*
X75960000Y-93070000D02*
X75960000Y-95527500D01*
X75975000Y-93085000D02*
X75960000Y-93070000D01*
X75683750Y-99073750D02*
X75097500Y-99660000D01*
X75423750Y-98517500D02*
X75980000Y-99073750D01*
D41*
X93950000Y-119520000D02*
X93940000Y-119520000D01*
D40*
X75980000Y-99073750D02*
X75683750Y-99073750D01*
X77090000Y-93085000D02*
X75975000Y-93085000D01*
X75433750Y-97760000D02*
X75423750Y-97750000D01*
X76520000Y-91087500D02*
X75960000Y-91647500D01*
X75423750Y-96063750D02*
X76063750Y-96063750D01*
X76510000Y-97760000D02*
X75433750Y-97760000D01*
D41*
X83957500Y-97000000D02*
X83962500Y-96995000D01*
X92110000Y-121350000D02*
X72780000Y-121350000D01*
D40*
X76936250Y-99073750D02*
X75980000Y-99073750D01*
X75960000Y-92170000D02*
X75960000Y-93070000D01*
X77522500Y-99660000D02*
X76936250Y-99073750D01*
X75960000Y-95527500D02*
X75423750Y-96063750D01*
D41*
X93940000Y-119520000D02*
X92110000Y-121350000D01*
D40*
X75423750Y-97750000D02*
X75423750Y-98517500D01*
D41*
X97178478Y-96995000D02*
X104203478Y-104020000D01*
X85787500Y-96995000D02*
X97178478Y-96995000D01*
D40*
X74260000Y-97760000D02*
X75413750Y-97760000D01*
X76063750Y-96063750D02*
X76500000Y-96500000D01*
%TO.N,GND*%
D41*
X83795000Y-83370000D02*
X83950000Y-83370000D01*
X83950000Y-83370000D02*
X84865000Y-82455000D01*
X82100000Y-88260000D02*
X82640000Y-87720000D01*
X81462500Y-88260000D02*
X82100000Y-88260000D01*
%TO.N,/5V*%
D40*
X82995000Y-83370000D02*
X82995000Y-84295000D01*
D41*
X82500000Y-99738122D02*
X82500000Y-102170000D01*
X82500000Y-102170000D02*
X81550000Y-103120000D01*
X77863122Y-98935000D02*
X81696878Y-98935000D01*
X81462500Y-86360000D02*
X79801250Y-88021250D01*
D40*
X78095000Y-83370000D02*
X78095000Y-83998120D01*
D41*
X81696878Y-98935000D02*
X82500000Y-99738122D01*
D40*
X78836880Y-84740000D02*
X83440000Y-84740000D01*
D41*
X80260000Y-90170000D02*
X80295000Y-90205000D01*
X78680000Y-89660000D02*
X79750000Y-89660000D01*
D40*
X76093750Y-102656250D02*
X75623750Y-102186250D01*
D41*
X77460000Y-96540000D02*
X77460000Y-98531878D01*
X80250000Y-90160000D02*
X80260000Y-90170000D01*
X77440000Y-96520000D02*
X77460000Y-96540000D01*
X79801250Y-88021250D02*
X79610000Y-88212500D01*
X79750000Y-89660000D02*
X80250000Y-90160000D01*
D40*
X78095000Y-83998120D02*
X78836880Y-84740000D01*
D41*
X79770000Y-96520000D02*
X77440000Y-96520000D01*
X79610000Y-88212500D02*
X78120000Y-88212500D01*
X80295000Y-90205000D02*
X80295000Y-95995000D01*
X80295000Y-95995000D02*
X79770000Y-96520000D01*
D40*
X75623750Y-102186250D02*
X75097500Y-101660000D01*
X76557500Y-103120000D02*
X76093750Y-102656250D01*
X82995000Y-84295000D02*
X83440000Y-84740000D01*
D41*
X77460000Y-98531878D02*
X77863122Y-98935000D01*
X80260000Y-90170000D02*
X81470000Y-90170000D01*
D40*
X79650000Y-103120000D02*
X76557500Y-103120000D01*
%TO.N,Net-(J1-CC1)*%
X79703120Y-80450000D02*
X81795000Y-82541880D01*
X74790000Y-80450000D02*
X79703120Y-80450000D01*
X81795000Y-82541880D02*
X81795000Y-83130000D01*
X73920000Y-81320000D02*
X74790000Y-80450000D01*
%TO.N,Net-(J1-CC2)*%
X77810305Y-81055000D02*
X78795000Y-82039695D01*
X73910000Y-83017918D02*
X75872918Y-81055000D01*
X75872918Y-81055000D02*
X77810305Y-81055000D01*
X78795000Y-82039695D02*
X78795000Y-83370000D01*
X73910000Y-83480000D02*
X73910000Y-83017918D01*
%TO.N,/L*%
X72300000Y-102830000D02*
X73970000Y-101160000D01*
X73970000Y-101160000D02*
X75097500Y-101160000D01*
%TO.N,Net-(DA4-L2)*%
X72300000Y-100480000D02*
X72620000Y-100160000D01*
X72620000Y-100160000D02*
X75097500Y-100160000D01*
%TO.N,Net-(DA2-TMR)*%
X77520000Y-86605000D02*
X77575000Y-86550000D01*
X77520000Y-88212500D02*
X77520000Y-86605000D01*
%TO.N,/BAT*%
D41*
X72270000Y-95200000D02*
X72260000Y-95190000D01*
X74700000Y-90358432D02*
X74700000Y-94230000D01*
X73730000Y-95200000D02*
X72270000Y-95200000D01*
X72260000Y-95190000D02*
X70750000Y-93680000D01*
X75840000Y-89670000D02*
X75388432Y-89670000D01*
X70750000Y-86850000D02*
X72050000Y-85550000D01*
X74700000Y-94230000D02*
X73730000Y-95200000D01*
X70750000Y-93680000D02*
X70750000Y-86850000D01*
X75388432Y-89670000D02*
X74700000Y-90358432D01*
%TO.N,/NTC*%
D40*
X75309904Y-88900000D02*
X74100000Y-90109904D01*
X75832500Y-88900000D02*
X75309904Y-88900000D01*
X74100000Y-90109904D02*
X74100000Y-91500000D01*
X74100000Y-91500000D02*
X73350000Y-92250000D01*
X73350000Y-92250000D02*
X73100000Y-92250000D01*
%TO.N,GNDA*%
D41*
X92760000Y-87770000D02*
X96100000Y-87770000D01*
X93900000Y-105110000D02*
X93900000Y-107170000D01*
X93900000Y-107170000D02*
X94580000Y-107850000D01*
X99600000Y-106100000D02*
X97850000Y-104350000D01*
X96100000Y-87770000D02*
X97290000Y-86580000D01*
X98070000Y-87360000D02*
X97290000Y-86580000D01*
X99760000Y-87360000D02*
X98070000Y-87360000D01*
%TO.N,/ITERM*%
D40*
X77020000Y-87689904D02*
X76710000Y-87379904D01*
X77057044Y-85500000D02*
X82555000Y-85500000D01*
X76710000Y-87379904D02*
X76710000Y-85847044D01*
X76710000Y-85847044D02*
X77057044Y-85500000D01*
X82555000Y-85500000D02*
X83575000Y-86520000D01*
X77020000Y-88212500D02*
X77020000Y-87689904D01*
%TO.N,Net-(D1-K)*%
X78707500Y-90400000D02*
X78707500Y-92615000D01*
X78707500Y-92615000D02*
X79140000Y-93047500D01*
%TO.N,/ISET*%
X74075000Y-87800000D02*
X76107500Y-87800000D01*
X76107500Y-87800000D02*
X76520000Y-88212500D01*
%TO.N,/ILIM*%
X80732044Y-89110000D02*
X82860000Y-89110000D01*
X80522044Y-88900000D02*
X80732044Y-89110000D01*
X78707500Y-88900000D02*
X80522044Y-88900000D01*
X82860000Y-89110000D02*
X83550000Y-89800000D01*
%TO.N,/VINA*%
X79640000Y-100500000D02*
X79480000Y-100660000D01*
D42*
X77522500Y-101660000D02*
X77522500Y-100672500D01*
D40*
X79480000Y-100660000D02*
X77522500Y-100660000D01*
%TO.N,/VSHIFT*%
D41*
X102340000Y-95460000D02*
X102330000Y-95450000D01*
X98280000Y-95450000D02*
X97680000Y-96050000D01*
X97680000Y-96050000D02*
X96350000Y-96050000D01*
X96350000Y-96050000D02*
X94750000Y-94450000D01*
X102330000Y-95450000D02*
X98280000Y-95450000D01*
X104920000Y-87370000D02*
X103060000Y-89230000D01*
X97680000Y-96050000D02*
X97420000Y-96050000D01*
X104920000Y-86160000D02*
X104920000Y-87370000D01*
X97420000Y-96050000D02*
X97380000Y-96090000D01*
%TO.N,/SCLK*%
D40*
X87000000Y-108610000D02*
X90420000Y-105190000D01*
X87000000Y-113000000D02*
X87000000Y-108610000D01*
%TO.N,/DIN*%
X102710000Y-112760000D02*
X93850000Y-121620000D01*
X102710000Y-107240000D02*
X102710000Y-112760000D01*
%TD*%
%TA.AperFunction,Conductor*%
%TO.N,GND*%
G36*
X90963039Y-104339685D02*
G01*
X91008794Y-104392489D01*
X91020000Y-104444000D01*
X91020000Y-104712114D01*
X91000315Y-104779153D01*
X90947511Y-104824908D01*
X90878353Y-104834852D01*
X90814797Y-104805827D01*
X90808319Y-104799795D01*
X90758017Y-104749493D01*
X90758011Y-104749488D01*
X90632488Y-104677017D01*
X90632489Y-104677017D01*
X90621006Y-104673940D01*
X90492475Y-104639500D01*
X90347525Y-104639500D01*
X90218993Y-104673940D01*
X90207511Y-104677017D01*
X90081988Y-104749488D01*
X90081982Y-104749493D01*
X89979493Y-104851982D01*
X89979488Y-104851988D01*
X89907017Y-104977511D01*
X89907016Y-104977515D01*
X89869500Y-105117525D01*
X89869500Y-105117527D01*
X89869500Y-105122745D01*
X89849815Y-105189784D01*
X89833181Y-105210426D01*
X86679522Y-108364084D01*
X86679518Y-108364090D01*
X86626792Y-108455412D01*
X86626793Y-108455413D01*
X86599500Y-108557273D01*
X86599500Y-112570614D01*
X86579815Y-112637653D01*
X86563181Y-112658295D01*
X86559493Y-112661982D01*
X86559488Y-112661988D01*
X86487017Y-112787511D01*
X86487016Y-112787515D01*
X86449500Y-112927525D01*
X86449500Y-113072475D01*
X86487016Y-113212485D01*
X86487017Y-113212488D01*
X86559488Y-113338011D01*
X86559490Y-113338013D01*
X86559491Y-113338015D01*
X86661985Y-113440509D01*
X86661986Y-113440510D01*
X86661988Y-113440511D01*
X86787511Y-113512982D01*
X86787512Y-113512982D01*
X86787515Y-113512984D01*
X86927525Y-113550500D01*
X86927528Y-113550500D01*
X87072472Y-113550500D01*
X87072475Y-113550500D01*
X87212485Y-113512984D01*
X87338015Y-113440509D01*
X87440509Y-113338015D01*
X87512984Y-113212485D01*
X87550500Y-113072475D01*
X87550500Y-112927525D01*
X87512984Y-112787515D01*
X87440509Y-112661985D01*
X87436819Y-112658295D01*
X87403334Y-112596972D01*
X87400500Y-112570614D01*
X87400500Y-108827255D01*
X87420185Y-108760216D01*
X87436819Y-108739574D01*
X90399574Y-105776819D01*
X90460897Y-105743334D01*
X90487255Y-105740500D01*
X90492472Y-105740500D01*
X90492475Y-105740500D01*
X90632485Y-105702984D01*
X90758015Y-105630509D01*
X90808319Y-105580205D01*
X90869642Y-105546720D01*
X90939334Y-105551704D01*
X90995267Y-105593576D01*
X91019684Y-105659040D01*
X91020000Y-105667886D01*
X91020000Y-120725500D01*
X91000315Y-120792539D01*
X90947511Y-120838294D01*
X90896000Y-120849500D01*
X73047289Y-120849500D01*
X72999838Y-120840062D01*
X72992486Y-120837016D01*
X72957482Y-120827637D01*
X72852475Y-120799500D01*
X72707525Y-120799500D01*
X72578993Y-120833940D01*
X72567511Y-120837017D01*
X72441988Y-120909488D01*
X72441982Y-120909493D01*
X72339493Y-121011982D01*
X72339488Y-121011988D01*
X72267017Y-121137511D01*
X72267016Y-121137515D01*
X72229500Y-121277525D01*
X72229500Y-121422475D01*
X72267016Y-121562485D01*
X72267017Y-121562488D01*
X72339488Y-121688011D01*
X72339490Y-121688013D01*
X72339491Y-121688015D01*
X72441985Y-121790509D01*
X72441986Y-121790510D01*
X72441988Y-121790511D01*
X72567511Y-121862982D01*
X72567512Y-121862982D01*
X72567515Y-121862984D01*
X72707525Y-121900500D01*
X72707528Y-121900500D01*
X72852472Y-121900500D01*
X72852475Y-121900500D01*
X72992485Y-121862984D01*
X72992488Y-121862981D01*
X72999838Y-121859938D01*
X73047289Y-121850500D01*
X90896000Y-121850500D01*
X90963039Y-121870185D01*
X91008794Y-121922989D01*
X91020000Y-121974500D01*
X91020000Y-122488638D01*
X91000315Y-122555677D01*
X90983681Y-122576319D01*
X89386319Y-124173681D01*
X89324996Y-124207166D01*
X89298638Y-124210000D01*
X70624500Y-124210000D01*
X70557461Y-124190315D01*
X70511706Y-124137511D01*
X70500500Y-124086000D01*
X70500500Y-104320000D01*
X83280000Y-104320000D01*
X90896000Y-104320000D01*
X90963039Y-104339685D01*
G37*
%TD.AperFunction*%
%TD*%
%TA.AperFunction,Conductor*%
%TO.N,GND*%
G36*
X86955677Y-76259685D02*
G01*
X86976319Y-76276319D01*
X88463681Y-77763681D01*
X88497166Y-77825004D01*
X88500000Y-77851362D01*
X88500000Y-89872966D01*
X88480315Y-89940005D01*
X88474378Y-89948449D01*
X88458067Y-89969706D01*
X88458057Y-89969720D01*
X88336777Y-90179784D01*
X88336773Y-90179794D01*
X88243947Y-90403895D01*
X88181161Y-90638214D01*
X88149500Y-90878711D01*
X88149500Y-91121288D01*
X88181161Y-91361785D01*
X88243947Y-91596104D01*
X88336773Y-91820205D01*
X88336777Y-91820214D01*
X88382552Y-91899499D01*
X88458064Y-92030289D01*
X88458067Y-92030293D01*
X88458071Y-92030299D01*
X88474375Y-92051546D01*
X88499570Y-92116715D01*
X88500000Y-92127033D01*
X88500000Y-95645197D01*
X88495849Y-95660687D01*
X88496504Y-95674432D01*
X88483387Y-95707198D01*
X88457098Y-95752731D01*
X88406530Y-95800946D01*
X88337923Y-95814168D01*
X88273058Y-95788200D01*
X88242324Y-95752730D01*
X88230272Y-95731857D01*
X87943746Y-96018384D01*
X87935800Y-96022722D01*
X87930375Y-96029970D01*
X87905615Y-96039204D01*
X87893344Y-96045904D01*
X87900000Y-96029837D01*
X87900000Y-95970163D01*
X87877164Y-95915032D01*
X87834968Y-95872836D01*
X87779837Y-95850000D01*
X87720163Y-95850000D01*
X87665032Y-95872836D01*
X87622836Y-95915032D01*
X87600000Y-95970163D01*
X87600000Y-96029837D01*
X87607259Y-96047362D01*
X87600600Y-96046886D01*
X87556253Y-96018385D01*
X87269726Y-95731858D01*
X87237484Y-95787704D01*
X87237482Y-95787709D01*
X87200000Y-95927593D01*
X87200000Y-96072406D01*
X87237482Y-96212293D01*
X87237485Y-96212298D01*
X87293027Y-96308501D01*
X87309500Y-96376401D01*
X87286647Y-96442428D01*
X87231726Y-96485618D01*
X87185640Y-96494500D01*
X86651440Y-96494500D01*
X86584401Y-96474815D01*
X86538646Y-96422011D01*
X86535258Y-96413833D01*
X86493797Y-96302671D01*
X86493793Y-96302664D01*
X86407547Y-96187455D01*
X86407544Y-96187452D01*
X86292335Y-96101206D01*
X86292328Y-96101202D01*
X86157486Y-96050910D01*
X86157485Y-96050909D01*
X86157483Y-96050909D01*
X86097873Y-96044500D01*
X86097863Y-96044500D01*
X85477129Y-96044500D01*
X85477123Y-96044501D01*
X85417516Y-96050908D01*
X85282671Y-96101202D01*
X85282664Y-96101206D01*
X85167455Y-96187452D01*
X85167452Y-96187455D01*
X85081206Y-96302664D01*
X85081202Y-96302671D01*
X85030908Y-96437517D01*
X85024782Y-96494500D01*
X85024501Y-96497123D01*
X85024500Y-96497135D01*
X85024500Y-97492870D01*
X85024501Y-97492876D01*
X85030908Y-97552483D01*
X85081202Y-97687328D01*
X85081206Y-97687335D01*
X85167452Y-97802544D01*
X85167455Y-97802547D01*
X85282664Y-97888793D01*
X85282671Y-97888797D01*
X85306700Y-97897759D01*
X85417517Y-97939091D01*
X85477127Y-97945500D01*
X86097872Y-97945499D01*
X86157483Y-97939091D01*
X86292331Y-97888796D01*
X86407546Y-97802546D01*
X86493796Y-97687331D01*
X86518459Y-97621206D01*
X86535258Y-97576167D01*
X86577129Y-97520233D01*
X86642593Y-97495816D01*
X86651440Y-97495500D01*
X88376000Y-97495500D01*
X88443039Y-97515185D01*
X88488794Y-97567989D01*
X88500000Y-97619500D01*
X88500000Y-99048637D01*
X88480315Y-99115676D01*
X88463681Y-99136318D01*
X83279999Y-104319999D01*
X83279999Y-104320000D01*
X70500500Y-104320000D01*
X70500500Y-103516064D01*
X70520185Y-103449025D01*
X70572989Y-103403270D01*
X70642147Y-103393326D01*
X70705703Y-103422351D01*
X70712181Y-103428383D01*
X70719396Y-103435598D01*
X70719397Y-103435599D01*
X70719399Y-103435601D01*
X70802260Y-103490966D01*
X70802264Y-103490967D01*
X70875321Y-103505499D01*
X70875324Y-103505500D01*
X70875326Y-103505500D01*
X73724676Y-103505500D01*
X73724677Y-103505499D01*
X73797740Y-103490966D01*
X73880601Y-103435601D01*
X73935966Y-103352740D01*
X73950500Y-103279674D01*
X73950500Y-102380326D01*
X73950500Y-102380323D01*
X73950499Y-102380321D01*
X73935967Y-102307264D01*
X73935966Y-102307260D01*
X73916324Y-102277863D01*
X73880601Y-102224399D01*
X73797740Y-102169034D01*
X73797739Y-102169033D01*
X73786456Y-102164360D01*
X73787095Y-102162815D01*
X73737832Y-102137044D01*
X73703260Y-102076326D01*
X73707003Y-102006557D01*
X73736255Y-101960136D01*
X74099573Y-101596819D01*
X74126500Y-101582115D01*
X74152319Y-101565523D01*
X74158519Y-101564631D01*
X74160896Y-101563334D01*
X74187254Y-101560500D01*
X74310501Y-101560500D01*
X74377540Y-101580185D01*
X74423295Y-101632989D01*
X74434500Y-101684498D01*
X74434501Y-101759178D01*
X74440501Y-101804760D01*
X74487150Y-101904799D01*
X74565201Y-101982850D01*
X74665240Y-102029499D01*
X74710821Y-102035500D01*
X74855243Y-102035499D01*
X74922283Y-102055183D01*
X74942925Y-102071818D01*
X75773270Y-102902163D01*
X76232679Y-103361571D01*
X76232689Y-103361582D01*
X76237019Y-103365912D01*
X76237020Y-103365913D01*
X76311587Y-103440480D01*
X76402913Y-103493207D01*
X76504773Y-103520501D01*
X76504775Y-103520501D01*
X76617823Y-103520501D01*
X76617839Y-103520500D01*
X78775501Y-103520500D01*
X78842540Y-103540185D01*
X78888295Y-103592989D01*
X78898437Y-103639611D01*
X78899099Y-103639576D01*
X78899146Y-103639571D01*
X78899146Y-103639573D01*
X78899324Y-103639564D01*
X78899501Y-103642876D01*
X78905908Y-103702483D01*
X78956202Y-103837328D01*
X78956206Y-103837335D01*
X79042452Y-103952544D01*
X79042455Y-103952547D01*
X79157664Y-104038793D01*
X79157671Y-104038797D01*
X79202618Y-104055561D01*
X79292517Y-104089091D01*
X79352127Y-104095500D01*
X79947872Y-104095499D01*
X80007483Y-104089091D01*
X80142331Y-104038796D01*
X80257546Y-103952546D01*
X80343796Y-103837331D01*
X80394091Y-103702483D01*
X80400500Y-103642873D01*
X80400499Y-102597128D01*
X80394091Y-102537517D01*
X80371636Y-102477313D01*
X80343797Y-102402671D01*
X80343793Y-102402664D01*
X80257547Y-102287455D01*
X80257544Y-102287452D01*
X80142335Y-102201206D01*
X80142328Y-102201202D01*
X80007486Y-102150910D01*
X80007485Y-102150909D01*
X80007483Y-102150909D01*
X79947873Y-102144500D01*
X79947863Y-102144500D01*
X79352129Y-102144500D01*
X79352123Y-102144501D01*
X79292516Y-102150908D01*
X79157671Y-102201202D01*
X79157664Y-102201206D01*
X79042455Y-102287452D01*
X79042452Y-102287455D01*
X78956206Y-102402664D01*
X78956202Y-102402671D01*
X78905908Y-102537517D01*
X78899501Y-102597116D01*
X78899501Y-102597123D01*
X78899322Y-102600452D01*
X78898065Y-102600384D01*
X78879815Y-102662539D01*
X78827011Y-102708294D01*
X78775500Y-102719500D01*
X76774754Y-102719500D01*
X76707715Y-102699815D01*
X76687073Y-102683181D01*
X76339663Y-102335770D01*
X75796818Y-101792925D01*
X75763333Y-101731602D01*
X75760499Y-101705244D01*
X75760499Y-101560819D01*
X75754499Y-101515243D01*
X75754499Y-101515240D01*
X75729860Y-101462403D01*
X75719369Y-101393327D01*
X75729858Y-101357601D01*
X75754499Y-101304760D01*
X75760500Y-101259179D01*
X75760499Y-101060822D01*
X75754499Y-101015240D01*
X75729584Y-100961810D01*
X75719093Y-100892737D01*
X75729586Y-100857001D01*
X75754008Y-100804629D01*
X75754009Y-100804624D01*
X75756593Y-100785001D01*
X75756592Y-100785000D01*
X75495866Y-100785000D01*
X75492146Y-100783907D01*
X75487755Y-100784734D01*
X75484185Y-100784500D01*
X75484179Y-100784500D01*
X75259855Y-100784500D01*
X75227733Y-100780267D01*
X75225865Y-100779766D01*
X75166213Y-100743387D01*
X75135699Y-100680533D01*
X75144010Y-100611160D01*
X75188508Y-100557292D01*
X75225951Y-100540209D01*
X75227827Y-100539707D01*
X75259857Y-100535499D01*
X75484182Y-100535499D01*
X75487736Y-100535266D01*
X75495848Y-100535000D01*
X75756592Y-100535000D01*
X75756593Y-100534998D01*
X75754009Y-100515375D01*
X75754009Y-100515373D01*
X75729585Y-100462997D01*
X75719093Y-100393920D01*
X75729582Y-100358193D01*
X75754499Y-100304760D01*
X75760500Y-100259179D01*
X75760499Y-100060822D01*
X75754499Y-100015240D01*
X75729860Y-99962403D01*
X75719369Y-99893327D01*
X75729858Y-99857601D01*
X75754499Y-99804760D01*
X75760500Y-99759179D01*
X75760499Y-99614754D01*
X75769146Y-99585304D01*
X75775669Y-99555324D01*
X75779420Y-99550313D01*
X75780183Y-99547715D01*
X75796811Y-99527080D01*
X75813327Y-99510564D01*
X75874650Y-99477083D01*
X75901004Y-99474250D01*
X75927273Y-99474250D01*
X76718994Y-99474250D01*
X76786033Y-99493935D01*
X76806673Y-99510566D01*
X76823179Y-99527071D01*
X76856665Y-99588393D01*
X76859500Y-99614754D01*
X76859500Y-99759180D01*
X76865500Y-99804756D01*
X76865502Y-99804763D01*
X76890414Y-99858186D01*
X76900906Y-99927263D01*
X76890414Y-99962995D01*
X76865992Y-100015367D01*
X76865990Y-100015375D01*
X76863406Y-100034998D01*
X76863408Y-100035000D01*
X77124134Y-100035000D01*
X77127853Y-100036092D01*
X77132245Y-100035266D01*
X77135812Y-100035498D01*
X77135821Y-100035500D01*
X77360143Y-100035499D01*
X77392206Y-100039716D01*
X77394075Y-100040216D01*
X77453744Y-100076565D01*
X77484290Y-100139404D01*
X77476013Y-100208781D01*
X77431542Y-100262671D01*
X77394134Y-100279766D01*
X77392266Y-100280267D01*
X77360145Y-100284500D01*
X77135818Y-100284500D01*
X77132264Y-100284734D01*
X77124152Y-100285000D01*
X76863408Y-100285000D01*
X76863406Y-100285001D01*
X76865990Y-100304624D01*
X76865991Y-100304629D01*
X76890414Y-100357003D01*
X76900906Y-100426080D01*
X76890415Y-100461812D01*
X76865500Y-100515243D01*
X76859501Y-100560811D01*
X76859500Y-100560827D01*
X76859500Y-100759180D01*
X76865500Y-100804756D01*
X76865503Y-100804766D01*
X76890138Y-100857596D01*
X76900630Y-100926673D01*
X76890139Y-100962403D01*
X76865502Y-101015239D01*
X76865500Y-101015243D01*
X76859501Y-101060811D01*
X76859500Y-101060827D01*
X76859500Y-101259180D01*
X76865500Y-101304756D01*
X76865503Y-101304766D01*
X76890138Y-101357596D01*
X76900630Y-101426673D01*
X76890139Y-101462403D01*
X76887252Y-101468596D01*
X76865500Y-101515243D01*
X76859501Y-101560811D01*
X76859500Y-101560827D01*
X76859500Y-101759180D01*
X76865500Y-101804756D01*
X76865501Y-101804760D01*
X76912150Y-101904799D01*
X76990201Y-101982850D01*
X77090240Y-102029499D01*
X77135821Y-102035500D01*
X77909178Y-102035499D01*
X77909180Y-102035499D01*
X77924372Y-102033499D01*
X77954760Y-102029499D01*
X78054799Y-101982850D01*
X78132850Y-101904799D01*
X78179499Y-101804760D01*
X78185500Y-101759179D01*
X78185499Y-101560822D01*
X78179499Y-101515240D01*
X78154860Y-101462403D01*
X78144369Y-101393327D01*
X78145364Y-101387160D01*
X78148245Y-101371783D01*
X78179499Y-101304760D01*
X78185500Y-101259179D01*
X78185499Y-101172981D01*
X78187621Y-101161661D01*
X78198457Y-101140373D01*
X78205185Y-101117461D01*
X78214015Y-101109809D01*
X78219317Y-101099394D01*
X78239941Y-101087344D01*
X78257989Y-101071706D01*
X78271881Y-101068683D01*
X78279645Y-101064148D01*
X78290594Y-101064612D01*
X78309500Y-101060500D01*
X78801614Y-101060500D01*
X78868653Y-101080185D01*
X78914408Y-101132989D01*
X78917796Y-101141167D01*
X78946202Y-101217328D01*
X78946206Y-101217335D01*
X79032452Y-101332544D01*
X79032455Y-101332547D01*
X79147664Y-101418793D01*
X79147671Y-101418797D01*
X79168788Y-101426673D01*
X79282517Y-101469091D01*
X79342127Y-101475500D01*
X79937872Y-101475499D01*
X79997483Y-101469091D01*
X80132331Y-101418796D01*
X80247546Y-101332546D01*
X80333796Y-101217331D01*
X80384091Y-101082483D01*
X80390500Y-101022873D01*
X80390500Y-101022844D01*
X80790000Y-101022844D01*
X80796401Y-101082372D01*
X80796403Y-101082379D01*
X80846645Y-101217086D01*
X80846649Y-101217093D01*
X80932809Y-101332187D01*
X80932812Y-101332190D01*
X81047906Y-101418350D01*
X81047913Y-101418354D01*
X81182620Y-101468596D01*
X81182627Y-101468598D01*
X81242155Y-101474999D01*
X81242172Y-101475000D01*
X81390000Y-101475000D01*
X81390000Y-100650000D01*
X80790000Y-100650000D01*
X80790000Y-101022844D01*
X80390500Y-101022844D01*
X80390499Y-99977128D01*
X80384091Y-99917517D01*
X80383227Y-99915201D01*
X80333797Y-99782671D01*
X80333793Y-99782664D01*
X80247547Y-99667455D01*
X80235940Y-99658766D01*
X80194070Y-99602832D01*
X80189086Y-99533140D01*
X80222572Y-99471818D01*
X80283895Y-99438333D01*
X80310252Y-99435500D01*
X80870582Y-99435500D01*
X80937621Y-99455185D01*
X80983376Y-99507989D01*
X80993320Y-99577147D01*
X80964295Y-99640703D01*
X80944893Y-99658766D01*
X80932812Y-99667809D01*
X80932809Y-99667812D01*
X80846649Y-99782906D01*
X80846645Y-99782913D01*
X80796403Y-99917620D01*
X80796401Y-99917627D01*
X80790000Y-99977155D01*
X80790000Y-100350000D01*
X81416000Y-100350000D01*
X81424685Y-100352550D01*
X81433647Y-100351262D01*
X81457687Y-100362240D01*
X81483039Y-100369685D01*
X81488966Y-100376525D01*
X81497203Y-100380287D01*
X81511492Y-100402521D01*
X81528794Y-100422489D01*
X81531081Y-100433003D01*
X81534977Y-100439065D01*
X81540000Y-100474000D01*
X81540000Y-100500000D01*
X81566000Y-100500000D01*
X81633039Y-100519685D01*
X81678794Y-100572489D01*
X81690000Y-100624000D01*
X81690000Y-101475000D01*
X81837828Y-101475000D01*
X81837836Y-101474999D01*
X81862241Y-101472375D01*
X81931001Y-101484778D01*
X81982140Y-101532387D01*
X81999500Y-101595664D01*
X81999500Y-101911324D01*
X81990855Y-101940764D01*
X81984332Y-101970751D01*
X81980577Y-101975766D01*
X81979815Y-101978363D01*
X81963181Y-101999005D01*
X81853505Y-102108681D01*
X81792182Y-102142166D01*
X81765824Y-102145000D01*
X81700000Y-102145000D01*
X81700000Y-102210824D01*
X81691355Y-102240264D01*
X81684832Y-102270251D01*
X81681077Y-102275266D01*
X81680315Y-102277863D01*
X81663681Y-102298505D01*
X81611681Y-102350505D01*
X81550358Y-102383990D01*
X81480666Y-102379006D01*
X81424733Y-102337134D01*
X81400316Y-102271670D01*
X81400000Y-102262824D01*
X81400000Y-102145000D01*
X81252155Y-102145000D01*
X81192627Y-102151401D01*
X81192620Y-102151403D01*
X81057913Y-102201645D01*
X81057906Y-102201649D01*
X80942812Y-102287809D01*
X80942809Y-102287812D01*
X80856649Y-102402906D01*
X80856645Y-102402913D01*
X80806403Y-102537620D01*
X80806401Y-102537627D01*
X80800000Y-102597155D01*
X80800000Y-102970000D01*
X80925500Y-102970000D01*
X80934185Y-102972550D01*
X80943147Y-102971262D01*
X80967187Y-102982240D01*
X80992539Y-102989685D01*
X80998466Y-102996525D01*
X81006703Y-103000287D01*
X81020992Y-103022521D01*
X81038294Y-103042489D01*
X81040581Y-103053003D01*
X81044477Y-103059065D01*
X81049500Y-103094000D01*
X81049500Y-103146000D01*
X81029815Y-103213039D01*
X80977011Y-103258794D01*
X80925500Y-103270000D01*
X80800000Y-103270000D01*
X80800000Y-103642844D01*
X80806401Y-103702372D01*
X80806403Y-103702379D01*
X80856645Y-103837086D01*
X80856649Y-103837093D01*
X80942809Y-103952187D01*
X80942812Y-103952190D01*
X81057906Y-104038350D01*
X81057913Y-104038354D01*
X81192620Y-104088596D01*
X81192627Y-104088598D01*
X81252155Y-104094999D01*
X81252172Y-104095000D01*
X81400000Y-104095000D01*
X81400000Y-103744500D01*
X81402550Y-103735814D01*
X81401262Y-103726853D01*
X81412240Y-103702812D01*
X81419685Y-103677461D01*
X81426525Y-103671533D01*
X81430287Y-103663297D01*
X81452521Y-103649007D01*
X81472489Y-103631706D01*
X81483003Y-103629418D01*
X81489065Y-103625523D01*
X81524000Y-103620500D01*
X81576000Y-103620500D01*
X81643039Y-103640185D01*
X81688794Y-103692989D01*
X81700000Y-103744500D01*
X81700000Y-104095000D01*
X81847828Y-104095000D01*
X81847844Y-104094999D01*
X81907372Y-104088598D01*
X81907379Y-104088596D01*
X82042086Y-104038354D01*
X82042093Y-104038350D01*
X82157187Y-103952190D01*
X82157190Y-103952187D01*
X82243350Y-103837093D01*
X82243354Y-103837086D01*
X82293596Y-103702379D01*
X82293598Y-103702372D01*
X82299999Y-103642844D01*
X82300000Y-103642827D01*
X82300000Y-103270000D01*
X82291588Y-103261588D01*
X82258103Y-103200265D01*
X82263087Y-103130573D01*
X82291588Y-103086226D01*
X82565128Y-102812686D01*
X82900500Y-102477314D01*
X82966392Y-102363186D01*
X83000500Y-102235892D01*
X83000500Y-102104107D01*
X83000500Y-99672230D01*
X82966392Y-99544936D01*
X82900500Y-99430808D01*
X82807314Y-99337622D01*
X82004192Y-98534500D01*
X81947128Y-98501554D01*
X81890065Y-98468608D01*
X81826417Y-98451554D01*
X81762770Y-98434500D01*
X81762769Y-98434500D01*
X79281740Y-98434500D01*
X79214701Y-98414815D01*
X79168946Y-98362011D01*
X79158450Y-98297245D01*
X79159999Y-98282828D01*
X79160000Y-98282827D01*
X79160000Y-97910000D01*
X78534000Y-97910000D01*
X78525314Y-97907449D01*
X78516353Y-97908738D01*
X78492312Y-97897759D01*
X78466961Y-97890315D01*
X78461033Y-97883474D01*
X78452797Y-97879713D01*
X78438507Y-97857478D01*
X78421206Y-97837511D01*
X78418918Y-97826996D01*
X78415023Y-97820935D01*
X78410000Y-97786000D01*
X78410000Y-97734000D01*
X78429685Y-97666961D01*
X78482489Y-97621206D01*
X78534000Y-97610000D01*
X79160000Y-97610000D01*
X79160000Y-97237172D01*
X79159999Y-97237155D01*
X79153597Y-97177622D01*
X79152508Y-97173009D01*
X79156252Y-97103240D01*
X79197121Y-97046570D01*
X79262141Y-97020993D01*
X79273186Y-97020500D01*
X79835890Y-97020500D01*
X79835892Y-97020500D01*
X79963186Y-96986392D01*
X80077314Y-96920500D01*
X80261073Y-96736740D01*
X80322394Y-96703257D01*
X80392085Y-96708241D01*
X80448019Y-96750112D01*
X80472436Y-96815577D01*
X80468526Y-96856516D01*
X80449500Y-96927525D01*
X80449500Y-97072475D01*
X80486105Y-97209085D01*
X80487017Y-97212488D01*
X80559488Y-97338011D01*
X80559490Y-97338013D01*
X80559491Y-97338015D01*
X80661985Y-97440509D01*
X80661986Y-97440510D01*
X80661988Y-97440511D01*
X80787511Y-97512982D01*
X80787512Y-97512982D01*
X80787515Y-97512984D01*
X80927525Y-97550500D01*
X80927528Y-97550500D01*
X81072472Y-97550500D01*
X81072475Y-97550500D01*
X81212485Y-97512984D01*
X81212488Y-97512981D01*
X81219838Y-97509938D01*
X81267289Y-97500500D01*
X83100425Y-97500500D01*
X83167464Y-97520185D01*
X83213219Y-97572989D01*
X83216607Y-97581167D01*
X83256202Y-97687328D01*
X83256206Y-97687335D01*
X83342452Y-97802544D01*
X83342455Y-97802547D01*
X83457664Y-97888793D01*
X83457671Y-97888797D01*
X83481700Y-97897759D01*
X83592517Y-97939091D01*
X83652127Y-97945500D01*
X84272872Y-97945499D01*
X84332483Y-97939091D01*
X84467331Y-97888796D01*
X84582546Y-97802546D01*
X84668796Y-97687331D01*
X84719091Y-97552483D01*
X84725500Y-97492873D01*
X84725499Y-96497128D01*
X84719091Y-96437517D01*
X84716914Y-96431681D01*
X84668797Y-96302671D01*
X84668793Y-96302664D01*
X84582547Y-96187455D01*
X84582544Y-96187452D01*
X84467335Y-96101206D01*
X84467328Y-96101202D01*
X84332486Y-96050910D01*
X84332485Y-96050909D01*
X84332483Y-96050909D01*
X84272873Y-96044500D01*
X84272863Y-96044500D01*
X83652129Y-96044500D01*
X83652123Y-96044501D01*
X83592516Y-96050908D01*
X83457671Y-96101202D01*
X83457664Y-96101206D01*
X83342455Y-96187452D01*
X83342452Y-96187455D01*
X83256206Y-96302664D01*
X83256202Y-96302671D01*
X83212877Y-96418833D01*
X83171006Y-96474767D01*
X83105541Y-96499184D01*
X83096695Y-96499500D01*
X81267289Y-96499500D01*
X81219838Y-96490062D01*
X81212486Y-96487016D01*
X81177482Y-96477637D01*
X81072475Y-96449500D01*
X80927525Y-96449500D01*
X80841666Y-96472505D01*
X80771818Y-96470843D01*
X80713955Y-96431681D01*
X80686451Y-96367452D01*
X80698037Y-96298550D01*
X80702175Y-96290752D01*
X80761392Y-96188186D01*
X80795500Y-96060893D01*
X80795500Y-95929108D01*
X80795500Y-95519726D01*
X87481858Y-95519726D01*
X87749999Y-95787867D01*
X88018141Y-95519726D01*
X87962292Y-95487482D01*
X87962293Y-95487482D01*
X87822406Y-95450000D01*
X87677594Y-95450000D01*
X87537709Y-95487482D01*
X87537704Y-95487484D01*
X87481858Y-95519726D01*
X80795500Y-95519726D01*
X80795500Y-92941739D01*
X80815185Y-92874700D01*
X80867989Y-92828945D01*
X80932762Y-92818450D01*
X80947170Y-92819999D01*
X80947172Y-92820000D01*
X81320000Y-92820000D01*
X81620000Y-92820000D01*
X81992828Y-92820000D01*
X81992844Y-92819999D01*
X82052372Y-92813598D01*
X82052379Y-92813596D01*
X82187086Y-92763354D01*
X82187093Y-92763350D01*
X82302187Y-92677190D01*
X82302190Y-92677187D01*
X82388350Y-92562093D01*
X82388354Y-92562086D01*
X82438596Y-92427379D01*
X82438598Y-92427372D01*
X82444999Y-92367844D01*
X82445000Y-92367827D01*
X82445000Y-92220000D01*
X81620000Y-92220000D01*
X81620000Y-92820000D01*
X81320000Y-92820000D01*
X81320000Y-91920000D01*
X81620000Y-91920000D01*
X82445000Y-91920000D01*
X82445000Y-91772172D01*
X82444999Y-91772152D01*
X82438598Y-91712627D01*
X82438596Y-91712620D01*
X82388354Y-91577913D01*
X82388350Y-91577906D01*
X82302190Y-91462812D01*
X82302187Y-91462809D01*
X82187093Y-91376649D01*
X82187086Y-91376645D01*
X82052379Y-91326403D01*
X82052372Y-91326401D01*
X81992844Y-91320000D01*
X81620000Y-91320000D01*
X81620000Y-91920000D01*
X81320000Y-91920000D01*
X81320000Y-91320000D01*
X80947172Y-91320000D01*
X80932755Y-91321550D01*
X80917347Y-91318770D01*
X80901853Y-91320998D01*
X80883668Y-91312693D01*
X80863996Y-91309144D01*
X80852538Y-91298476D01*
X80838297Y-91291973D01*
X80827489Y-91275156D01*
X80812858Y-91261534D01*
X80808480Y-91245577D01*
X80800523Y-91233195D01*
X80795500Y-91198260D01*
X80795500Y-91042243D01*
X80815185Y-90975204D01*
X80867989Y-90929449D01*
X80932756Y-90918954D01*
X80947127Y-90920500D01*
X81992872Y-90920499D01*
X82052483Y-90914091D01*
X82187331Y-90863796D01*
X82302546Y-90777546D01*
X82388796Y-90662331D01*
X82439091Y-90527483D01*
X82445500Y-90467873D01*
X82445499Y-89872128D01*
X82439091Y-89812517D01*
X82425942Y-89777262D01*
X82388858Y-89677833D01*
X82386669Y-89647224D01*
X82382302Y-89616853D01*
X82384199Y-89612697D01*
X82383874Y-89608141D01*
X82398580Y-89581208D01*
X82411327Y-89553297D01*
X82415169Y-89550827D01*
X82417359Y-89546818D01*
X82444289Y-89532113D01*
X82470105Y-89515523D01*
X82476307Y-89514631D01*
X82478683Y-89513334D01*
X82505040Y-89510500D01*
X82642745Y-89510500D01*
X82709784Y-89530185D01*
X82730426Y-89546819D01*
X82788181Y-89604574D01*
X82821666Y-89665897D01*
X82824500Y-89692255D01*
X82824500Y-90257870D01*
X82824501Y-90257876D01*
X82830908Y-90317483D01*
X82881202Y-90452328D01*
X82881206Y-90452335D01*
X82967452Y-90567544D01*
X82967455Y-90567547D01*
X83082664Y-90653793D01*
X83082671Y-90653797D01*
X83127618Y-90670561D01*
X83217517Y-90704091D01*
X83277127Y-90710500D01*
X83897872Y-90710499D01*
X83957483Y-90704091D01*
X84092331Y-90653796D01*
X84207546Y-90567546D01*
X84293796Y-90452331D01*
X84344091Y-90317483D01*
X84350500Y-90257873D01*
X84350500Y-90257844D01*
X84650000Y-90257844D01*
X84656401Y-90317372D01*
X84656403Y-90317379D01*
X84706645Y-90452086D01*
X84706649Y-90452093D01*
X84792809Y-90567187D01*
X84792812Y-90567190D01*
X84907906Y-90653350D01*
X84907913Y-90653354D01*
X85042620Y-90703596D01*
X85042627Y-90703598D01*
X85102155Y-90709999D01*
X85102172Y-90710000D01*
X85262500Y-90710000D01*
X85562500Y-90710000D01*
X85722828Y-90710000D01*
X85722844Y-90709999D01*
X85782372Y-90703598D01*
X85782379Y-90703596D01*
X85917086Y-90653354D01*
X85917093Y-90653350D01*
X86032187Y-90567190D01*
X86032190Y-90567187D01*
X86118350Y-90452093D01*
X86118354Y-90452086D01*
X86168596Y-90317379D01*
X86168598Y-90317372D01*
X86174999Y-90257844D01*
X86175000Y-90257827D01*
X86175000Y-89910000D01*
X85562500Y-89910000D01*
X85562500Y-90710000D01*
X85262500Y-90710000D01*
X85262500Y-89910000D01*
X84650000Y-89910000D01*
X84650000Y-90257844D01*
X84350500Y-90257844D01*
X84350499Y-89755243D01*
X84350499Y-89262155D01*
X84650000Y-89262155D01*
X84650000Y-89610000D01*
X85262500Y-89610000D01*
X85562500Y-89610000D01*
X86175000Y-89610000D01*
X86175000Y-89262172D01*
X86174999Y-89262155D01*
X86168598Y-89202627D01*
X86168596Y-89202620D01*
X86118354Y-89067913D01*
X86118350Y-89067906D01*
X86032190Y-88952812D01*
X86032187Y-88952809D01*
X85917093Y-88866649D01*
X85917086Y-88866645D01*
X85782379Y-88816403D01*
X85782372Y-88816401D01*
X85722844Y-88810000D01*
X85562500Y-88810000D01*
X85562500Y-89610000D01*
X85262500Y-89610000D01*
X85262500Y-88810000D01*
X85102155Y-88810000D01*
X85042627Y-88816401D01*
X85042620Y-88816403D01*
X84907913Y-88866645D01*
X84907906Y-88866649D01*
X84792812Y-88952809D01*
X84792809Y-88952812D01*
X84706649Y-89067906D01*
X84706645Y-89067913D01*
X84656403Y-89202620D01*
X84656401Y-89202627D01*
X84650000Y-89262155D01*
X84350499Y-89262155D01*
X84350499Y-89262129D01*
X84350498Y-89262123D01*
X84349758Y-89255243D01*
X84344091Y-89202517D01*
X84326443Y-89155201D01*
X84293797Y-89067671D01*
X84293793Y-89067664D01*
X84207547Y-88952455D01*
X84207544Y-88952452D01*
X84092335Y-88866206D01*
X84092328Y-88866202D01*
X83957486Y-88815910D01*
X83957485Y-88815909D01*
X83957483Y-88815909D01*
X83897873Y-88809500D01*
X83897863Y-88809500D01*
X83277129Y-88809500D01*
X83277123Y-88809501D01*
X83217511Y-88815909D01*
X83215774Y-88816320D01*
X83214385Y-88816245D01*
X83209804Y-88816738D01*
X83209724Y-88815995D01*
X83146005Y-88812579D01*
X83111770Y-88794015D01*
X83105914Y-88789521D01*
X83105913Y-88789520D01*
X83067316Y-88767235D01*
X83014589Y-88736793D01*
X82963657Y-88723146D01*
X82912727Y-88709500D01*
X82912726Y-88709500D01*
X82559240Y-88709500D01*
X82492201Y-88689815D01*
X82446446Y-88637011D01*
X82435950Y-88572245D01*
X82437499Y-88557828D01*
X82437500Y-88557827D01*
X82437500Y-88410000D01*
X81586500Y-88410000D01*
X81577814Y-88407449D01*
X81568853Y-88408738D01*
X81544812Y-88397759D01*
X81519461Y-88390315D01*
X81513533Y-88383474D01*
X81505297Y-88379713D01*
X81491007Y-88357478D01*
X81473706Y-88337511D01*
X81471418Y-88326996D01*
X81467523Y-88320935D01*
X81462500Y-88286000D01*
X81462500Y-88260000D01*
X81436500Y-88260000D01*
X81369461Y-88240315D01*
X81323706Y-88187511D01*
X81312500Y-88136000D01*
X81312500Y-88110000D01*
X81612500Y-88110000D01*
X82437500Y-88110000D01*
X82437500Y-87962172D01*
X82437499Y-87962155D01*
X82431098Y-87902627D01*
X82431096Y-87902620D01*
X82380854Y-87767913D01*
X82380850Y-87767906D01*
X82294690Y-87652812D01*
X82294687Y-87652809D01*
X82179593Y-87566649D01*
X82179586Y-87566645D01*
X82044879Y-87516403D01*
X82044872Y-87516401D01*
X81985344Y-87510000D01*
X81612500Y-87510000D01*
X81612500Y-88110000D01*
X81312500Y-88110000D01*
X81312500Y-87510000D01*
X81309517Y-87507017D01*
X81298428Y-87503761D01*
X81276340Y-87502182D01*
X81265556Y-87494109D01*
X81252635Y-87490315D01*
X81238135Y-87473581D01*
X81220407Y-87460310D01*
X81215699Y-87447689D01*
X81206880Y-87437511D01*
X81203728Y-87415593D01*
X81195990Y-87394846D01*
X81198852Y-87381685D01*
X81196936Y-87368353D01*
X81206135Y-87348209D01*
X81210842Y-87326573D01*
X81224110Y-87308847D01*
X81225961Y-87304797D01*
X81231993Y-87298319D01*
X81383494Y-87146818D01*
X81444817Y-87113333D01*
X81471175Y-87110499D01*
X81985371Y-87110499D01*
X81985372Y-87110499D01*
X82044983Y-87104091D01*
X82179831Y-87053796D01*
X82295046Y-86967546D01*
X82381296Y-86852331D01*
X82431591Y-86717483D01*
X82438000Y-86657873D01*
X82437999Y-86248752D01*
X82444237Y-86227507D01*
X82445817Y-86205420D01*
X82453888Y-86194637D01*
X82457683Y-86181715D01*
X82474419Y-86167213D01*
X82487689Y-86149487D01*
X82500307Y-86144780D01*
X82510487Y-86135960D01*
X82532405Y-86132808D01*
X82553153Y-86125070D01*
X82566313Y-86127932D01*
X82579646Y-86126016D01*
X82599789Y-86135215D01*
X82621426Y-86139922D01*
X82639151Y-86153190D01*
X82643202Y-86155041D01*
X82649680Y-86161073D01*
X82775681Y-86287074D01*
X82809166Y-86348397D01*
X82812000Y-86374755D01*
X82812000Y-87017870D01*
X82812001Y-87017876D01*
X82818408Y-87077483D01*
X82868702Y-87212328D01*
X82868706Y-87212335D01*
X82954952Y-87327544D01*
X82954955Y-87327547D01*
X83070164Y-87413793D01*
X83070171Y-87413797D01*
X83105016Y-87426793D01*
X83205017Y-87464091D01*
X83264627Y-87470500D01*
X83885372Y-87470499D01*
X83944983Y-87464091D01*
X84079831Y-87413796D01*
X84195046Y-87327546D01*
X84281296Y-87212331D01*
X84331591Y-87077483D01*
X84338000Y-87017873D01*
X84338000Y-87017844D01*
X84637500Y-87017844D01*
X84643901Y-87077372D01*
X84643903Y-87077379D01*
X84694145Y-87212086D01*
X84694149Y-87212093D01*
X84780309Y-87327187D01*
X84780312Y-87327190D01*
X84895406Y-87413350D01*
X84895413Y-87413354D01*
X85030120Y-87463596D01*
X85030127Y-87463598D01*
X85089655Y-87469999D01*
X85089672Y-87470000D01*
X85250000Y-87470000D01*
X85550000Y-87470000D01*
X85710328Y-87470000D01*
X85710344Y-87469999D01*
X85769872Y-87463598D01*
X85769879Y-87463596D01*
X85904586Y-87413354D01*
X85904593Y-87413350D01*
X86019687Y-87327190D01*
X86019690Y-87327187D01*
X86105850Y-87212093D01*
X86105854Y-87212086D01*
X86156096Y-87077379D01*
X86156098Y-87077372D01*
X86162499Y-87017844D01*
X86162500Y-87017827D01*
X86162500Y-86670000D01*
X85550000Y-86670000D01*
X85550000Y-87470000D01*
X85250000Y-87470000D01*
X85250000Y-86670000D01*
X84637500Y-86670000D01*
X84637500Y-87017844D01*
X84338000Y-87017844D01*
X84337999Y-86519091D01*
X84337999Y-86022155D01*
X84637500Y-86022155D01*
X84637500Y-86370000D01*
X85250000Y-86370000D01*
X85550000Y-86370000D01*
X86162500Y-86370000D01*
X86162500Y-86022172D01*
X86162499Y-86022155D01*
X86156098Y-85962627D01*
X86156096Y-85962620D01*
X86105854Y-85827913D01*
X86105850Y-85827906D01*
X86019690Y-85712812D01*
X86019687Y-85712809D01*
X85904593Y-85626649D01*
X85904586Y-85626645D01*
X85769879Y-85576403D01*
X85769872Y-85576401D01*
X85710344Y-85570000D01*
X85550000Y-85570000D01*
X85550000Y-86370000D01*
X85250000Y-86370000D01*
X85250000Y-85570000D01*
X85089655Y-85570000D01*
X85030127Y-85576401D01*
X85030120Y-85576403D01*
X84895413Y-85626645D01*
X84895406Y-85626649D01*
X84780312Y-85712809D01*
X84780309Y-85712812D01*
X84694149Y-85827906D01*
X84694145Y-85827913D01*
X84643903Y-85962620D01*
X84643901Y-85962627D01*
X84637500Y-86022155D01*
X84337999Y-86022155D01*
X84337999Y-86022129D01*
X84337998Y-86022123D01*
X84331591Y-85962516D01*
X84281297Y-85827671D01*
X84281293Y-85827664D01*
X84195047Y-85712455D01*
X84195044Y-85712452D01*
X84079835Y-85626206D01*
X84079828Y-85626202D01*
X83944986Y-85575910D01*
X83944985Y-85575909D01*
X83944983Y-85575909D01*
X83885373Y-85569500D01*
X83885363Y-85569500D01*
X83264629Y-85569500D01*
X83264620Y-85569501D01*
X83257034Y-85570317D01*
X83254776Y-85569909D01*
X83252628Y-85570711D01*
X83220575Y-85563738D01*
X83188275Y-85557910D01*
X83185895Y-85556194D01*
X83184355Y-85555859D01*
X83156101Y-85534708D01*
X83057986Y-85436593D01*
X83024501Y-85375270D01*
X83029485Y-85305578D01*
X83071357Y-85249645D01*
X83136821Y-85225228D01*
X83205094Y-85240080D01*
X83207649Y-85241514D01*
X83227515Y-85252984D01*
X83367525Y-85290500D01*
X83367528Y-85290500D01*
X83512472Y-85290500D01*
X83512475Y-85290500D01*
X83652485Y-85252984D01*
X83778015Y-85180509D01*
X83880509Y-85078015D01*
X83952984Y-84952485D01*
X83990500Y-84812475D01*
X83990500Y-84667525D01*
X83952984Y-84527515D01*
X83952982Y-84527511D01*
X83948617Y-84519950D01*
X83932144Y-84452050D01*
X83954997Y-84386023D01*
X84009918Y-84342832D01*
X84036609Y-84335476D01*
X84070149Y-84330164D01*
X84070155Y-84330162D01*
X84183041Y-84272643D01*
X84183050Y-84272636D01*
X84272636Y-84183050D01*
X84272639Y-84183046D01*
X84330166Y-84070144D01*
X84344999Y-83976485D01*
X84344999Y-83786982D01*
X84364683Y-83719942D01*
X84417487Y-83674187D01*
X84486645Y-83664243D01*
X84516452Y-83672420D01*
X84646230Y-83726176D01*
X84646240Y-83726179D01*
X84714999Y-83739856D01*
X84715000Y-83739856D01*
X84715000Y-83264808D01*
X84749204Y-83284556D01*
X84825504Y-83305000D01*
X84904496Y-83305000D01*
X84980796Y-83284556D01*
X85015000Y-83264808D01*
X85015000Y-83739856D01*
X85083759Y-83726179D01*
X85083769Y-83726176D01*
X85220254Y-83669642D01*
X85220264Y-83669637D01*
X85343096Y-83587563D01*
X85343100Y-83587560D01*
X85447560Y-83483100D01*
X85447563Y-83483096D01*
X85529637Y-83360264D01*
X85529642Y-83360254D01*
X85586177Y-83223767D01*
X85586179Y-83223759D01*
X85614999Y-83078873D01*
X85615000Y-83078871D01*
X85615000Y-82605000D01*
X85165000Y-82605000D01*
X85165000Y-82305000D01*
X85615000Y-82305000D01*
X85615000Y-81831128D01*
X85614999Y-81831126D01*
X85586179Y-81686240D01*
X85586177Y-81686232D01*
X85529642Y-81549745D01*
X85529637Y-81549735D01*
X85447563Y-81426903D01*
X85447560Y-81426899D01*
X85343100Y-81322439D01*
X85343096Y-81322436D01*
X85220264Y-81240362D01*
X85220254Y-81240357D01*
X85083767Y-81183822D01*
X85083761Y-81183820D01*
X85015000Y-81170142D01*
X85015000Y-81645191D01*
X84980796Y-81625444D01*
X84904496Y-81605000D01*
X84825504Y-81605000D01*
X84749204Y-81625444D01*
X84715000Y-81645191D01*
X84715000Y-81170143D01*
X84714999Y-81170142D01*
X84646238Y-81183820D01*
X84646232Y-81183822D01*
X84509745Y-81240357D01*
X84509735Y-81240362D01*
X84386903Y-81322436D01*
X84386899Y-81322439D01*
X84282439Y-81426899D01*
X84282436Y-81426903D01*
X84200362Y-81549735D01*
X84200359Y-81549742D01*
X84163958Y-81637620D01*
X84120116Y-81692023D01*
X84053822Y-81714087D01*
X83986123Y-81696807D01*
X83942010Y-81652166D01*
X83914778Y-81605000D01*
X83895515Y-81571635D01*
X83788365Y-81464485D01*
X83722750Y-81426602D01*
X83657136Y-81388719D01*
X83583950Y-81369109D01*
X83510766Y-81349500D01*
X83359234Y-81349500D01*
X83212863Y-81388719D01*
X83081635Y-81464485D01*
X83081632Y-81464487D01*
X82974487Y-81571632D01*
X82974485Y-81571635D01*
X82898719Y-81702863D01*
X82859500Y-81849234D01*
X82859500Y-82000765D01*
X82898719Y-82147136D01*
X82919321Y-82182819D01*
X82930678Y-82202490D01*
X82934148Y-82208499D01*
X82950621Y-82276399D01*
X82927769Y-82342426D01*
X82872848Y-82385617D01*
X82858825Y-82390283D01*
X82843068Y-82394500D01*
X82813482Y-82394501D01*
X82719696Y-82409354D01*
X82644555Y-82447640D01*
X82631952Y-82451014D01*
X82609541Y-82450474D01*
X82587513Y-82454612D01*
X82568899Y-82449497D01*
X82562103Y-82449334D01*
X82557868Y-82446466D01*
X82547485Y-82443613D01*
X82455545Y-82400741D01*
X82455543Y-82400740D01*
X82455544Y-82400740D01*
X82408140Y-82394500D01*
X82243959Y-82394500D01*
X82176920Y-82374815D01*
X82136572Y-82332499D01*
X82127762Y-82317240D01*
X82115480Y-82295967D01*
X79949033Y-80129520D01*
X79903370Y-80103156D01*
X79857709Y-80076793D01*
X79806777Y-80063146D01*
X79755847Y-80049500D01*
X74842727Y-80049500D01*
X74737273Y-80049500D01*
X74635410Y-80076793D01*
X74544087Y-80129519D01*
X74338898Y-80334708D01*
X74277575Y-80368192D01*
X74237972Y-80370317D01*
X74230373Y-80369500D01*
X74230366Y-80369500D01*
X73609629Y-80369500D01*
X73609623Y-80369501D01*
X73550016Y-80375908D01*
X73415171Y-80426202D01*
X73415164Y-80426206D01*
X73299955Y-80512452D01*
X73299952Y-80512455D01*
X73213706Y-80627664D01*
X73213702Y-80627671D01*
X73163408Y-80762517D01*
X73157001Y-80822116D01*
X73157000Y-80822135D01*
X73157000Y-81817870D01*
X73157001Y-81817876D01*
X73163408Y-81877483D01*
X73213702Y-82012328D01*
X73213706Y-82012335D01*
X73299952Y-82127544D01*
X73299955Y-82127547D01*
X73415164Y-82213793D01*
X73415171Y-82213797D01*
X73460118Y-82230561D01*
X73550017Y-82264091D01*
X73609627Y-82270500D01*
X73791663Y-82270499D01*
X73812907Y-82276737D01*
X73834996Y-82278317D01*
X73845778Y-82286388D01*
X73858701Y-82290183D01*
X73873202Y-82306919D01*
X73890929Y-82320189D01*
X73895635Y-82332807D01*
X73904456Y-82342987D01*
X73907607Y-82364905D01*
X73915346Y-82385653D01*
X73912483Y-82398813D01*
X73914400Y-82412145D01*
X73905201Y-82432287D01*
X73900494Y-82453926D01*
X73887223Y-82471652D01*
X73885375Y-82475701D01*
X73879343Y-82482180D01*
X73868342Y-82493181D01*
X73807019Y-82526666D01*
X73780662Y-82529500D01*
X73599630Y-82529500D01*
X73599623Y-82529501D01*
X73540016Y-82535908D01*
X73405171Y-82586202D01*
X73405164Y-82586206D01*
X73289955Y-82672452D01*
X73289952Y-82672455D01*
X73203706Y-82787664D01*
X73203702Y-82787671D01*
X73153408Y-82922517D01*
X73147001Y-82982116D01*
X73147001Y-82982123D01*
X73147000Y-82982135D01*
X73147000Y-83977870D01*
X73147001Y-83977876D01*
X73153408Y-84037483D01*
X73203702Y-84172328D01*
X73203706Y-84172335D01*
X73289952Y-84287544D01*
X73289955Y-84287547D01*
X73405164Y-84373793D01*
X73405171Y-84373797D01*
X73465706Y-84396375D01*
X73521640Y-84438246D01*
X73546057Y-84503710D01*
X73531206Y-84571983D01*
X73481801Y-84621389D01*
X73465707Y-84628738D01*
X73457918Y-84631643D01*
X73457906Y-84631649D01*
X73342812Y-84717809D01*
X73342809Y-84717812D01*
X73256649Y-84832906D01*
X73256645Y-84832913D01*
X73206403Y-84967620D01*
X73206401Y-84967627D01*
X73200000Y-85027155D01*
X73200000Y-85400000D01*
X74700000Y-85400000D01*
X74700000Y-85027172D01*
X74699999Y-85027155D01*
X74693598Y-84967627D01*
X74693596Y-84967620D01*
X74643354Y-84832913D01*
X74643350Y-84832906D01*
X74557190Y-84717812D01*
X74557187Y-84717809D01*
X74442093Y-84631649D01*
X74442086Y-84631645D01*
X74394294Y-84613820D01*
X74338360Y-84571949D01*
X74313943Y-84506484D01*
X74328795Y-84438211D01*
X74378200Y-84388806D01*
X74394295Y-84381456D01*
X74414826Y-84373798D01*
X74414826Y-84373797D01*
X74414831Y-84373796D01*
X74530046Y-84287546D01*
X74616296Y-84172331D01*
X74666591Y-84037483D01*
X74673000Y-83977873D01*
X74672999Y-82982128D01*
X74666591Y-82922517D01*
X74666591Y-82922516D01*
X74664807Y-82914966D01*
X74667695Y-82914283D01*
X74663703Y-82858441D01*
X74697186Y-82797123D01*
X75263319Y-82230990D01*
X75324642Y-82197506D01*
X75394334Y-82202490D01*
X75450267Y-82244362D01*
X75471625Y-82301625D01*
X75475000Y-82305000D01*
X75925000Y-82305000D01*
X75925000Y-82605000D01*
X75475000Y-82605000D01*
X75475000Y-83078873D01*
X75503820Y-83223759D01*
X75503822Y-83223767D01*
X75560357Y-83360254D01*
X75560362Y-83360264D01*
X75642436Y-83483096D01*
X75642439Y-83483100D01*
X75746899Y-83587560D01*
X75746903Y-83587563D01*
X75869735Y-83669637D01*
X75869745Y-83669642D01*
X76006230Y-83726176D01*
X76006240Y-83726179D01*
X76074999Y-83739856D01*
X76075000Y-83739856D01*
X76075000Y-83264808D01*
X76109204Y-83284556D01*
X76185504Y-83305000D01*
X76264496Y-83305000D01*
X76340796Y-83284556D01*
X76375000Y-83264808D01*
X76375000Y-83739856D01*
X76443759Y-83726179D01*
X76443765Y-83726177D01*
X76573546Y-83672420D01*
X76643016Y-83664951D01*
X76705495Y-83696225D01*
X76741148Y-83756314D01*
X76745000Y-83786980D01*
X76745000Y-83976479D01*
X76759835Y-84070149D01*
X76759837Y-84070155D01*
X76817356Y-84183041D01*
X76817363Y-84183050D01*
X76906949Y-84272636D01*
X76906953Y-84272639D01*
X77019855Y-84330166D01*
X77113513Y-84344999D01*
X77145000Y-84344998D01*
X77145000Y-83494000D01*
X77147550Y-83485314D01*
X77146262Y-83476353D01*
X77157240Y-83452312D01*
X77164685Y-83426961D01*
X77171525Y-83421033D01*
X77175287Y-83412797D01*
X77197521Y-83398507D01*
X77217489Y-83381206D01*
X77228003Y-83378918D01*
X77234065Y-83375023D01*
X77269000Y-83370000D01*
X77321000Y-83370000D01*
X77388039Y-83389685D01*
X77433794Y-83442489D01*
X77445000Y-83494000D01*
X77445000Y-84344999D01*
X77476479Y-84344999D01*
X77570149Y-84330164D01*
X77570152Y-84330163D01*
X77638154Y-84295514D01*
X77639009Y-84295353D01*
X77639652Y-84294763D01*
X77673309Y-84288911D01*
X77706823Y-84282617D01*
X77707913Y-84282894D01*
X77708489Y-84282795D01*
X77713827Y-84284401D01*
X77742631Y-84291741D01*
X77746749Y-84293477D01*
X77819696Y-84330646D01*
X77844031Y-84334500D01*
X77857920Y-84340357D01*
X77873773Y-84353300D01*
X77892267Y-84362066D01*
X77897420Y-84366933D01*
X78162136Y-84631649D01*
X78418307Y-84887819D01*
X78451792Y-84949142D01*
X78446808Y-85018833D01*
X78404937Y-85074767D01*
X78339472Y-85099184D01*
X78330626Y-85099500D01*
X77004317Y-85099500D01*
X76902457Y-85126793D01*
X76902454Y-85126794D01*
X76811129Y-85179521D01*
X76389522Y-85601128D01*
X76389518Y-85601134D01*
X76336792Y-85692456D01*
X76336793Y-85692457D01*
X76309500Y-85794317D01*
X76309500Y-87277897D01*
X76289815Y-87344936D01*
X76237011Y-87390691D01*
X76167853Y-87400635D01*
X76166064Y-87400268D01*
X76160228Y-87399500D01*
X76160227Y-87399500D01*
X76160225Y-87399500D01*
X74959851Y-87399500D01*
X74892812Y-87379815D01*
X74847057Y-87327011D01*
X74836561Y-87288752D01*
X74831591Y-87242516D01*
X74781297Y-87107671D01*
X74781293Y-87107664D01*
X74695047Y-86992455D01*
X74695044Y-86992452D01*
X74579835Y-86906206D01*
X74579828Y-86906202D01*
X74444986Y-86855910D01*
X74444985Y-86855909D01*
X74444983Y-86855909D01*
X74385373Y-86849500D01*
X74385363Y-86849500D01*
X73764629Y-86849500D01*
X73764623Y-86849501D01*
X73705016Y-86855908D01*
X73570171Y-86906202D01*
X73570164Y-86906206D01*
X73454955Y-86992452D01*
X73454952Y-86992455D01*
X73368706Y-87107664D01*
X73368702Y-87107671D01*
X73318408Y-87242517D01*
X73312001Y-87302116D01*
X73312000Y-87302135D01*
X73312000Y-88297870D01*
X73312001Y-88297876D01*
X73318408Y-88357483D01*
X73368702Y-88492328D01*
X73368706Y-88492335D01*
X73454952Y-88607544D01*
X73454955Y-88607547D01*
X73570164Y-88693793D01*
X73570171Y-88693797D01*
X73612274Y-88709500D01*
X73705017Y-88744091D01*
X73764627Y-88750500D01*
X74385372Y-88750499D01*
X74444983Y-88744091D01*
X74579831Y-88693796D01*
X74695046Y-88607546D01*
X74781296Y-88492331D01*
X74831591Y-88357483D01*
X74836562Y-88311242D01*
X74863299Y-88246694D01*
X74920691Y-88206846D01*
X74959851Y-88200500D01*
X75890245Y-88200500D01*
X75957284Y-88220185D01*
X75977926Y-88236819D01*
X76043454Y-88302347D01*
X76076939Y-88363670D01*
X76071955Y-88433362D01*
X76030083Y-88489295D01*
X75964619Y-88513712D01*
X75923681Y-88509803D01*
X75885229Y-88499500D01*
X75885227Y-88499500D01*
X75370243Y-88499500D01*
X75370227Y-88499499D01*
X75362631Y-88499499D01*
X75257177Y-88499499D01*
X75163871Y-88524501D01*
X75163870Y-88524500D01*
X75155318Y-88526792D01*
X75155314Y-88526794D01*
X75063989Y-88579521D01*
X75006770Y-88636741D01*
X74989424Y-88654087D01*
X74989422Y-88654089D01*
X74934011Y-88709500D01*
X74905876Y-88737635D01*
X74905873Y-88737636D01*
X74825134Y-88818376D01*
X73779522Y-89863988D01*
X73779520Y-89863991D01*
X73726793Y-89955316D01*
X73715040Y-89999179D01*
X73715040Y-89999180D01*
X73715039Y-89999179D01*
X73699500Y-90057175D01*
X73699500Y-90256290D01*
X73679815Y-90323329D01*
X73627011Y-90369084D01*
X73557853Y-90379028D01*
X73539891Y-90375036D01*
X73414023Y-90350000D01*
X73250000Y-90350000D01*
X73250000Y-90796446D01*
X73241614Y-90788060D01*
X73149728Y-90750000D01*
X73050272Y-90750000D01*
X72958386Y-90788060D01*
X72950000Y-90796446D01*
X72950000Y-90350000D01*
X72785976Y-90350000D01*
X72660409Y-90374977D01*
X72660401Y-90374979D01*
X72542108Y-90423978D01*
X72542107Y-90423978D01*
X72435650Y-90495110D01*
X72435643Y-90495116D01*
X72345116Y-90585643D01*
X72345110Y-90585650D01*
X72273978Y-90692107D01*
X72273978Y-90692108D01*
X72224980Y-90810399D01*
X72224979Y-90810402D01*
X72217104Y-90850000D01*
X72896446Y-90850000D01*
X72888060Y-90858386D01*
X72850000Y-90950272D01*
X72850000Y-91049728D01*
X72888060Y-91141614D01*
X72896446Y-91150000D01*
X72217104Y-91150000D01*
X72224979Y-91189597D01*
X72224980Y-91189600D01*
X72273978Y-91307891D01*
X72273978Y-91307892D01*
X72345110Y-91414349D01*
X72345116Y-91414356D01*
X72435643Y-91504883D01*
X72460656Y-91521596D01*
X72505461Y-91575208D01*
X72514170Y-91644533D01*
X72484016Y-91707560D01*
X72460658Y-91727801D01*
X72435327Y-91744726D01*
X72344726Y-91835327D01*
X72344723Y-91835331D01*
X72273538Y-91941866D01*
X72273533Y-91941875D01*
X72224499Y-92060255D01*
X72224497Y-92060261D01*
X72199500Y-92185928D01*
X72199500Y-92185931D01*
X72199500Y-92314069D01*
X72199500Y-92314071D01*
X72199499Y-92314071D01*
X72224497Y-92439738D01*
X72224499Y-92439744D01*
X72273533Y-92558124D01*
X72273538Y-92558133D01*
X72344723Y-92664668D01*
X72344726Y-92664672D01*
X72415863Y-92735809D01*
X72449348Y-92797132D01*
X72444364Y-92866824D01*
X72402492Y-92922757D01*
X72401817Y-92923259D01*
X72327850Y-92977849D01*
X72247207Y-93087117D01*
X72247206Y-93087119D01*
X72202353Y-93215298D01*
X72202353Y-93215300D01*
X72199500Y-93245730D01*
X72199500Y-93754269D01*
X72202353Y-93784699D01*
X72202353Y-93784701D01*
X72245258Y-93907313D01*
X72247207Y-93912882D01*
X72327850Y-94022150D01*
X72437118Y-94102793D01*
X72479845Y-94117744D01*
X72565299Y-94147646D01*
X72595730Y-94150500D01*
X72595734Y-94150500D01*
X73604270Y-94150500D01*
X73634699Y-94147646D01*
X73634701Y-94147646D01*
X73707834Y-94122055D01*
X73762882Y-94102793D01*
X73792448Y-94080972D01*
X73858075Y-94057001D01*
X73926245Y-94072316D01*
X73975314Y-94122055D01*
X73989702Y-94190427D01*
X73964842Y-94255724D01*
X73953762Y-94268423D01*
X73559005Y-94663181D01*
X73497682Y-94696666D01*
X73471324Y-94699500D01*
X72544654Y-94699500D01*
X72531987Y-94696500D01*
X72522522Y-94697509D01*
X72497508Y-94688335D01*
X72489045Y-94686331D01*
X72485791Y-94684698D01*
X72472485Y-94677016D01*
X72468181Y-94675862D01*
X72456977Y-94670241D01*
X72450475Y-94664176D01*
X72424905Y-94647091D01*
X71286819Y-93509005D01*
X71253334Y-93447682D01*
X71250500Y-93421324D01*
X71250500Y-88391286D01*
X71270185Y-88324247D01*
X71322989Y-88278492D01*
X71392147Y-88268548D01*
X71455703Y-88297573D01*
X71489798Y-88350627D01*
X71491191Y-88350108D01*
X71544145Y-88492086D01*
X71544149Y-88492093D01*
X71630309Y-88607187D01*
X71630312Y-88607190D01*
X71745406Y-88693350D01*
X71745413Y-88693354D01*
X71880120Y-88743596D01*
X71880127Y-88743598D01*
X71939655Y-88749999D01*
X71939672Y-88750000D01*
X72100000Y-88750000D01*
X72400000Y-88750000D01*
X72560328Y-88750000D01*
X72560344Y-88749999D01*
X72619872Y-88743598D01*
X72619879Y-88743596D01*
X72754586Y-88693354D01*
X72754593Y-88693350D01*
X72869687Y-88607190D01*
X72869690Y-88607187D01*
X72955850Y-88492093D01*
X72955854Y-88492086D01*
X73006096Y-88357379D01*
X73006098Y-88357372D01*
X73012499Y-88297844D01*
X73012500Y-88297827D01*
X73012500Y-87950000D01*
X72400000Y-87950000D01*
X72400000Y-88750000D01*
X72100000Y-88750000D01*
X72100000Y-87650000D01*
X72400000Y-87650000D01*
X73012500Y-87650000D01*
X73012500Y-87302172D01*
X73012499Y-87302155D01*
X73006098Y-87242627D01*
X73006096Y-87242620D01*
X72955854Y-87107913D01*
X72955850Y-87107906D01*
X72869690Y-86992812D01*
X72869687Y-86992809D01*
X72754593Y-86906649D01*
X72754586Y-86906645D01*
X72619879Y-86856403D01*
X72619872Y-86856401D01*
X72560344Y-86850000D01*
X72400000Y-86850000D01*
X72400000Y-87650000D01*
X72100000Y-87650000D01*
X72100000Y-86850000D01*
X71939655Y-86850000D01*
X71880127Y-86856401D01*
X71880120Y-86856403D01*
X71745412Y-86906646D01*
X71744037Y-86907397D01*
X71742506Y-86907729D01*
X71737101Y-86909746D01*
X71736811Y-86908968D01*
X71675764Y-86922248D01*
X71610300Y-86897830D01*
X71568429Y-86841897D01*
X71563445Y-86772205D01*
X71596930Y-86710883D01*
X71745995Y-86561818D01*
X71807318Y-86528333D01*
X71833676Y-86525499D01*
X72347871Y-86525499D01*
X72347872Y-86525499D01*
X72407483Y-86519091D01*
X72542331Y-86468796D01*
X72657546Y-86382546D01*
X72743796Y-86267331D01*
X72794091Y-86132483D01*
X72800500Y-86072873D01*
X72800500Y-86072844D01*
X73200000Y-86072844D01*
X73206401Y-86132372D01*
X73206403Y-86132379D01*
X73256645Y-86267086D01*
X73256649Y-86267093D01*
X73342809Y-86382187D01*
X73342812Y-86382190D01*
X73457906Y-86468350D01*
X73457913Y-86468354D01*
X73592620Y-86518596D01*
X73592627Y-86518598D01*
X73652155Y-86524999D01*
X73652172Y-86525000D01*
X73800000Y-86525000D01*
X74100000Y-86525000D01*
X74247828Y-86525000D01*
X74247844Y-86524999D01*
X74307372Y-86518598D01*
X74307379Y-86518596D01*
X74442086Y-86468354D01*
X74442093Y-86468350D01*
X74557187Y-86382190D01*
X74557190Y-86382187D01*
X74643350Y-86267093D01*
X74643354Y-86267086D01*
X74693596Y-86132379D01*
X74693598Y-86132372D01*
X74699999Y-86072844D01*
X74700000Y-86072827D01*
X74700000Y-85700000D01*
X74100000Y-85700000D01*
X74100000Y-86525000D01*
X73800000Y-86525000D01*
X73800000Y-85700000D01*
X73200000Y-85700000D01*
X73200000Y-86072844D01*
X72800500Y-86072844D01*
X72800499Y-85541323D01*
X72800499Y-85027129D01*
X72800498Y-85027123D01*
X72800497Y-85027116D01*
X72794091Y-84967517D01*
X72788484Y-84952485D01*
X72743797Y-84832671D01*
X72743793Y-84832664D01*
X72657547Y-84717455D01*
X72657544Y-84717452D01*
X72542335Y-84631206D01*
X72542327Y-84631202D01*
X72531791Y-84627272D01*
X72475858Y-84585399D01*
X72451443Y-84519935D01*
X72466296Y-84451662D01*
X72515702Y-84402258D01*
X72531795Y-84394909D01*
X72589584Y-84373355D01*
X72589593Y-84373350D01*
X72704687Y-84287190D01*
X72704690Y-84287187D01*
X72790850Y-84172093D01*
X72790854Y-84172086D01*
X72841096Y-84037379D01*
X72841098Y-84037372D01*
X72847499Y-83977844D01*
X72847500Y-83977827D01*
X72847500Y-83630000D01*
X71322500Y-83630000D01*
X71322500Y-83977844D01*
X71328901Y-84037372D01*
X71328903Y-84037379D01*
X71379145Y-84172086D01*
X71379149Y-84172093D01*
X71465309Y-84287187D01*
X71465312Y-84287190D01*
X71580406Y-84373350D01*
X71580415Y-84373355D01*
X71603205Y-84381855D01*
X71659139Y-84423725D01*
X71683557Y-84489189D01*
X71668706Y-84557462D01*
X71619302Y-84606868D01*
X71603207Y-84614219D01*
X71557669Y-84631203D01*
X71557664Y-84631206D01*
X71442455Y-84717452D01*
X71442452Y-84717455D01*
X71356206Y-84832664D01*
X71356202Y-84832671D01*
X71305908Y-84967517D01*
X71299501Y-85027116D01*
X71299501Y-85027123D01*
X71299500Y-85027135D01*
X71299500Y-85541323D01*
X71279815Y-85608362D01*
X71263181Y-85629004D01*
X70712181Y-86180004D01*
X70650858Y-86213489D01*
X70581166Y-86208505D01*
X70525233Y-86166633D01*
X70500816Y-86101169D01*
X70500500Y-86092323D01*
X70500500Y-84603491D01*
X70500502Y-84602859D01*
X70501415Y-84423725D01*
X70508763Y-82982155D01*
X71322500Y-82982155D01*
X71322500Y-83330000D01*
X71935000Y-83330000D01*
X72235000Y-83330000D01*
X72847500Y-83330000D01*
X72847500Y-82982172D01*
X72847499Y-82982155D01*
X72841098Y-82922627D01*
X72841096Y-82922620D01*
X72790854Y-82787913D01*
X72790850Y-82787906D01*
X72704690Y-82672812D01*
X72704687Y-82672809D01*
X72589593Y-82586649D01*
X72589586Y-82586645D01*
X72454879Y-82536403D01*
X72454872Y-82536401D01*
X72395344Y-82530000D01*
X72235000Y-82530000D01*
X72235000Y-83330000D01*
X71935000Y-83330000D01*
X71935000Y-82530000D01*
X71774655Y-82530000D01*
X71715127Y-82536401D01*
X71715120Y-82536403D01*
X71580413Y-82586645D01*
X71580406Y-82586649D01*
X71465312Y-82672809D01*
X71465309Y-82672812D01*
X71379149Y-82787906D01*
X71379145Y-82787913D01*
X71328903Y-82922620D01*
X71328901Y-82922627D01*
X71322500Y-82982155D01*
X70508763Y-82982155D01*
X70512290Y-82290183D01*
X70514698Y-81817844D01*
X71332500Y-81817844D01*
X71338901Y-81877372D01*
X71338903Y-81877379D01*
X71389145Y-82012086D01*
X71389149Y-82012093D01*
X71475309Y-82127187D01*
X71475312Y-82127190D01*
X71590406Y-82213350D01*
X71590413Y-82213354D01*
X71725120Y-82263596D01*
X71725127Y-82263598D01*
X71784655Y-82269999D01*
X71784672Y-82270000D01*
X71945000Y-82270000D01*
X72245000Y-82270000D01*
X72405328Y-82270000D01*
X72405344Y-82269999D01*
X72464872Y-82263598D01*
X72464879Y-82263596D01*
X72599586Y-82213354D01*
X72599593Y-82213350D01*
X72714687Y-82127190D01*
X72714690Y-82127187D01*
X72800850Y-82012093D01*
X72800854Y-82012086D01*
X72851096Y-81877379D01*
X72851098Y-81877372D01*
X72857499Y-81817844D01*
X72857500Y-81817827D01*
X72857500Y-81470000D01*
X72245000Y-81470000D01*
X72245000Y-82270000D01*
X71945000Y-82270000D01*
X71945000Y-81470000D01*
X71332500Y-81470000D01*
X71332500Y-81817844D01*
X70514698Y-81817844D01*
X70516736Y-81418006D01*
X70519773Y-80822155D01*
X71332500Y-80822155D01*
X71332500Y-81170000D01*
X71945000Y-81170000D01*
X72245000Y-81170000D01*
X72857500Y-81170000D01*
X72857500Y-80822172D01*
X72857499Y-80822155D01*
X72851098Y-80762627D01*
X72851096Y-80762620D01*
X72800854Y-80627913D01*
X72800850Y-80627906D01*
X72714690Y-80512812D01*
X72714687Y-80512809D01*
X72599593Y-80426649D01*
X72599586Y-80426645D01*
X72464879Y-80376403D01*
X72464872Y-80376401D01*
X72405344Y-80370000D01*
X72245000Y-80370000D01*
X72245000Y-81170000D01*
X71945000Y-81170000D01*
X71945000Y-80370000D01*
X71784655Y-80370000D01*
X71725127Y-80376401D01*
X71725120Y-80376403D01*
X71590413Y-80426645D01*
X71590406Y-80426649D01*
X71475312Y-80512809D01*
X71475309Y-80512812D01*
X71389149Y-80627906D01*
X71389145Y-80627913D01*
X71338903Y-80762620D01*
X71338901Y-80762627D01*
X71332500Y-80822155D01*
X70519773Y-80822155D01*
X70519793Y-80818219D01*
X70520528Y-80673990D01*
X70540554Y-80607052D01*
X70557293Y-80586495D01*
X70718781Y-80426645D01*
X72642101Y-78522833D01*
X72642864Y-78522085D01*
X72709359Y-78457708D01*
X72771213Y-78425220D01*
X72817740Y-78415966D01*
X72900601Y-78360601D01*
X72911074Y-78344925D01*
X72964683Y-78300122D01*
X73034008Y-78291412D01*
X73083068Y-78310715D01*
X73134496Y-78345079D01*
X73134511Y-78345087D01*
X73271082Y-78401656D01*
X73271087Y-78401658D01*
X73271091Y-78401658D01*
X73271092Y-78401659D01*
X73416079Y-78430500D01*
X73416082Y-78430500D01*
X73563920Y-78430500D01*
X73661462Y-78411096D01*
X73708913Y-78401658D01*
X73845495Y-78345084D01*
X73912786Y-78300122D01*
X73957065Y-78270536D01*
X73962040Y-78267211D01*
X73968416Y-78262951D01*
X74072951Y-78158416D01*
X74155084Y-78035495D01*
X74210741Y-77901126D01*
X75475000Y-77901126D01*
X75475000Y-78125000D01*
X75925000Y-78125000D01*
X75925000Y-78425000D01*
X75475000Y-78425000D01*
X75475000Y-78648873D01*
X75503820Y-78793759D01*
X75503822Y-78793767D01*
X75560357Y-78930254D01*
X75560362Y-78930264D01*
X75642436Y-79053096D01*
X75642439Y-79053100D01*
X75746899Y-79157560D01*
X75746903Y-79157563D01*
X75869735Y-79239637D01*
X75869745Y-79239642D01*
X76006230Y-79296176D01*
X76006240Y-79296179D01*
X76074999Y-79309856D01*
X76075000Y-79309856D01*
X76075000Y-78834808D01*
X76109204Y-78854556D01*
X76185504Y-78875000D01*
X76264496Y-78875000D01*
X76340796Y-78854556D01*
X76375000Y-78834808D01*
X76375000Y-79309856D01*
X76443759Y-79296179D01*
X76443769Y-79296176D01*
X76580254Y-79239642D01*
X76580264Y-79239637D01*
X76703096Y-79157563D01*
X76703100Y-79157560D01*
X76807560Y-79053100D01*
X76807563Y-79053096D01*
X76889637Y-78930264D01*
X76889642Y-78930254D01*
X76946177Y-78793767D01*
X76946179Y-78793759D01*
X76974999Y-78648873D01*
X76975000Y-78648871D01*
X76975000Y-78425000D01*
X76525000Y-78425000D01*
X76525000Y-78125000D01*
X76975000Y-78125000D01*
X76975000Y-77901128D01*
X76974999Y-77901126D01*
X84115000Y-77901126D01*
X84115000Y-78125000D01*
X84565000Y-78125000D01*
X84565000Y-78425000D01*
X84115000Y-78425000D01*
X84115000Y-78648873D01*
X84143820Y-78793759D01*
X84143822Y-78793767D01*
X84200357Y-78930254D01*
X84200362Y-78930264D01*
X84282436Y-79053096D01*
X84282439Y-79053100D01*
X84386899Y-79157560D01*
X84386903Y-79157563D01*
X84509735Y-79239637D01*
X84509745Y-79239642D01*
X84646230Y-79296176D01*
X84646240Y-79296179D01*
X84714999Y-79309856D01*
X84715000Y-79309856D01*
X84715000Y-78834808D01*
X84749204Y-78854556D01*
X84825504Y-78875000D01*
X84904496Y-78875000D01*
X84980796Y-78854556D01*
X85015000Y-78834808D01*
X85015000Y-79309856D01*
X85083759Y-79296179D01*
X85083769Y-79296176D01*
X85220254Y-79239642D01*
X85220264Y-79239637D01*
X85343096Y-79157563D01*
X85343100Y-79157560D01*
X85447560Y-79053100D01*
X85447563Y-79053096D01*
X85529637Y-78930264D01*
X85529642Y-78930254D01*
X85586177Y-78793767D01*
X85586179Y-78793759D01*
X85614999Y-78648873D01*
X85615000Y-78648871D01*
X85615000Y-78425000D01*
X85165000Y-78425000D01*
X85165000Y-78125000D01*
X85615000Y-78125000D01*
X85615000Y-77901128D01*
X85614999Y-77901126D01*
X85586179Y-77756240D01*
X85586177Y-77756232D01*
X85529642Y-77619745D01*
X85529637Y-77619735D01*
X85447563Y-77496903D01*
X85447560Y-77496899D01*
X85343100Y-77392439D01*
X85343096Y-77392436D01*
X85220264Y-77310362D01*
X85220254Y-77310357D01*
X85083767Y-77253822D01*
X85083761Y-77253820D01*
X85015000Y-77240142D01*
X85015000Y-77715191D01*
X84980796Y-77695444D01*
X84904496Y-77675000D01*
X84825504Y-77675000D01*
X84749204Y-77695444D01*
X84715000Y-77715191D01*
X84715000Y-77240143D01*
X84714999Y-77240142D01*
X84646238Y-77253820D01*
X84646232Y-77253822D01*
X84509745Y-77310357D01*
X84509735Y-77310362D01*
X84386903Y-77392436D01*
X84386899Y-77392439D01*
X84282439Y-77496899D01*
X84282436Y-77496903D01*
X84200362Y-77619735D01*
X84200357Y-77619745D01*
X84143822Y-77756232D01*
X84143820Y-77756240D01*
X84115000Y-77901126D01*
X76974999Y-77901126D01*
X76946179Y-77756240D01*
X76946177Y-77756232D01*
X76889642Y-77619745D01*
X76889637Y-77619735D01*
X76807563Y-77496903D01*
X76807560Y-77496899D01*
X76703100Y-77392439D01*
X76703096Y-77392436D01*
X76580264Y-77310362D01*
X76580254Y-77310357D01*
X76443767Y-77253822D01*
X76443761Y-77253820D01*
X76375000Y-77240142D01*
X76375000Y-77715191D01*
X76340796Y-77695444D01*
X76264496Y-77675000D01*
X76185504Y-77675000D01*
X76109204Y-77695444D01*
X76075000Y-77715191D01*
X76075000Y-77240143D01*
X76074999Y-77240142D01*
X76006238Y-77253820D01*
X76006232Y-77253822D01*
X75869745Y-77310357D01*
X75869735Y-77310362D01*
X75746903Y-77392436D01*
X75746899Y-77392439D01*
X75642439Y-77496899D01*
X75642436Y-77496903D01*
X75560362Y-77619735D01*
X75560357Y-77619745D01*
X75503822Y-77756232D01*
X75503820Y-77756240D01*
X75475000Y-77901126D01*
X74210741Y-77901126D01*
X74211658Y-77898913D01*
X74238558Y-77763681D01*
X74240500Y-77753920D01*
X74240500Y-77606079D01*
X74211659Y-77461092D01*
X74211658Y-77461091D01*
X74211658Y-77461087D01*
X74183222Y-77392436D01*
X74155087Y-77324511D01*
X74155080Y-77324498D01*
X74104440Y-77248710D01*
X74083562Y-77182032D01*
X74102047Y-77114652D01*
X74121288Y-77090733D01*
X74410924Y-76810319D01*
X74963941Y-76274912D01*
X75025797Y-76242423D01*
X75050192Y-76240000D01*
X86888638Y-76240000D01*
X86955677Y-76259685D01*
G37*
%TD.AperFunction*%
%TA.AperFunction,Conductor*%
G36*
X75900539Y-90419685D02*
G01*
X75946294Y-90472489D01*
X75957500Y-90524000D01*
X75957500Y-90774999D01*
X75966746Y-90774999D01*
X76033785Y-90794684D01*
X76079540Y-90847488D01*
X76089484Y-90916646D01*
X76060459Y-90980202D01*
X76054427Y-90986680D01*
X75639522Y-91401584D01*
X75639518Y-91401590D01*
X75586792Y-91492912D01*
X75586793Y-91492913D01*
X75559500Y-91594773D01*
X75559500Y-95310245D01*
X75539815Y-95377284D01*
X75523181Y-95397926D01*
X75103272Y-95817834D01*
X75103268Y-95817840D01*
X75050542Y-95909163D01*
X75050541Y-95909165D01*
X75039735Y-95949498D01*
X75039735Y-95949500D01*
X75023250Y-96011023D01*
X75023250Y-97096291D01*
X75003565Y-97163330D01*
X74950761Y-97209085D01*
X74881603Y-97219029D01*
X74824939Y-97195558D01*
X74752331Y-97141204D01*
X74752328Y-97141202D01*
X74617486Y-97090910D01*
X74617485Y-97090909D01*
X74617483Y-97090909D01*
X74557873Y-97084500D01*
X74557863Y-97084500D01*
X73962129Y-97084500D01*
X73962123Y-97084501D01*
X73902516Y-97090908D01*
X73767671Y-97141202D01*
X73767664Y-97141206D01*
X73652455Y-97227452D01*
X73652452Y-97227455D01*
X73566206Y-97342664D01*
X73566202Y-97342671D01*
X73515908Y-97477517D01*
X73509501Y-97537116D01*
X73509500Y-97537135D01*
X73509500Y-98582870D01*
X73509501Y-98582876D01*
X73515908Y-98642483D01*
X73566202Y-98777328D01*
X73566206Y-98777335D01*
X73652452Y-98892544D01*
X73652455Y-98892547D01*
X73767664Y-98978793D01*
X73767671Y-98978797D01*
X73812618Y-98995561D01*
X73902517Y-99029091D01*
X73962127Y-99035500D01*
X74557872Y-99035499D01*
X74617483Y-99029091D01*
X74752331Y-98978796D01*
X74867546Y-98892546D01*
X74937988Y-98798446D01*
X74952260Y-98787763D01*
X74962944Y-98773492D01*
X74979647Y-98767261D01*
X74993921Y-98756577D01*
X75011704Y-98755305D01*
X75028408Y-98749075D01*
X75045829Y-98752864D01*
X75063613Y-98751593D01*
X75079260Y-98760137D01*
X75096681Y-98763927D01*
X75124935Y-98785078D01*
X75177800Y-98837943D01*
X75211285Y-98899266D01*
X75206301Y-98968958D01*
X75177800Y-99013305D01*
X74942924Y-99248181D01*
X74881601Y-99281666D01*
X74855244Y-99284500D01*
X74710819Y-99284500D01*
X74665243Y-99290500D01*
X74665236Y-99290502D01*
X74565200Y-99337150D01*
X74487150Y-99415200D01*
X74440500Y-99515241D01*
X74434501Y-99560811D01*
X74434500Y-99560827D01*
X74434500Y-99635500D01*
X74414815Y-99702539D01*
X74362011Y-99748294D01*
X74310500Y-99759500D01*
X72567273Y-99759500D01*
X72465413Y-99786793D01*
X72465412Y-99786793D01*
X72465410Y-99786794D01*
X72465409Y-99786794D01*
X72463517Y-99787887D01*
X72461405Y-99788452D01*
X72457899Y-99789905D01*
X72457707Y-99789443D01*
X72401517Y-99804500D01*
X70875323Y-99804500D01*
X70802264Y-99819032D01*
X70802260Y-99819033D01*
X70719396Y-99874401D01*
X70712181Y-99881617D01*
X70650858Y-99915102D01*
X70581166Y-99910118D01*
X70525233Y-99868246D01*
X70500816Y-99802782D01*
X70500500Y-99793936D01*
X70500500Y-98582844D01*
X71610000Y-98582844D01*
X71616401Y-98642372D01*
X71616403Y-98642379D01*
X71666645Y-98777086D01*
X71666649Y-98777093D01*
X71752809Y-98892187D01*
X71752812Y-98892190D01*
X71867906Y-98978350D01*
X71867913Y-98978354D01*
X72002620Y-99028596D01*
X72002627Y-99028598D01*
X72062155Y-99034999D01*
X72062172Y-99035000D01*
X72210000Y-99035000D01*
X72510000Y-99035000D01*
X72657828Y-99035000D01*
X72657844Y-99034999D01*
X72717372Y-99028598D01*
X72717379Y-99028596D01*
X72852086Y-98978354D01*
X72852093Y-98978350D01*
X72967187Y-98892190D01*
X72967190Y-98892187D01*
X73053350Y-98777093D01*
X73053354Y-98777086D01*
X73103596Y-98642379D01*
X73103598Y-98642372D01*
X73109999Y-98582844D01*
X73110000Y-98582827D01*
X73110000Y-98210000D01*
X72510000Y-98210000D01*
X72510000Y-99035000D01*
X72210000Y-99035000D01*
X72210000Y-98210000D01*
X71610000Y-98210000D01*
X71610000Y-98582844D01*
X70500500Y-98582844D01*
X70500500Y-97537155D01*
X71610000Y-97537155D01*
X71610000Y-97910000D01*
X72210000Y-97910000D01*
X72510000Y-97910000D01*
X73110000Y-97910000D01*
X73110000Y-97537172D01*
X73109999Y-97537155D01*
X73103598Y-97477627D01*
X73103596Y-97477620D01*
X73053354Y-97342913D01*
X73053350Y-97342906D01*
X72967190Y-97227812D01*
X72967187Y-97227809D01*
X72852093Y-97141649D01*
X72852086Y-97141645D01*
X72717379Y-97091403D01*
X72717372Y-97091401D01*
X72657844Y-97085000D01*
X72510000Y-97085000D01*
X72510000Y-97910000D01*
X72210000Y-97910000D01*
X72210000Y-97085000D01*
X72062155Y-97085000D01*
X72002627Y-97091401D01*
X72002620Y-97091403D01*
X71867913Y-97141645D01*
X71867906Y-97141649D01*
X71752812Y-97227809D01*
X71752809Y-97227812D01*
X71666649Y-97342906D01*
X71666645Y-97342913D01*
X71616403Y-97477620D01*
X71616401Y-97477627D01*
X71610000Y-97537155D01*
X70500500Y-97537155D01*
X70500500Y-94437676D01*
X70520185Y-94370637D01*
X70572989Y-94324882D01*
X70642147Y-94314938D01*
X70705703Y-94343963D01*
X70712181Y-94349995D01*
X71717089Y-95354903D01*
X71743965Y-95395121D01*
X71747015Y-95402482D01*
X71747016Y-95402485D01*
X71819491Y-95528015D01*
X71921985Y-95630509D01*
X71921986Y-95630510D01*
X71921988Y-95630511D01*
X72047511Y-95702982D01*
X72047512Y-95702982D01*
X72047515Y-95702984D01*
X72187525Y-95740500D01*
X72187528Y-95740500D01*
X72332473Y-95740500D01*
X72332475Y-95740500D01*
X72465988Y-95704725D01*
X72498081Y-95700500D01*
X73795890Y-95700500D01*
X73795892Y-95700500D01*
X73923186Y-95666392D01*
X74037314Y-95600500D01*
X75100500Y-94537314D01*
X75166392Y-94423186D01*
X75200500Y-94295893D01*
X75200500Y-94164108D01*
X75200500Y-90882105D01*
X75220185Y-90815066D01*
X75272989Y-90769311D01*
X75342147Y-90759367D01*
X75366212Y-90766538D01*
X75366266Y-90766355D01*
X75375372Y-90769009D01*
X75420876Y-90774999D01*
X75707499Y-90774999D01*
X75707500Y-90774998D01*
X75707500Y-90524000D01*
X75710050Y-90515314D01*
X75708762Y-90506353D01*
X75719740Y-90482312D01*
X75727185Y-90456961D01*
X75734025Y-90451033D01*
X75737787Y-90442797D01*
X75760021Y-90428507D01*
X75779989Y-90411206D01*
X75790503Y-90408918D01*
X75796565Y-90405023D01*
X75831500Y-90400000D01*
X75833500Y-90400000D01*
X75900539Y-90419685D01*
G37*
%TD.AperFunction*%
%TA.AperFunction,Conductor*%
G36*
X77822401Y-88869859D02*
G01*
X77875240Y-88894499D01*
X77916354Y-88899911D01*
X77918961Y-88900370D01*
X77947978Y-88914730D01*
X77977581Y-88927825D01*
X77979103Y-88930133D01*
X77981582Y-88931360D01*
X77998230Y-88959129D01*
X78016053Y-88986149D01*
X78016977Y-88990400D01*
X78017508Y-88991285D01*
X78017465Y-88992642D01*
X78020440Y-89006315D01*
X78025500Y-89044756D01*
X78025503Y-89044766D01*
X78050138Y-89097596D01*
X78060630Y-89166673D01*
X78050139Y-89202403D01*
X78030768Y-89243946D01*
X78025500Y-89255243D01*
X78019501Y-89300811D01*
X78019500Y-89300827D01*
X78019500Y-89499180D01*
X78025500Y-89544756D01*
X78025503Y-89544766D01*
X78050138Y-89597596D01*
X78060630Y-89666673D01*
X78050139Y-89702404D01*
X78025500Y-89755243D01*
X78019501Y-89800811D01*
X78019500Y-89800827D01*
X78019501Y-89999178D01*
X78025500Y-90044756D01*
X78025503Y-90044766D01*
X78050138Y-90097596D01*
X78054352Y-90125344D01*
X78061732Y-90152424D01*
X78059758Y-90160933D01*
X78060630Y-90166673D01*
X78056027Y-90187254D01*
X78053578Y-90195028D01*
X78025501Y-90255240D01*
X78019500Y-90300821D01*
X78019500Y-90303216D01*
X78015703Y-90315271D01*
X78002033Y-90335654D01*
X77992104Y-90358099D01*
X77982917Y-90364158D01*
X77976787Y-90373300D01*
X77954266Y-90383057D01*
X77933780Y-90396570D01*
X77913616Y-90400956D01*
X77875375Y-90405990D01*
X77875372Y-90405990D01*
X77822404Y-90430690D01*
X77753326Y-90441181D01*
X77717596Y-90430689D01*
X77664632Y-90405991D01*
X77645000Y-90403406D01*
X77645000Y-90962500D01*
X77895000Y-90962500D01*
X77895000Y-90767011D01*
X77901238Y-90745765D01*
X77902818Y-90723677D01*
X77910890Y-90712893D01*
X77914685Y-90699972D01*
X77931418Y-90685472D01*
X77944690Y-90667744D01*
X77957310Y-90663036D01*
X77967489Y-90654217D01*
X77989406Y-90651065D01*
X78010154Y-90643327D01*
X78023314Y-90646189D01*
X78036647Y-90644273D01*
X78056790Y-90653472D01*
X78078427Y-90658179D01*
X78096152Y-90671447D01*
X78100203Y-90673298D01*
X78106681Y-90679330D01*
X78108681Y-90681330D01*
X78142166Y-90742653D01*
X78145000Y-90769011D01*
X78145000Y-91771591D01*
X78166821Y-91768720D01*
X78235856Y-91779489D01*
X78288109Y-91825872D01*
X78307000Y-91891660D01*
X78307000Y-92441016D01*
X78303103Y-92455946D01*
X78303877Y-92468672D01*
X78294501Y-92488912D01*
X78291189Y-92501607D01*
X78287183Y-92508758D01*
X78245497Y-92564446D01*
X78224561Y-92620574D01*
X78219903Y-92628893D01*
X78201474Y-92646930D01*
X78186023Y-92667570D01*
X78176916Y-92670966D01*
X78169970Y-92677765D01*
X78144717Y-92682975D01*
X78120558Y-92691986D01*
X78111061Y-92689919D01*
X78101542Y-92691884D01*
X78077480Y-92682614D01*
X78052286Y-92677133D01*
X78045413Y-92670260D01*
X78036343Y-92666766D01*
X78021111Y-92645958D01*
X78002881Y-92627727D01*
X77995532Y-92611634D01*
X77983798Y-92580173D01*
X77983793Y-92580164D01*
X77897547Y-92464955D01*
X77897544Y-92464952D01*
X77782335Y-92378706D01*
X77782328Y-92378702D01*
X77647482Y-92328408D01*
X77647483Y-92328408D01*
X77587883Y-92322001D01*
X77587881Y-92322000D01*
X77587873Y-92322000D01*
X77587864Y-92322000D01*
X76592129Y-92322000D01*
X76592123Y-92322001D01*
X76532516Y-92328408D01*
X76527826Y-92330158D01*
X76458134Y-92335138D01*
X76396813Y-92301649D01*
X76363332Y-92240323D01*
X76360500Y-92213973D01*
X76360500Y-91899499D01*
X76380185Y-91832460D01*
X76432989Y-91786705D01*
X76484496Y-91775499D01*
X76619178Y-91775499D01*
X76619180Y-91775499D01*
X76634372Y-91773499D01*
X76664760Y-91769499D01*
X76718187Y-91744585D01*
X76787262Y-91734093D01*
X76822997Y-91744585D01*
X76875374Y-91769009D01*
X76894998Y-91771593D01*
X76895000Y-91771592D01*
X76895000Y-91510868D01*
X76895265Y-91502759D01*
X76895497Y-91499199D01*
X76895500Y-91499179D01*
X76895499Y-91249853D01*
X76899495Y-91219503D01*
X77137996Y-91219503D01*
X77144965Y-91241307D01*
X77145000Y-91244253D01*
X77145000Y-91771591D01*
X77145001Y-91771591D01*
X77164626Y-91769009D01*
X77164629Y-91769008D01*
X77217593Y-91744310D01*
X77286671Y-91733817D01*
X77322407Y-91744310D01*
X77375370Y-91769008D01*
X77375375Y-91769009D01*
X77394998Y-91771593D01*
X77395000Y-91771592D01*
X77395000Y-91771591D01*
X77645000Y-91771591D01*
X77645001Y-91771591D01*
X77664626Y-91769009D01*
X77664629Y-91769008D01*
X77717593Y-91744310D01*
X77786671Y-91733817D01*
X77822407Y-91744310D01*
X77875370Y-91769008D01*
X77875375Y-91769009D01*
X77894998Y-91771593D01*
X77895000Y-91771592D01*
X77895000Y-91212500D01*
X77645000Y-91212500D01*
X77645000Y-91771591D01*
X77395000Y-91771591D01*
X77395000Y-91212500D01*
X77145000Y-91212500D01*
X77137996Y-91219503D01*
X76899495Y-91219503D01*
X76899724Y-91217762D01*
X76901227Y-91212152D01*
X76925491Y-91172347D01*
X76922372Y-91150653D01*
X76920817Y-91146483D01*
X76920501Y-91137637D01*
X76920501Y-91037363D01*
X76929120Y-91008007D01*
X76915118Y-90995278D01*
X76903278Y-90967629D01*
X76902023Y-90965676D01*
X76901225Y-90962834D01*
X76899724Y-90957232D01*
X76899679Y-90956888D01*
X77139388Y-90956888D01*
X77145000Y-90962500D01*
X77395000Y-90962500D01*
X77395000Y-90403407D01*
X77394998Y-90403406D01*
X77375375Y-90405990D01*
X77375372Y-90405990D01*
X77322404Y-90430690D01*
X77253326Y-90441181D01*
X77217596Y-90430689D01*
X77164632Y-90405991D01*
X77145000Y-90403406D01*
X77145000Y-90930741D01*
X77139570Y-90949230D01*
X77139388Y-90956888D01*
X76899679Y-90956888D01*
X76895499Y-90925139D01*
X76895499Y-90675817D01*
X76895266Y-90672264D01*
X76895000Y-90664152D01*
X76895000Y-90403407D01*
X76894998Y-90403406D01*
X76875375Y-90405990D01*
X76875367Y-90405992D01*
X76822995Y-90430414D01*
X76795210Y-90434634D01*
X76768088Y-90442007D01*
X76759620Y-90440039D01*
X76753918Y-90440906D01*
X76733262Y-90436280D01*
X76725533Y-90433840D01*
X76664760Y-90405501D01*
X76619179Y-90399500D01*
X76616753Y-90399500D01*
X76604653Y-90395680D01*
X76584306Y-90382016D01*
X76561900Y-90372104D01*
X76555819Y-90362885D01*
X76546649Y-90356727D01*
X76536920Y-90334234D01*
X76523429Y-90313780D01*
X76519042Y-90293614D01*
X76514008Y-90255371D01*
X76489585Y-90202997D01*
X76479093Y-90133920D01*
X76489582Y-90098193D01*
X76514499Y-90044760D01*
X76520500Y-89999179D01*
X76520499Y-89800822D01*
X76514499Y-89755240D01*
X76489860Y-89702403D01*
X76479369Y-89633327D01*
X76489858Y-89597601D01*
X76514499Y-89544760D01*
X76520500Y-89499179D01*
X76520499Y-89300822D01*
X76514499Y-89255240D01*
X76489860Y-89202403D01*
X76485640Y-89174616D01*
X76478268Y-89147491D01*
X76480234Y-89139026D01*
X76479369Y-89133327D01*
X76483997Y-89112665D01*
X76486434Y-89104943D01*
X76514499Y-89044760D01*
X76520500Y-88999179D01*
X76520499Y-88997050D01*
X76524253Y-88985164D01*
X76537913Y-88964823D01*
X76547825Y-88942418D01*
X76557047Y-88936334D01*
X76563208Y-88927162D01*
X76585696Y-88917436D01*
X76606148Y-88903946D01*
X76626304Y-88899560D01*
X76664760Y-88894499D01*
X76717597Y-88869860D01*
X76786671Y-88859369D01*
X76822401Y-88869859D01*
X76875240Y-88894499D01*
X76920821Y-88900500D01*
X77119178Y-88900499D01*
X77119180Y-88900499D01*
X77134372Y-88898499D01*
X77164760Y-88894499D01*
X77217597Y-88869860D01*
X77286671Y-88859369D01*
X77322401Y-88869859D01*
X77375240Y-88894499D01*
X77420821Y-88900500D01*
X77619178Y-88900499D01*
X77619180Y-88900499D01*
X77634372Y-88898499D01*
X77664760Y-88894499D01*
X77717597Y-88869860D01*
X77786671Y-88859369D01*
X77822401Y-88869859D01*
G37*
%TD.AperFunction*%
%TA.AperFunction,Conductor*%
G36*
X78530781Y-85904910D02*
G01*
X78546426Y-85904352D01*
X78563619Y-85914553D01*
X78582799Y-85920185D01*
X78593049Y-85932014D01*
X78606515Y-85940004D01*
X78615464Y-85957883D01*
X78628554Y-85972989D01*
X78631200Y-85989318D01*
X78637790Y-86002483D01*
X78639050Y-86037752D01*
X78639050Y-86037755D01*
X78637500Y-86052171D01*
X78637500Y-86400000D01*
X80162500Y-86400000D01*
X80162500Y-86052172D01*
X80162499Y-86052171D01*
X80160950Y-86037755D01*
X80163729Y-86022347D01*
X80161502Y-86006853D01*
X80169806Y-85988668D01*
X80173356Y-85968996D01*
X80184023Y-85957538D01*
X80190527Y-85943297D01*
X80207343Y-85932489D01*
X80220966Y-85917858D01*
X80236922Y-85913480D01*
X80249305Y-85905523D01*
X80284240Y-85900500D01*
X80366331Y-85900500D01*
X80433370Y-85920185D01*
X80479125Y-85972989D01*
X80489620Y-86037752D01*
X80487000Y-86062127D01*
X80487000Y-86062128D01*
X80487000Y-86062132D01*
X80487000Y-86576323D01*
X80478355Y-86605763D01*
X80471832Y-86635750D01*
X80468077Y-86640765D01*
X80467315Y-86643362D01*
X80450681Y-86664004D01*
X80374181Y-86740504D01*
X80312858Y-86773989D01*
X80243166Y-86769005D01*
X80199112Y-86736025D01*
X80198819Y-86736319D01*
X80196779Y-86734279D01*
X80187233Y-86727133D01*
X80185805Y-86723305D01*
X80162500Y-86700000D01*
X78637500Y-86700000D01*
X78637500Y-87047844D01*
X78643901Y-87107372D01*
X78643903Y-87107379D01*
X78694145Y-87242086D01*
X78694149Y-87242093D01*
X78780309Y-87357187D01*
X78780312Y-87357190D01*
X78895406Y-87443350D01*
X78895413Y-87443354D01*
X78971728Y-87471818D01*
X79027662Y-87513689D01*
X79052079Y-87579154D01*
X79037227Y-87647427D01*
X78987822Y-87696832D01*
X78928395Y-87712000D01*
X78447171Y-87712000D01*
X78380132Y-87692315D01*
X78367317Y-87682865D01*
X78348276Y-87666837D01*
X78342850Y-87655201D01*
X78264799Y-87577150D01*
X78213074Y-87553030D01*
X78200510Y-87542454D01*
X78189912Y-87526471D01*
X78175519Y-87513798D01*
X78171003Y-87497953D01*
X78161899Y-87484223D01*
X78161624Y-87465047D01*
X78156368Y-87446604D01*
X78161134Y-87430833D01*
X78160899Y-87414360D01*
X78171034Y-87398080D01*
X78176584Y-87379723D01*
X78192688Y-87359903D01*
X78195038Y-87357551D01*
X78195046Y-87357546D01*
X78281296Y-87242331D01*
X78331591Y-87107483D01*
X78338000Y-87047873D01*
X78337999Y-86052128D01*
X78336454Y-86037752D01*
X78348861Y-85968993D01*
X78396473Y-85917857D01*
X78459744Y-85900500D01*
X78515760Y-85900500D01*
X78530781Y-85904910D01*
G37*
%TD.AperFunction*%
%TD*%
M02*
