%TF.GenerationSoftware,KiCad,Pcbnew,10.0.3*%
%TF.CreationDate,2026-07-19T19:03:14+03:00*%
%TF.ProjectId,photometer3,70686f74-6f6d-4657-9465-72332e6b6963,rev?*%
%TF.SameCoordinates,Original*%
%TF.FileFunction,Legend,Bot*%
%TF.FilePolarity,Positive*%
%FSLAX46Y46*%
G04 Gerber Fmt 4.6, Leading zero omitted, Abs format (unit mm)*
G04 Created by KiCad (PCBNEW 10.0.3) date 2026-07-19 19:03:14*
%MOMM*%
%LPD*%
G01*
G04 APERTURE LIST*
G04 Aperture macros list*
%AMRoundRect*
0 Rectangle with rounded corners*
0 $1 Rounding radius*
0 $2 $3 $4 $5 $6 $7 $8 $9 X,Y pos of 4 corners*
0 Add a 4 corners polygon primitive as box body*
4,1,4,$2,$3,$4,$5,$6,$7,$8,$9,$2,$3,0*
0 Add four circle primitives for the rounded corners*
1,1,$1+$1,$2,$3*
1,1,$1+$1,$4,$5*
1,1,$1+$1,$6,$7*
1,1,$1+$1,$8,$9*
0 Add four rect primitives between the rounded corners*
20,1,$1+$1,$2,$3,$4,$5,0*
20,1,$1+$1,$4,$5,$6,$7,0*
20,1,$1+$1,$6,$7,$8,$9,0*
20,1,$1+$1,$8,$9,$2,$3,0*%
G04 Aperture macros list end*
%ADD10C,0.150000*%
%ADD11C,0.300000*%
%ADD12C,0.400000*%
%ADD13C,0.120000*%
%ADD14C,0.650000*%
%ADD15O,1.000000X2.100000*%
%ADD16O,1.000000X1.600000*%
%ADD17C,3.200000*%
%ADD18RoundRect,0.200000X0.450000X-0.200000X0.450000X0.200000X-0.450000X0.200000X-0.450000X-0.200000X0*%
%ADD19O,1.300000X0.800000*%
%ADD20R,1.000000X1.000000*%
%ADD21C,1.000000*%
%ADD22C,1.800000*%
%ADD23RoundRect,0.250000X0.450000X-0.262500X0.450000X0.262500X-0.450000X0.262500X-0.450000X-0.262500X0*%
%ADD24RoundRect,0.250000X-0.250000X-0.475000X0.250000X-0.475000X0.250000X0.475000X-0.250000X0.475000X0*%
%ADD25R,1.500000X0.900000*%
%ADD26R,0.900000X1.500000*%
%ADD27R,0.900000X0.900000*%
%ADD28C,0.600000*%
%ADD29RoundRect,0.150000X0.150000X-0.825000X0.150000X0.825000X-0.150000X0.825000X-0.150000X-0.825000X0*%
%ADD30RoundRect,0.250000X0.475000X-0.250000X0.475000X0.250000X-0.475000X0.250000X-0.475000X-0.250000X0*%
%ADD31RoundRect,0.250000X-0.400000X-0.600000X0.400000X-0.600000X0.400000X0.600000X-0.400000X0.600000X0*%
%ADD32RoundRect,0.250000X-0.450000X0.262500X-0.450000X-0.262500X0.450000X-0.262500X0.450000X0.262500X0*%
%ADD33RoundRect,0.250000X0.262500X0.450000X-0.262500X0.450000X-0.262500X-0.450000X0.262500X-0.450000X0*%
%ADD34RoundRect,0.250000X0.250000X0.475000X-0.250000X0.475000X-0.250000X-0.475000X0.250000X-0.475000X0*%
%ADD35RoundRect,0.243750X0.456250X-0.243750X0.456250X0.243750X-0.456250X0.243750X-0.456250X-0.243750X0*%
%ADD36RoundRect,0.250000X-0.262500X-0.450000X0.262500X-0.450000X0.262500X0.450000X-0.262500X0.450000X0*%
%ADD37RoundRect,0.250000X-0.475000X0.250000X-0.475000X-0.250000X0.475000X-0.250000X0.475000X0.250000X0*%
%ADD38RoundRect,0.100000X-0.637500X-0.100000X0.637500X-0.100000X0.637500X0.100000X-0.637500X0.100000X0*%
G04 APERTURE END LIST*
D10*
X177002200Y-166007200D02*
X285002200Y-166007200D01*
X285002200Y-198007200D01*
X177002200Y-198007200D01*
X177002200Y-166007200D01*
X10000000Y-10000000D02*
X287002200Y-10000000D01*
X287002200Y-200007200D01*
X10000000Y-200007200D01*
X10000000Y-10000000D01*
X12000000Y-12000000D02*
X285002200Y-12000000D01*
X285002200Y-198007200D01*
X12000000Y-198007200D01*
X12000000Y-12000000D01*
X60000000Y-12000000D02*
X60000000Y-10000000D01*
X110000000Y-12000000D02*
X110000000Y-10000000D01*
X160000000Y-12000000D02*
X160000000Y-10000000D01*
X210000000Y-12000000D02*
X210000000Y-10000000D01*
X260000000Y-12000000D02*
X260000000Y-10000000D01*
X36089160Y-11593604D02*
X35346303Y-11593604D01*
X35717731Y-11593604D02*
X35717731Y-10293604D01*
X35717731Y-10293604D02*
X35593922Y-10479319D01*
X35593922Y-10479319D02*
X35470112Y-10603128D01*
X35470112Y-10603128D02*
X35346303Y-10665033D01*
X85346303Y-10417414D02*
X85408207Y-10355509D01*
X85408207Y-10355509D02*
X85532017Y-10293604D01*
X85532017Y-10293604D02*
X85841541Y-10293604D01*
X85841541Y-10293604D02*
X85965350Y-10355509D01*
X85965350Y-10355509D02*
X86027255Y-10417414D01*
X86027255Y-10417414D02*
X86089160Y-10541223D01*
X86089160Y-10541223D02*
X86089160Y-10665033D01*
X86089160Y-10665033D02*
X86027255Y-10850747D01*
X86027255Y-10850747D02*
X85284398Y-11593604D01*
X85284398Y-11593604D02*
X86089160Y-11593604D01*
X135284398Y-10293604D02*
X136089160Y-10293604D01*
X136089160Y-10293604D02*
X135655826Y-10788842D01*
X135655826Y-10788842D02*
X135841541Y-10788842D01*
X135841541Y-10788842D02*
X135965350Y-10850747D01*
X135965350Y-10850747D02*
X136027255Y-10912652D01*
X136027255Y-10912652D02*
X136089160Y-11036461D01*
X136089160Y-11036461D02*
X136089160Y-11345985D01*
X136089160Y-11345985D02*
X136027255Y-11469795D01*
X136027255Y-11469795D02*
X135965350Y-11531700D01*
X135965350Y-11531700D02*
X135841541Y-11593604D01*
X135841541Y-11593604D02*
X135470112Y-11593604D01*
X135470112Y-11593604D02*
X135346303Y-11531700D01*
X135346303Y-11531700D02*
X135284398Y-11469795D01*
X185965350Y-10726938D02*
X185965350Y-11593604D01*
X185655826Y-10231700D02*
X185346303Y-11160271D01*
X185346303Y-11160271D02*
X186151064Y-11160271D01*
X236027255Y-10293604D02*
X235408207Y-10293604D01*
X235408207Y-10293604D02*
X235346303Y-10912652D01*
X235346303Y-10912652D02*
X235408207Y-10850747D01*
X235408207Y-10850747D02*
X235532017Y-10788842D01*
X235532017Y-10788842D02*
X235841541Y-10788842D01*
X235841541Y-10788842D02*
X235965350Y-10850747D01*
X235965350Y-10850747D02*
X236027255Y-10912652D01*
X236027255Y-10912652D02*
X236089160Y-11036461D01*
X236089160Y-11036461D02*
X236089160Y-11345985D01*
X236089160Y-11345985D02*
X236027255Y-11469795D01*
X236027255Y-11469795D02*
X235965350Y-11531700D01*
X235965350Y-11531700D02*
X235841541Y-11593604D01*
X235841541Y-11593604D02*
X235532017Y-11593604D01*
X235532017Y-11593604D02*
X235408207Y-11531700D01*
X235408207Y-11531700D02*
X235346303Y-11469795D01*
X285965350Y-10293604D02*
X285717731Y-10293604D01*
X285717731Y-10293604D02*
X285593922Y-10355509D01*
X285593922Y-10355509D02*
X285532017Y-10417414D01*
X285532017Y-10417414D02*
X285408207Y-10603128D01*
X285408207Y-10603128D02*
X285346303Y-10850747D01*
X285346303Y-10850747D02*
X285346303Y-11345985D01*
X285346303Y-11345985D02*
X285408207Y-11469795D01*
X285408207Y-11469795D02*
X285470112Y-11531700D01*
X285470112Y-11531700D02*
X285593922Y-11593604D01*
X285593922Y-11593604D02*
X285841541Y-11593604D01*
X285841541Y-11593604D02*
X285965350Y-11531700D01*
X285965350Y-11531700D02*
X286027255Y-11469795D01*
X286027255Y-11469795D02*
X286089160Y-11345985D01*
X286089160Y-11345985D02*
X286089160Y-11036461D01*
X286089160Y-11036461D02*
X286027255Y-10912652D01*
X286027255Y-10912652D02*
X285965350Y-10850747D01*
X285965350Y-10850747D02*
X285841541Y-10788842D01*
X285841541Y-10788842D02*
X285593922Y-10788842D01*
X285593922Y-10788842D02*
X285470112Y-10850747D01*
X285470112Y-10850747D02*
X285408207Y-10912652D01*
X285408207Y-10912652D02*
X285346303Y-11036461D01*
X60000000Y-198007200D02*
X60000000Y-200007200D01*
X110000000Y-198007200D02*
X110000000Y-200007200D01*
X160000000Y-198007200D02*
X160000000Y-200007200D01*
X210000000Y-198007200D02*
X210000000Y-200007200D01*
X260000000Y-198007200D02*
X260000000Y-200007200D01*
X36089160Y-199600804D02*
X35346303Y-199600804D01*
X35717731Y-199600804D02*
X35717731Y-198300804D01*
X35717731Y-198300804D02*
X35593922Y-198486519D01*
X35593922Y-198486519D02*
X35470112Y-198610328D01*
X35470112Y-198610328D02*
X35346303Y-198672233D01*
X85346303Y-198424614D02*
X85408207Y-198362709D01*
X85408207Y-198362709D02*
X85532017Y-198300804D01*
X85532017Y-198300804D02*
X85841541Y-198300804D01*
X85841541Y-198300804D02*
X85965350Y-198362709D01*
X85965350Y-198362709D02*
X86027255Y-198424614D01*
X86027255Y-198424614D02*
X86089160Y-198548423D01*
X86089160Y-198548423D02*
X86089160Y-198672233D01*
X86089160Y-198672233D02*
X86027255Y-198857947D01*
X86027255Y-198857947D02*
X85284398Y-199600804D01*
X85284398Y-199600804D02*
X86089160Y-199600804D01*
X135284398Y-198300804D02*
X136089160Y-198300804D01*
X136089160Y-198300804D02*
X135655826Y-198796042D01*
X135655826Y-198796042D02*
X135841541Y-198796042D01*
X135841541Y-198796042D02*
X135965350Y-198857947D01*
X135965350Y-198857947D02*
X136027255Y-198919852D01*
X136027255Y-198919852D02*
X136089160Y-199043661D01*
X136089160Y-199043661D02*
X136089160Y-199353185D01*
X136089160Y-199353185D02*
X136027255Y-199476995D01*
X136027255Y-199476995D02*
X135965350Y-199538900D01*
X135965350Y-199538900D02*
X135841541Y-199600804D01*
X135841541Y-199600804D02*
X135470112Y-199600804D01*
X135470112Y-199600804D02*
X135346303Y-199538900D01*
X135346303Y-199538900D02*
X135284398Y-199476995D01*
X185965350Y-198734138D02*
X185965350Y-199600804D01*
X185655826Y-198238900D02*
X185346303Y-199167471D01*
X185346303Y-199167471D02*
X186151064Y-199167471D01*
X236027255Y-198300804D02*
X235408207Y-198300804D01*
X235408207Y-198300804D02*
X235346303Y-198919852D01*
X235346303Y-198919852D02*
X235408207Y-198857947D01*
X235408207Y-198857947D02*
X235532017Y-198796042D01*
X235532017Y-198796042D02*
X235841541Y-198796042D01*
X235841541Y-198796042D02*
X235965350Y-198857947D01*
X235965350Y-198857947D02*
X236027255Y-198919852D01*
X236027255Y-198919852D02*
X236089160Y-199043661D01*
X236089160Y-199043661D02*
X236089160Y-199353185D01*
X236089160Y-199353185D02*
X236027255Y-199476995D01*
X236027255Y-199476995D02*
X235965350Y-199538900D01*
X235965350Y-199538900D02*
X235841541Y-199600804D01*
X235841541Y-199600804D02*
X235532017Y-199600804D01*
X235532017Y-199600804D02*
X235408207Y-199538900D01*
X235408207Y-199538900D02*
X235346303Y-199476995D01*
X285965350Y-198300804D02*
X285717731Y-198300804D01*
X285717731Y-198300804D02*
X285593922Y-198362709D01*
X285593922Y-198362709D02*
X285532017Y-198424614D01*
X285532017Y-198424614D02*
X285408207Y-198610328D01*
X285408207Y-198610328D02*
X285346303Y-198857947D01*
X285346303Y-198857947D02*
X285346303Y-199353185D01*
X285346303Y-199353185D02*
X285408207Y-199476995D01*
X285408207Y-199476995D02*
X285470112Y-199538900D01*
X285470112Y-199538900D02*
X285593922Y-199600804D01*
X285593922Y-199600804D02*
X285841541Y-199600804D01*
X285841541Y-199600804D02*
X285965350Y-199538900D01*
X285965350Y-199538900D02*
X286027255Y-199476995D01*
X286027255Y-199476995D02*
X286089160Y-199353185D01*
X286089160Y-199353185D02*
X286089160Y-199043661D01*
X286089160Y-199043661D02*
X286027255Y-198919852D01*
X286027255Y-198919852D02*
X285965350Y-198857947D01*
X285965350Y-198857947D02*
X285841541Y-198796042D01*
X285841541Y-198796042D02*
X285593922Y-198796042D01*
X285593922Y-198796042D02*
X285470112Y-198857947D01*
X285470112Y-198857947D02*
X285408207Y-198919852D01*
X285408207Y-198919852D02*
X285346303Y-199043661D01*
X10000000Y-60000000D02*
X12000000Y-60000000D01*
X10000000Y-110000000D02*
X12000000Y-110000000D01*
X10000000Y-160000000D02*
X12000000Y-160000000D01*
X10690476Y-35222176D02*
X11309523Y-35222176D01*
X10566666Y-35593604D02*
X10999999Y-34293604D01*
X10999999Y-34293604D02*
X11433333Y-35593604D01*
X11092857Y-84912652D02*
X11278571Y-84974557D01*
X11278571Y-84974557D02*
X11340476Y-85036461D01*
X11340476Y-85036461D02*
X11402380Y-85160271D01*
X11402380Y-85160271D02*
X11402380Y-85345985D01*
X11402380Y-85345985D02*
X11340476Y-85469795D01*
X11340476Y-85469795D02*
X11278571Y-85531700D01*
X11278571Y-85531700D02*
X11154761Y-85593604D01*
X11154761Y-85593604D02*
X10659523Y-85593604D01*
X10659523Y-85593604D02*
X10659523Y-84293604D01*
X10659523Y-84293604D02*
X11092857Y-84293604D01*
X11092857Y-84293604D02*
X11216666Y-84355509D01*
X11216666Y-84355509D02*
X11278571Y-84417414D01*
X11278571Y-84417414D02*
X11340476Y-84541223D01*
X11340476Y-84541223D02*
X11340476Y-84665033D01*
X11340476Y-84665033D02*
X11278571Y-84788842D01*
X11278571Y-84788842D02*
X11216666Y-84850747D01*
X11216666Y-84850747D02*
X11092857Y-84912652D01*
X11092857Y-84912652D02*
X10659523Y-84912652D01*
X11402380Y-135469795D02*
X11340476Y-135531700D01*
X11340476Y-135531700D02*
X11154761Y-135593604D01*
X11154761Y-135593604D02*
X11030952Y-135593604D01*
X11030952Y-135593604D02*
X10845238Y-135531700D01*
X10845238Y-135531700D02*
X10721428Y-135407890D01*
X10721428Y-135407890D02*
X10659523Y-135284080D01*
X10659523Y-135284080D02*
X10597619Y-135036461D01*
X10597619Y-135036461D02*
X10597619Y-134850747D01*
X10597619Y-134850747D02*
X10659523Y-134603128D01*
X10659523Y-134603128D02*
X10721428Y-134479319D01*
X10721428Y-134479319D02*
X10845238Y-134355509D01*
X10845238Y-134355509D02*
X11030952Y-134293604D01*
X11030952Y-134293604D02*
X11154761Y-134293604D01*
X11154761Y-134293604D02*
X11340476Y-134355509D01*
X11340476Y-134355509D02*
X11402380Y-134417414D01*
X10659523Y-185593604D02*
X10659523Y-184293604D01*
X10659523Y-184293604D02*
X10969047Y-184293604D01*
X10969047Y-184293604D02*
X11154761Y-184355509D01*
X11154761Y-184355509D02*
X11278571Y-184479319D01*
X11278571Y-184479319D02*
X11340476Y-184603128D01*
X11340476Y-184603128D02*
X11402380Y-184850747D01*
X11402380Y-184850747D02*
X11402380Y-185036461D01*
X11402380Y-185036461D02*
X11340476Y-185284080D01*
X11340476Y-185284080D02*
X11278571Y-185407890D01*
X11278571Y-185407890D02*
X11154761Y-185531700D01*
X11154761Y-185531700D02*
X10969047Y-185593604D01*
X10969047Y-185593604D02*
X10659523Y-185593604D01*
X287002200Y-60000000D02*
X285002200Y-60000000D01*
X287002200Y-110000000D02*
X285002200Y-110000000D01*
X287002200Y-160000000D02*
X285002200Y-160000000D01*
X285692676Y-35222176D02*
X286311723Y-35222176D01*
X285568866Y-35593604D02*
X286002199Y-34293604D01*
X286002199Y-34293604D02*
X286435533Y-35593604D01*
X286095057Y-84912652D02*
X286280771Y-84974557D01*
X286280771Y-84974557D02*
X286342676Y-85036461D01*
X286342676Y-85036461D02*
X286404580Y-85160271D01*
X286404580Y-85160271D02*
X286404580Y-85345985D01*
X286404580Y-85345985D02*
X286342676Y-85469795D01*
X286342676Y-85469795D02*
X286280771Y-85531700D01*
X286280771Y-85531700D02*
X286156961Y-85593604D01*
X286156961Y-85593604D02*
X285661723Y-85593604D01*
X285661723Y-85593604D02*
X285661723Y-84293604D01*
X285661723Y-84293604D02*
X286095057Y-84293604D01*
X286095057Y-84293604D02*
X286218866Y-84355509D01*
X286218866Y-84355509D02*
X286280771Y-84417414D01*
X286280771Y-84417414D02*
X286342676Y-84541223D01*
X286342676Y-84541223D02*
X286342676Y-84665033D01*
X286342676Y-84665033D02*
X286280771Y-84788842D01*
X286280771Y-84788842D02*
X286218866Y-84850747D01*
X286218866Y-84850747D02*
X286095057Y-84912652D01*
X286095057Y-84912652D02*
X285661723Y-84912652D01*
X286404580Y-135469795D02*
X286342676Y-135531700D01*
X286342676Y-135531700D02*
X286156961Y-135593604D01*
X286156961Y-135593604D02*
X286033152Y-135593604D01*
X286033152Y-135593604D02*
X285847438Y-135531700D01*
X285847438Y-135531700D02*
X285723628Y-135407890D01*
X285723628Y-135407890D02*
X285661723Y-135284080D01*
X285661723Y-135284080D02*
X285599819Y-135036461D01*
X285599819Y-135036461D02*
X285599819Y-134850747D01*
X285599819Y-134850747D02*
X285661723Y-134603128D01*
X285661723Y-134603128D02*
X285723628Y-134479319D01*
X285723628Y-134479319D02*
X285847438Y-134355509D01*
X285847438Y-134355509D02*
X286033152Y-134293604D01*
X286033152Y-134293604D02*
X286156961Y-134293604D01*
X286156961Y-134293604D02*
X286342676Y-134355509D01*
X286342676Y-134355509D02*
X286404580Y-134417414D01*
X285661723Y-185593604D02*
X285661723Y-184293604D01*
X285661723Y-184293604D02*
X285971247Y-184293604D01*
X285971247Y-184293604D02*
X286156961Y-184355509D01*
X286156961Y-184355509D02*
X286280771Y-184479319D01*
X286280771Y-184479319D02*
X286342676Y-184603128D01*
X286342676Y-184603128D02*
X286404580Y-184850747D01*
X286404580Y-184850747D02*
X286404580Y-185036461D01*
X286404580Y-185036461D02*
X286342676Y-185284080D01*
X286342676Y-185284080D02*
X286280771Y-185407890D01*
X286280771Y-185407890D02*
X286156961Y-185531700D01*
X286156961Y-185531700D02*
X285971247Y-185593604D01*
X285971247Y-185593604D02*
X285661723Y-185593604D01*
X200458026Y-193793328D02*
X200458026Y-192293328D01*
X200458026Y-192293328D02*
X200815169Y-192293328D01*
X200815169Y-192293328D02*
X201029455Y-192364757D01*
X201029455Y-192364757D02*
X201172312Y-192507614D01*
X201172312Y-192507614D02*
X201243741Y-192650471D01*
X201243741Y-192650471D02*
X201315169Y-192936185D01*
X201315169Y-192936185D02*
X201315169Y-193150471D01*
X201315169Y-193150471D02*
X201243741Y-193436185D01*
X201243741Y-193436185D02*
X201172312Y-193579042D01*
X201172312Y-193579042D02*
X201029455Y-193721900D01*
X201029455Y-193721900D02*
X200815169Y-193793328D01*
X200815169Y-193793328D02*
X200458026Y-193793328D01*
X202600884Y-193793328D02*
X202600884Y-193007614D01*
X202600884Y-193007614D02*
X202529455Y-192864757D01*
X202529455Y-192864757D02*
X202386598Y-192793328D01*
X202386598Y-192793328D02*
X202100884Y-192793328D01*
X202100884Y-192793328D02*
X201958026Y-192864757D01*
X202600884Y-193721900D02*
X202458026Y-193793328D01*
X202458026Y-193793328D02*
X202100884Y-193793328D01*
X202100884Y-193793328D02*
X201958026Y-193721900D01*
X201958026Y-193721900D02*
X201886598Y-193579042D01*
X201886598Y-193579042D02*
X201886598Y-193436185D01*
X201886598Y-193436185D02*
X201958026Y-193293328D01*
X201958026Y-193293328D02*
X202100884Y-193221900D01*
X202100884Y-193221900D02*
X202458026Y-193221900D01*
X202458026Y-193221900D02*
X202600884Y-193150471D01*
X203100884Y-192793328D02*
X203672312Y-192793328D01*
X203315169Y-192293328D02*
X203315169Y-193579042D01*
X203315169Y-193579042D02*
X203386598Y-193721900D01*
X203386598Y-193721900D02*
X203529455Y-193793328D01*
X203529455Y-193793328D02*
X203672312Y-193793328D01*
X204743741Y-193721900D02*
X204600884Y-193793328D01*
X204600884Y-193793328D02*
X204315170Y-193793328D01*
X204315170Y-193793328D02*
X204172312Y-193721900D01*
X204172312Y-193721900D02*
X204100884Y-193579042D01*
X204100884Y-193579042D02*
X204100884Y-193007614D01*
X204100884Y-193007614D02*
X204172312Y-192864757D01*
X204172312Y-192864757D02*
X204315170Y-192793328D01*
X204315170Y-192793328D02*
X204600884Y-192793328D01*
X204600884Y-192793328D02*
X204743741Y-192864757D01*
X204743741Y-192864757D02*
X204815170Y-193007614D01*
X204815170Y-193007614D02*
X204815170Y-193150471D01*
X204815170Y-193150471D02*
X204100884Y-193293328D01*
X205458026Y-193650471D02*
X205529455Y-193721900D01*
X205529455Y-193721900D02*
X205458026Y-193793328D01*
X205458026Y-193793328D02*
X205386598Y-193721900D01*
X205386598Y-193721900D02*
X205458026Y-193650471D01*
X205458026Y-193650471D02*
X205458026Y-193793328D01*
X205458026Y-192864757D02*
X205529455Y-192936185D01*
X205529455Y-192936185D02*
X205458026Y-193007614D01*
X205458026Y-193007614D02*
X205386598Y-192936185D01*
X205386598Y-192936185D02*
X205458026Y-192864757D01*
X205458026Y-192864757D02*
X205458026Y-193007614D01*
X177002200Y-194507200D02*
X285002200Y-194507200D01*
X178458026Y-196593328D02*
X178458026Y-195093328D01*
X179315169Y-196593328D02*
X178672312Y-195736185D01*
X179315169Y-195093328D02*
X178458026Y-195950471D01*
X179958026Y-196593328D02*
X179958026Y-195593328D01*
X179958026Y-195093328D02*
X179886598Y-195164757D01*
X179886598Y-195164757D02*
X179958026Y-195236185D01*
X179958026Y-195236185D02*
X180029455Y-195164757D01*
X180029455Y-195164757D02*
X179958026Y-195093328D01*
X179958026Y-195093328D02*
X179958026Y-195236185D01*
X181529455Y-196450471D02*
X181458027Y-196521900D01*
X181458027Y-196521900D02*
X181243741Y-196593328D01*
X181243741Y-196593328D02*
X181100884Y-196593328D01*
X181100884Y-196593328D02*
X180886598Y-196521900D01*
X180886598Y-196521900D02*
X180743741Y-196379042D01*
X180743741Y-196379042D02*
X180672312Y-196236185D01*
X180672312Y-196236185D02*
X180600884Y-195950471D01*
X180600884Y-195950471D02*
X180600884Y-195736185D01*
X180600884Y-195736185D02*
X180672312Y-195450471D01*
X180672312Y-195450471D02*
X180743741Y-195307614D01*
X180743741Y-195307614D02*
X180886598Y-195164757D01*
X180886598Y-195164757D02*
X181100884Y-195093328D01*
X181100884Y-195093328D02*
X181243741Y-195093328D01*
X181243741Y-195093328D02*
X181458027Y-195164757D01*
X181458027Y-195164757D02*
X181529455Y-195236185D01*
X182815170Y-196593328D02*
X182815170Y-195807614D01*
X182815170Y-195807614D02*
X182743741Y-195664757D01*
X182743741Y-195664757D02*
X182600884Y-195593328D01*
X182600884Y-195593328D02*
X182315170Y-195593328D01*
X182315170Y-195593328D02*
X182172312Y-195664757D01*
X182815170Y-196521900D02*
X182672312Y-196593328D01*
X182672312Y-196593328D02*
X182315170Y-196593328D01*
X182315170Y-196593328D02*
X182172312Y-196521900D01*
X182172312Y-196521900D02*
X182100884Y-196379042D01*
X182100884Y-196379042D02*
X182100884Y-196236185D01*
X182100884Y-196236185D02*
X182172312Y-196093328D01*
X182172312Y-196093328D02*
X182315170Y-196021900D01*
X182315170Y-196021900D02*
X182672312Y-196021900D01*
X182672312Y-196021900D02*
X182815170Y-195950471D01*
X184172313Y-196593328D02*
X184172313Y-195093328D01*
X184172313Y-196521900D02*
X184029455Y-196593328D01*
X184029455Y-196593328D02*
X183743741Y-196593328D01*
X183743741Y-196593328D02*
X183600884Y-196521900D01*
X183600884Y-196521900D02*
X183529455Y-196450471D01*
X183529455Y-196450471D02*
X183458027Y-196307614D01*
X183458027Y-196307614D02*
X183458027Y-195879042D01*
X183458027Y-195879042D02*
X183529455Y-195736185D01*
X183529455Y-195736185D02*
X183600884Y-195664757D01*
X183600884Y-195664757D02*
X183743741Y-195593328D01*
X183743741Y-195593328D02*
X184029455Y-195593328D01*
X184029455Y-195593328D02*
X184172313Y-195664757D01*
X186029455Y-195807614D02*
X186529455Y-195807614D01*
X186743741Y-196593328D02*
X186029455Y-196593328D01*
X186029455Y-196593328D02*
X186029455Y-195093328D01*
X186029455Y-195093328D02*
X186743741Y-195093328D01*
X187386598Y-196450471D02*
X187458027Y-196521900D01*
X187458027Y-196521900D02*
X187386598Y-196593328D01*
X187386598Y-196593328D02*
X187315170Y-196521900D01*
X187315170Y-196521900D02*
X187386598Y-196450471D01*
X187386598Y-196450471D02*
X187386598Y-196593328D01*
X188100884Y-196593328D02*
X188100884Y-195093328D01*
X188100884Y-195093328D02*
X188458027Y-195093328D01*
X188458027Y-195093328D02*
X188672313Y-195164757D01*
X188672313Y-195164757D02*
X188815170Y-195307614D01*
X188815170Y-195307614D02*
X188886599Y-195450471D01*
X188886599Y-195450471D02*
X188958027Y-195736185D01*
X188958027Y-195736185D02*
X188958027Y-195950471D01*
X188958027Y-195950471D02*
X188886599Y-196236185D01*
X188886599Y-196236185D02*
X188815170Y-196379042D01*
X188815170Y-196379042D02*
X188672313Y-196521900D01*
X188672313Y-196521900D02*
X188458027Y-196593328D01*
X188458027Y-196593328D02*
X188100884Y-196593328D01*
X189600884Y-196450471D02*
X189672313Y-196521900D01*
X189672313Y-196521900D02*
X189600884Y-196593328D01*
X189600884Y-196593328D02*
X189529456Y-196521900D01*
X189529456Y-196521900D02*
X189600884Y-196450471D01*
X189600884Y-196450471D02*
X189600884Y-196593328D01*
X190243742Y-196164757D02*
X190958028Y-196164757D01*
X190100885Y-196593328D02*
X190600885Y-195093328D01*
X190600885Y-195093328D02*
X191100885Y-196593328D01*
X191600884Y-196450471D02*
X191672313Y-196521900D01*
X191672313Y-196521900D02*
X191600884Y-196593328D01*
X191600884Y-196593328D02*
X191529456Y-196521900D01*
X191529456Y-196521900D02*
X191600884Y-196450471D01*
X191600884Y-196450471D02*
X191600884Y-196593328D01*
X194243742Y-196593328D02*
X193386599Y-196593328D01*
X193815170Y-196593328D02*
X193815170Y-195093328D01*
X193815170Y-195093328D02*
X193672313Y-195307614D01*
X193672313Y-195307614D02*
X193529456Y-195450471D01*
X193529456Y-195450471D02*
X193386599Y-195521900D01*
X195172313Y-195093328D02*
X195315170Y-195093328D01*
X195315170Y-195093328D02*
X195458027Y-195164757D01*
X195458027Y-195164757D02*
X195529456Y-195236185D01*
X195529456Y-195236185D02*
X195600884Y-195379042D01*
X195600884Y-195379042D02*
X195672313Y-195664757D01*
X195672313Y-195664757D02*
X195672313Y-196021900D01*
X195672313Y-196021900D02*
X195600884Y-196307614D01*
X195600884Y-196307614D02*
X195529456Y-196450471D01*
X195529456Y-196450471D02*
X195458027Y-196521900D01*
X195458027Y-196521900D02*
X195315170Y-196593328D01*
X195315170Y-196593328D02*
X195172313Y-196593328D01*
X195172313Y-196593328D02*
X195029456Y-196521900D01*
X195029456Y-196521900D02*
X194958027Y-196450471D01*
X194958027Y-196450471D02*
X194886598Y-196307614D01*
X194886598Y-196307614D02*
X194815170Y-196021900D01*
X194815170Y-196021900D02*
X194815170Y-195664757D01*
X194815170Y-195664757D02*
X194886598Y-195379042D01*
X194886598Y-195379042D02*
X194958027Y-195236185D01*
X194958027Y-195236185D02*
X195029456Y-195164757D01*
X195029456Y-195164757D02*
X195172313Y-195093328D01*
X196315169Y-196450471D02*
X196386598Y-196521900D01*
X196386598Y-196521900D02*
X196315169Y-196593328D01*
X196315169Y-196593328D02*
X196243741Y-196521900D01*
X196243741Y-196521900D02*
X196315169Y-196450471D01*
X196315169Y-196450471D02*
X196315169Y-196593328D01*
X197315170Y-195093328D02*
X197458027Y-195093328D01*
X197458027Y-195093328D02*
X197600884Y-195164757D01*
X197600884Y-195164757D02*
X197672313Y-195236185D01*
X197672313Y-195236185D02*
X197743741Y-195379042D01*
X197743741Y-195379042D02*
X197815170Y-195664757D01*
X197815170Y-195664757D02*
X197815170Y-196021900D01*
X197815170Y-196021900D02*
X197743741Y-196307614D01*
X197743741Y-196307614D02*
X197672313Y-196450471D01*
X197672313Y-196450471D02*
X197600884Y-196521900D01*
X197600884Y-196521900D02*
X197458027Y-196593328D01*
X197458027Y-196593328D02*
X197315170Y-196593328D01*
X197315170Y-196593328D02*
X197172313Y-196521900D01*
X197172313Y-196521900D02*
X197100884Y-196450471D01*
X197100884Y-196450471D02*
X197029455Y-196307614D01*
X197029455Y-196307614D02*
X196958027Y-196021900D01*
X196958027Y-196021900D02*
X196958027Y-195664757D01*
X196958027Y-195664757D02*
X197029455Y-195379042D01*
X197029455Y-195379042D02*
X197100884Y-195236185D01*
X197100884Y-195236185D02*
X197172313Y-195164757D01*
X197172313Y-195164757D02*
X197315170Y-195093328D01*
X198458026Y-196450471D02*
X198529455Y-196521900D01*
X198529455Y-196521900D02*
X198458026Y-196593328D01*
X198458026Y-196593328D02*
X198386598Y-196521900D01*
X198386598Y-196521900D02*
X198458026Y-196450471D01*
X198458026Y-196450471D02*
X198458026Y-196593328D01*
X199029455Y-195093328D02*
X199958027Y-195093328D01*
X199958027Y-195093328D02*
X199458027Y-195664757D01*
X199458027Y-195664757D02*
X199672312Y-195664757D01*
X199672312Y-195664757D02*
X199815170Y-195736185D01*
X199815170Y-195736185D02*
X199886598Y-195807614D01*
X199886598Y-195807614D02*
X199958027Y-195950471D01*
X199958027Y-195950471D02*
X199958027Y-196307614D01*
X199958027Y-196307614D02*
X199886598Y-196450471D01*
X199886598Y-196450471D02*
X199815170Y-196521900D01*
X199815170Y-196521900D02*
X199672312Y-196593328D01*
X199672312Y-196593328D02*
X199243741Y-196593328D01*
X199243741Y-196593328D02*
X199100884Y-196521900D01*
X199100884Y-196521900D02*
X199029455Y-196450471D01*
X177002200Y-191507200D02*
X285002200Y-191507200D01*
D11*
X264413853Y-193785528D02*
X263913853Y-193071242D01*
X263556710Y-193785528D02*
X263556710Y-192285528D01*
X263556710Y-192285528D02*
X264128139Y-192285528D01*
X264128139Y-192285528D02*
X264270996Y-192356957D01*
X264270996Y-192356957D02*
X264342425Y-192428385D01*
X264342425Y-192428385D02*
X264413853Y-192571242D01*
X264413853Y-192571242D02*
X264413853Y-192785528D01*
X264413853Y-192785528D02*
X264342425Y-192928385D01*
X264342425Y-192928385D02*
X264270996Y-192999814D01*
X264270996Y-192999814D02*
X264128139Y-193071242D01*
X264128139Y-193071242D02*
X263556710Y-193071242D01*
X265628139Y-193714100D02*
X265485282Y-193785528D01*
X265485282Y-193785528D02*
X265199568Y-193785528D01*
X265199568Y-193785528D02*
X265056710Y-193714100D01*
X265056710Y-193714100D02*
X264985282Y-193571242D01*
X264985282Y-193571242D02*
X264985282Y-192999814D01*
X264985282Y-192999814D02*
X265056710Y-192856957D01*
X265056710Y-192856957D02*
X265199568Y-192785528D01*
X265199568Y-192785528D02*
X265485282Y-192785528D01*
X265485282Y-192785528D02*
X265628139Y-192856957D01*
X265628139Y-192856957D02*
X265699568Y-192999814D01*
X265699568Y-192999814D02*
X265699568Y-193142671D01*
X265699568Y-193142671D02*
X264985282Y-193285528D01*
X266199567Y-192785528D02*
X266556710Y-193785528D01*
X266556710Y-193785528D02*
X266913853Y-192785528D01*
X267485281Y-193642671D02*
X267556710Y-193714100D01*
X267556710Y-193714100D02*
X267485281Y-193785528D01*
X267485281Y-193785528D02*
X267413853Y-193714100D01*
X267413853Y-193714100D02*
X267485281Y-193642671D01*
X267485281Y-193642671D02*
X267485281Y-193785528D01*
X267485281Y-192856957D02*
X267556710Y-192928385D01*
X267556710Y-192928385D02*
X267485281Y-192999814D01*
X267485281Y-192999814D02*
X267413853Y-192928385D01*
X267413853Y-192928385D02*
X267485281Y-192856957D01*
X267485281Y-192856957D02*
X267485281Y-192999814D01*
D10*
X178386598Y-193721900D02*
X178600884Y-193793328D01*
X178600884Y-193793328D02*
X178958026Y-193793328D01*
X178958026Y-193793328D02*
X179100884Y-193721900D01*
X179100884Y-193721900D02*
X179172312Y-193650471D01*
X179172312Y-193650471D02*
X179243741Y-193507614D01*
X179243741Y-193507614D02*
X179243741Y-193364757D01*
X179243741Y-193364757D02*
X179172312Y-193221900D01*
X179172312Y-193221900D02*
X179100884Y-193150471D01*
X179100884Y-193150471D02*
X178958026Y-193079042D01*
X178958026Y-193079042D02*
X178672312Y-193007614D01*
X178672312Y-193007614D02*
X178529455Y-192936185D01*
X178529455Y-192936185D02*
X178458026Y-192864757D01*
X178458026Y-192864757D02*
X178386598Y-192721900D01*
X178386598Y-192721900D02*
X178386598Y-192579042D01*
X178386598Y-192579042D02*
X178458026Y-192436185D01*
X178458026Y-192436185D02*
X178529455Y-192364757D01*
X178529455Y-192364757D02*
X178672312Y-192293328D01*
X178672312Y-192293328D02*
X179029455Y-192293328D01*
X179029455Y-192293328D02*
X179243741Y-192364757D01*
X179886597Y-193793328D02*
X179886597Y-192793328D01*
X179886597Y-192293328D02*
X179815169Y-192364757D01*
X179815169Y-192364757D02*
X179886597Y-192436185D01*
X179886597Y-192436185D02*
X179958026Y-192364757D01*
X179958026Y-192364757D02*
X179886597Y-192293328D01*
X179886597Y-192293328D02*
X179886597Y-192436185D01*
X180458026Y-192793328D02*
X181243741Y-192793328D01*
X181243741Y-192793328D02*
X180458026Y-193793328D01*
X180458026Y-193793328D02*
X181243741Y-193793328D01*
X182386598Y-193721900D02*
X182243741Y-193793328D01*
X182243741Y-193793328D02*
X181958027Y-193793328D01*
X181958027Y-193793328D02*
X181815169Y-193721900D01*
X181815169Y-193721900D02*
X181743741Y-193579042D01*
X181743741Y-193579042D02*
X181743741Y-193007614D01*
X181743741Y-193007614D02*
X181815169Y-192864757D01*
X181815169Y-192864757D02*
X181958027Y-192793328D01*
X181958027Y-192793328D02*
X182243741Y-192793328D01*
X182243741Y-192793328D02*
X182386598Y-192864757D01*
X182386598Y-192864757D02*
X182458027Y-193007614D01*
X182458027Y-193007614D02*
X182458027Y-193150471D01*
X182458027Y-193150471D02*
X181743741Y-193293328D01*
X183100883Y-193650471D02*
X183172312Y-193721900D01*
X183172312Y-193721900D02*
X183100883Y-193793328D01*
X183100883Y-193793328D02*
X183029455Y-193721900D01*
X183029455Y-193721900D02*
X183100883Y-193650471D01*
X183100883Y-193650471D02*
X183100883Y-193793328D01*
X183100883Y-192864757D02*
X183172312Y-192936185D01*
X183172312Y-192936185D02*
X183100883Y-193007614D01*
X183100883Y-193007614D02*
X183029455Y-192936185D01*
X183029455Y-192936185D02*
X183100883Y-192864757D01*
X183100883Y-192864757D02*
X183100883Y-193007614D01*
X184886598Y-193364757D02*
X185600884Y-193364757D01*
X184743741Y-193793328D02*
X185243741Y-192293328D01*
X185243741Y-192293328D02*
X185743741Y-193793328D01*
X186886598Y-192793328D02*
X186886598Y-193793328D01*
X186529455Y-192221900D02*
X186172312Y-193293328D01*
X186172312Y-193293328D02*
X187100883Y-193293328D01*
X263458026Y-196593328D02*
X263458026Y-195093328D01*
X264815170Y-196593328D02*
X264815170Y-195093328D01*
X264815170Y-196521900D02*
X264672312Y-196593328D01*
X264672312Y-196593328D02*
X264386598Y-196593328D01*
X264386598Y-196593328D02*
X264243741Y-196521900D01*
X264243741Y-196521900D02*
X264172312Y-196450471D01*
X264172312Y-196450471D02*
X264100884Y-196307614D01*
X264100884Y-196307614D02*
X264100884Y-195879042D01*
X264100884Y-195879042D02*
X264172312Y-195736185D01*
X264172312Y-195736185D02*
X264243741Y-195664757D01*
X264243741Y-195664757D02*
X264386598Y-195593328D01*
X264386598Y-195593328D02*
X264672312Y-195593328D01*
X264672312Y-195593328D02*
X264815170Y-195664757D01*
X265529455Y-196450471D02*
X265600884Y-196521900D01*
X265600884Y-196521900D02*
X265529455Y-196593328D01*
X265529455Y-196593328D02*
X265458027Y-196521900D01*
X265458027Y-196521900D02*
X265529455Y-196450471D01*
X265529455Y-196450471D02*
X265529455Y-196593328D01*
X265529455Y-195664757D02*
X265600884Y-195736185D01*
X265600884Y-195736185D02*
X265529455Y-195807614D01*
X265529455Y-195807614D02*
X265458027Y-195736185D01*
X265458027Y-195736185D02*
X265529455Y-195664757D01*
X265529455Y-195664757D02*
X265529455Y-195807614D01*
X268029456Y-195093328D02*
X267743741Y-195093328D01*
X267743741Y-195093328D02*
X267600884Y-195164757D01*
X267600884Y-195164757D02*
X267529456Y-195236185D01*
X267529456Y-195236185D02*
X267386598Y-195450471D01*
X267386598Y-195450471D02*
X267315170Y-195736185D01*
X267315170Y-195736185D02*
X267315170Y-196307614D01*
X267315170Y-196307614D02*
X267386598Y-196450471D01*
X267386598Y-196450471D02*
X267458027Y-196521900D01*
X267458027Y-196521900D02*
X267600884Y-196593328D01*
X267600884Y-196593328D02*
X267886598Y-196593328D01*
X267886598Y-196593328D02*
X268029456Y-196521900D01*
X268029456Y-196521900D02*
X268100884Y-196450471D01*
X268100884Y-196450471D02*
X268172313Y-196307614D01*
X268172313Y-196307614D02*
X268172313Y-195950471D01*
X268172313Y-195950471D02*
X268100884Y-195807614D01*
X268100884Y-195807614D02*
X268029456Y-195736185D01*
X268029456Y-195736185D02*
X267886598Y-195664757D01*
X267886598Y-195664757D02*
X267600884Y-195664757D01*
X267600884Y-195664757D02*
X267458027Y-195736185D01*
X267458027Y-195736185D02*
X267386598Y-195807614D01*
X267386598Y-195807614D02*
X267315170Y-195950471D01*
X269886598Y-195021900D02*
X268600884Y-196950471D01*
X270458027Y-196593328D02*
X270743741Y-196593328D01*
X270743741Y-196593328D02*
X270886598Y-196521900D01*
X270886598Y-196521900D02*
X270958027Y-196450471D01*
X270958027Y-196450471D02*
X271100884Y-196236185D01*
X271100884Y-196236185D02*
X271172313Y-195950471D01*
X271172313Y-195950471D02*
X271172313Y-195379042D01*
X271172313Y-195379042D02*
X271100884Y-195236185D01*
X271100884Y-195236185D02*
X271029456Y-195164757D01*
X271029456Y-195164757D02*
X270886598Y-195093328D01*
X270886598Y-195093328D02*
X270600884Y-195093328D01*
X270600884Y-195093328D02*
X270458027Y-195164757D01*
X270458027Y-195164757D02*
X270386598Y-195236185D01*
X270386598Y-195236185D02*
X270315170Y-195379042D01*
X270315170Y-195379042D02*
X270315170Y-195736185D01*
X270315170Y-195736185D02*
X270386598Y-195879042D01*
X270386598Y-195879042D02*
X270458027Y-195950471D01*
X270458027Y-195950471D02*
X270600884Y-196021900D01*
X270600884Y-196021900D02*
X270886598Y-196021900D01*
X270886598Y-196021900D02*
X271029456Y-195950471D01*
X271029456Y-195950471D02*
X271100884Y-195879042D01*
X271100884Y-195879042D02*
X271172313Y-195736185D01*
X177002200Y-187507200D02*
X285002200Y-187507200D01*
D12*
X178693928Y-188211638D02*
X179836785Y-188211638D01*
X179015357Y-190211638D02*
X179265357Y-188211638D01*
X180253452Y-190211638D02*
X180420119Y-188878304D01*
X180503452Y-188211638D02*
X180396309Y-188306876D01*
X180396309Y-188306876D02*
X180479643Y-188402114D01*
X180479643Y-188402114D02*
X180586786Y-188306876D01*
X180586786Y-188306876D02*
X180503452Y-188211638D01*
X180503452Y-188211638D02*
X180479643Y-188402114D01*
X181086786Y-188878304D02*
X181848690Y-188878304D01*
X181455833Y-188211638D02*
X181241548Y-189925923D01*
X181241548Y-189925923D02*
X181312976Y-190116400D01*
X181312976Y-190116400D02*
X181491548Y-190211638D01*
X181491548Y-190211638D02*
X181682024Y-190211638D01*
X182634405Y-190211638D02*
X182455833Y-190116400D01*
X182455833Y-190116400D02*
X182384405Y-189925923D01*
X182384405Y-189925923D02*
X182598690Y-188211638D01*
X184170119Y-190116400D02*
X183967738Y-190211638D01*
X183967738Y-190211638D02*
X183586785Y-190211638D01*
X183586785Y-190211638D02*
X183408214Y-190116400D01*
X183408214Y-190116400D02*
X183336785Y-189925923D01*
X183336785Y-189925923D02*
X183432024Y-189164019D01*
X183432024Y-189164019D02*
X183551071Y-188973542D01*
X183551071Y-188973542D02*
X183753452Y-188878304D01*
X183753452Y-188878304D02*
X184134404Y-188878304D01*
X184134404Y-188878304D02*
X184312976Y-188973542D01*
X184312976Y-188973542D02*
X184384404Y-189164019D01*
X184384404Y-189164019D02*
X184360595Y-189354495D01*
X184360595Y-189354495D02*
X183384404Y-189544971D01*
X185134405Y-190021161D02*
X185217738Y-190116400D01*
X185217738Y-190116400D02*
X185110595Y-190211638D01*
X185110595Y-190211638D02*
X185027262Y-190116400D01*
X185027262Y-190116400D02*
X185134405Y-190021161D01*
X185134405Y-190021161D02*
X185110595Y-190211638D01*
X185265357Y-188973542D02*
X185348690Y-189068780D01*
X185348690Y-189068780D02*
X185241548Y-189164019D01*
X185241548Y-189164019D02*
X185158214Y-189068780D01*
X185158214Y-189068780D02*
X185265357Y-188973542D01*
X185265357Y-188973542D02*
X185241548Y-189164019D01*
D10*
X178958026Y-185607614D02*
X178458026Y-185607614D01*
X178458026Y-186393328D02*
X178458026Y-184893328D01*
X178458026Y-184893328D02*
X179172312Y-184893328D01*
X179743740Y-186393328D02*
X179743740Y-185393328D01*
X179743740Y-184893328D02*
X179672312Y-184964757D01*
X179672312Y-184964757D02*
X179743740Y-185036185D01*
X179743740Y-185036185D02*
X179815169Y-184964757D01*
X179815169Y-184964757D02*
X179743740Y-184893328D01*
X179743740Y-184893328D02*
X179743740Y-185036185D01*
X180672312Y-186393328D02*
X180529455Y-186321900D01*
X180529455Y-186321900D02*
X180458026Y-186179042D01*
X180458026Y-186179042D02*
X180458026Y-184893328D01*
X181815169Y-186321900D02*
X181672312Y-186393328D01*
X181672312Y-186393328D02*
X181386598Y-186393328D01*
X181386598Y-186393328D02*
X181243740Y-186321900D01*
X181243740Y-186321900D02*
X181172312Y-186179042D01*
X181172312Y-186179042D02*
X181172312Y-185607614D01*
X181172312Y-185607614D02*
X181243740Y-185464757D01*
X181243740Y-185464757D02*
X181386598Y-185393328D01*
X181386598Y-185393328D02*
X181672312Y-185393328D01*
X181672312Y-185393328D02*
X181815169Y-185464757D01*
X181815169Y-185464757D02*
X181886598Y-185607614D01*
X181886598Y-185607614D02*
X181886598Y-185750471D01*
X181886598Y-185750471D02*
X181172312Y-185893328D01*
X182529454Y-186250471D02*
X182600883Y-186321900D01*
X182600883Y-186321900D02*
X182529454Y-186393328D01*
X182529454Y-186393328D02*
X182458026Y-186321900D01*
X182458026Y-186321900D02*
X182529454Y-186250471D01*
X182529454Y-186250471D02*
X182529454Y-186393328D01*
X182529454Y-185464757D02*
X182600883Y-185536185D01*
X182600883Y-185536185D02*
X182529454Y-185607614D01*
X182529454Y-185607614D02*
X182458026Y-185536185D01*
X182458026Y-185536185D02*
X182529454Y-185464757D01*
X182529454Y-185464757D02*
X182529454Y-185607614D01*
X184386597Y-185393328D02*
X184386597Y-186893328D01*
X184386597Y-185464757D02*
X184529455Y-185393328D01*
X184529455Y-185393328D02*
X184815169Y-185393328D01*
X184815169Y-185393328D02*
X184958026Y-185464757D01*
X184958026Y-185464757D02*
X185029455Y-185536185D01*
X185029455Y-185536185D02*
X185100883Y-185679042D01*
X185100883Y-185679042D02*
X185100883Y-186107614D01*
X185100883Y-186107614D02*
X185029455Y-186250471D01*
X185029455Y-186250471D02*
X184958026Y-186321900D01*
X184958026Y-186321900D02*
X184815169Y-186393328D01*
X184815169Y-186393328D02*
X184529455Y-186393328D01*
X184529455Y-186393328D02*
X184386597Y-186321900D01*
X185743740Y-186393328D02*
X185743740Y-184893328D01*
X186386598Y-186393328D02*
X186386598Y-185607614D01*
X186386598Y-185607614D02*
X186315169Y-185464757D01*
X186315169Y-185464757D02*
X186172312Y-185393328D01*
X186172312Y-185393328D02*
X185958026Y-185393328D01*
X185958026Y-185393328D02*
X185815169Y-185464757D01*
X185815169Y-185464757D02*
X185743740Y-185536185D01*
X187315169Y-186393328D02*
X187172312Y-186321900D01*
X187172312Y-186321900D02*
X187100883Y-186250471D01*
X187100883Y-186250471D02*
X187029455Y-186107614D01*
X187029455Y-186107614D02*
X187029455Y-185679042D01*
X187029455Y-185679042D02*
X187100883Y-185536185D01*
X187100883Y-185536185D02*
X187172312Y-185464757D01*
X187172312Y-185464757D02*
X187315169Y-185393328D01*
X187315169Y-185393328D02*
X187529455Y-185393328D01*
X187529455Y-185393328D02*
X187672312Y-185464757D01*
X187672312Y-185464757D02*
X187743741Y-185536185D01*
X187743741Y-185536185D02*
X187815169Y-185679042D01*
X187815169Y-185679042D02*
X187815169Y-186107614D01*
X187815169Y-186107614D02*
X187743741Y-186250471D01*
X187743741Y-186250471D02*
X187672312Y-186321900D01*
X187672312Y-186321900D02*
X187529455Y-186393328D01*
X187529455Y-186393328D02*
X187315169Y-186393328D01*
X188243741Y-185393328D02*
X188815169Y-185393328D01*
X188458026Y-184893328D02*
X188458026Y-186179042D01*
X188458026Y-186179042D02*
X188529455Y-186321900D01*
X188529455Y-186321900D02*
X188672312Y-186393328D01*
X188672312Y-186393328D02*
X188815169Y-186393328D01*
X189529455Y-186393328D02*
X189386598Y-186321900D01*
X189386598Y-186321900D02*
X189315169Y-186250471D01*
X189315169Y-186250471D02*
X189243741Y-186107614D01*
X189243741Y-186107614D02*
X189243741Y-185679042D01*
X189243741Y-185679042D02*
X189315169Y-185536185D01*
X189315169Y-185536185D02*
X189386598Y-185464757D01*
X189386598Y-185464757D02*
X189529455Y-185393328D01*
X189529455Y-185393328D02*
X189743741Y-185393328D01*
X189743741Y-185393328D02*
X189886598Y-185464757D01*
X189886598Y-185464757D02*
X189958027Y-185536185D01*
X189958027Y-185536185D02*
X190029455Y-185679042D01*
X190029455Y-185679042D02*
X190029455Y-186107614D01*
X190029455Y-186107614D02*
X189958027Y-186250471D01*
X189958027Y-186250471D02*
X189886598Y-186321900D01*
X189886598Y-186321900D02*
X189743741Y-186393328D01*
X189743741Y-186393328D02*
X189529455Y-186393328D01*
X190672312Y-186393328D02*
X190672312Y-185393328D01*
X190672312Y-185536185D02*
X190743741Y-185464757D01*
X190743741Y-185464757D02*
X190886598Y-185393328D01*
X190886598Y-185393328D02*
X191100884Y-185393328D01*
X191100884Y-185393328D02*
X191243741Y-185464757D01*
X191243741Y-185464757D02*
X191315170Y-185607614D01*
X191315170Y-185607614D02*
X191315170Y-186393328D01*
X191315170Y-185607614D02*
X191386598Y-185464757D01*
X191386598Y-185464757D02*
X191529455Y-185393328D01*
X191529455Y-185393328D02*
X191743741Y-185393328D01*
X191743741Y-185393328D02*
X191886598Y-185464757D01*
X191886598Y-185464757D02*
X191958027Y-185607614D01*
X191958027Y-185607614D02*
X191958027Y-186393328D01*
X193243741Y-186321900D02*
X193100884Y-186393328D01*
X193100884Y-186393328D02*
X192815170Y-186393328D01*
X192815170Y-186393328D02*
X192672312Y-186321900D01*
X192672312Y-186321900D02*
X192600884Y-186179042D01*
X192600884Y-186179042D02*
X192600884Y-185607614D01*
X192600884Y-185607614D02*
X192672312Y-185464757D01*
X192672312Y-185464757D02*
X192815170Y-185393328D01*
X192815170Y-185393328D02*
X193100884Y-185393328D01*
X193100884Y-185393328D02*
X193243741Y-185464757D01*
X193243741Y-185464757D02*
X193315170Y-185607614D01*
X193315170Y-185607614D02*
X193315170Y-185750471D01*
X193315170Y-185750471D02*
X192600884Y-185893328D01*
X193743741Y-185393328D02*
X194315169Y-185393328D01*
X193958026Y-184893328D02*
X193958026Y-186179042D01*
X193958026Y-186179042D02*
X194029455Y-186321900D01*
X194029455Y-186321900D02*
X194172312Y-186393328D01*
X194172312Y-186393328D02*
X194315169Y-186393328D01*
X195386598Y-186321900D02*
X195243741Y-186393328D01*
X195243741Y-186393328D02*
X194958027Y-186393328D01*
X194958027Y-186393328D02*
X194815169Y-186321900D01*
X194815169Y-186321900D02*
X194743741Y-186179042D01*
X194743741Y-186179042D02*
X194743741Y-185607614D01*
X194743741Y-185607614D02*
X194815169Y-185464757D01*
X194815169Y-185464757D02*
X194958027Y-185393328D01*
X194958027Y-185393328D02*
X195243741Y-185393328D01*
X195243741Y-185393328D02*
X195386598Y-185464757D01*
X195386598Y-185464757D02*
X195458027Y-185607614D01*
X195458027Y-185607614D02*
X195458027Y-185750471D01*
X195458027Y-185750471D02*
X194743741Y-185893328D01*
X196100883Y-186393328D02*
X196100883Y-185393328D01*
X196100883Y-185679042D02*
X196172312Y-185536185D01*
X196172312Y-185536185D02*
X196243741Y-185464757D01*
X196243741Y-185464757D02*
X196386598Y-185393328D01*
X196386598Y-185393328D02*
X196529455Y-185393328D01*
X196886597Y-184893328D02*
X197815169Y-184893328D01*
X197815169Y-184893328D02*
X197315169Y-185464757D01*
X197315169Y-185464757D02*
X197529454Y-185464757D01*
X197529454Y-185464757D02*
X197672312Y-185536185D01*
X197672312Y-185536185D02*
X197743740Y-185607614D01*
X197743740Y-185607614D02*
X197815169Y-185750471D01*
X197815169Y-185750471D02*
X197815169Y-186107614D01*
X197815169Y-186107614D02*
X197743740Y-186250471D01*
X197743740Y-186250471D02*
X197672312Y-186321900D01*
X197672312Y-186321900D02*
X197529454Y-186393328D01*
X197529454Y-186393328D02*
X197100883Y-186393328D01*
X197100883Y-186393328D02*
X196958026Y-186321900D01*
X196958026Y-186321900D02*
X196886597Y-186250471D01*
X198458025Y-186250471D02*
X198529454Y-186321900D01*
X198529454Y-186321900D02*
X198458025Y-186393328D01*
X198458025Y-186393328D02*
X198386597Y-186321900D01*
X198386597Y-186321900D02*
X198458025Y-186250471D01*
X198458025Y-186250471D02*
X198458025Y-186393328D01*
X199172311Y-186393328D02*
X199172311Y-184893328D01*
X199315169Y-185821900D02*
X199743740Y-186393328D01*
X199743740Y-185393328D02*
X199172311Y-185964757D01*
X200386597Y-186393328D02*
X200386597Y-185393328D01*
X200386597Y-184893328D02*
X200315169Y-184964757D01*
X200315169Y-184964757D02*
X200386597Y-185036185D01*
X200386597Y-185036185D02*
X200458026Y-184964757D01*
X200458026Y-184964757D02*
X200386597Y-184893328D01*
X200386597Y-184893328D02*
X200386597Y-185036185D01*
X201743741Y-186321900D02*
X201600883Y-186393328D01*
X201600883Y-186393328D02*
X201315169Y-186393328D01*
X201315169Y-186393328D02*
X201172312Y-186321900D01*
X201172312Y-186321900D02*
X201100883Y-186250471D01*
X201100883Y-186250471D02*
X201029455Y-186107614D01*
X201029455Y-186107614D02*
X201029455Y-185679042D01*
X201029455Y-185679042D02*
X201100883Y-185536185D01*
X201100883Y-185536185D02*
X201172312Y-185464757D01*
X201172312Y-185464757D02*
X201315169Y-185393328D01*
X201315169Y-185393328D02*
X201600883Y-185393328D01*
X201600883Y-185393328D02*
X201743741Y-185464757D01*
X203029455Y-186393328D02*
X203029455Y-185607614D01*
X203029455Y-185607614D02*
X202958026Y-185464757D01*
X202958026Y-185464757D02*
X202815169Y-185393328D01*
X202815169Y-185393328D02*
X202529455Y-185393328D01*
X202529455Y-185393328D02*
X202386597Y-185464757D01*
X203029455Y-186321900D02*
X202886597Y-186393328D01*
X202886597Y-186393328D02*
X202529455Y-186393328D01*
X202529455Y-186393328D02*
X202386597Y-186321900D01*
X202386597Y-186321900D02*
X202315169Y-186179042D01*
X202315169Y-186179042D02*
X202315169Y-186036185D01*
X202315169Y-186036185D02*
X202386597Y-185893328D01*
X202386597Y-185893328D02*
X202529455Y-185821900D01*
X202529455Y-185821900D02*
X202886597Y-185821900D01*
X202886597Y-185821900D02*
X203029455Y-185750471D01*
X204386598Y-186393328D02*
X204386598Y-184893328D01*
X204386598Y-186321900D02*
X204243740Y-186393328D01*
X204243740Y-186393328D02*
X203958026Y-186393328D01*
X203958026Y-186393328D02*
X203815169Y-186321900D01*
X203815169Y-186321900D02*
X203743740Y-186250471D01*
X203743740Y-186250471D02*
X203672312Y-186107614D01*
X203672312Y-186107614D02*
X203672312Y-185679042D01*
X203672312Y-185679042D02*
X203743740Y-185536185D01*
X203743740Y-185536185D02*
X203815169Y-185464757D01*
X203815169Y-185464757D02*
X203958026Y-185393328D01*
X203958026Y-185393328D02*
X204243740Y-185393328D01*
X204243740Y-185393328D02*
X204386598Y-185464757D01*
X204743741Y-186536185D02*
X205886598Y-186536185D01*
X206243740Y-185393328D02*
X206243740Y-186893328D01*
X206243740Y-185464757D02*
X206386598Y-185393328D01*
X206386598Y-185393328D02*
X206672312Y-185393328D01*
X206672312Y-185393328D02*
X206815169Y-185464757D01*
X206815169Y-185464757D02*
X206886598Y-185536185D01*
X206886598Y-185536185D02*
X206958026Y-185679042D01*
X206958026Y-185679042D02*
X206958026Y-186107614D01*
X206958026Y-186107614D02*
X206886598Y-186250471D01*
X206886598Y-186250471D02*
X206815169Y-186321900D01*
X206815169Y-186321900D02*
X206672312Y-186393328D01*
X206672312Y-186393328D02*
X206386598Y-186393328D01*
X206386598Y-186393328D02*
X206243740Y-186321900D01*
X208243741Y-186321900D02*
X208100883Y-186393328D01*
X208100883Y-186393328D02*
X207815169Y-186393328D01*
X207815169Y-186393328D02*
X207672312Y-186321900D01*
X207672312Y-186321900D02*
X207600883Y-186250471D01*
X207600883Y-186250471D02*
X207529455Y-186107614D01*
X207529455Y-186107614D02*
X207529455Y-185679042D01*
X207529455Y-185679042D02*
X207600883Y-185536185D01*
X207600883Y-185536185D02*
X207672312Y-185464757D01*
X207672312Y-185464757D02*
X207815169Y-185393328D01*
X207815169Y-185393328D02*
X208100883Y-185393328D01*
X208100883Y-185393328D02*
X208243741Y-185464757D01*
X208886597Y-186393328D02*
X208886597Y-184893328D01*
X208886597Y-185464757D02*
X209029455Y-185393328D01*
X209029455Y-185393328D02*
X209315169Y-185393328D01*
X209315169Y-185393328D02*
X209458026Y-185464757D01*
X209458026Y-185464757D02*
X209529455Y-185536185D01*
X209529455Y-185536185D02*
X209600883Y-185679042D01*
X209600883Y-185679042D02*
X209600883Y-186107614D01*
X209600883Y-186107614D02*
X209529455Y-186250471D01*
X209529455Y-186250471D02*
X209458026Y-186321900D01*
X209458026Y-186321900D02*
X209315169Y-186393328D01*
X209315169Y-186393328D02*
X209029455Y-186393328D01*
X209029455Y-186393328D02*
X208886597Y-186321900D01*
X177002200Y-181507200D02*
X285002200Y-181507200D01*
X178386598Y-183621900D02*
X178600884Y-183693328D01*
X178600884Y-183693328D02*
X178958026Y-183693328D01*
X178958026Y-183693328D02*
X179100884Y-183621900D01*
X179100884Y-183621900D02*
X179172312Y-183550471D01*
X179172312Y-183550471D02*
X179243741Y-183407614D01*
X179243741Y-183407614D02*
X179243741Y-183264757D01*
X179243741Y-183264757D02*
X179172312Y-183121900D01*
X179172312Y-183121900D02*
X179100884Y-183050471D01*
X179100884Y-183050471D02*
X178958026Y-182979042D01*
X178958026Y-182979042D02*
X178672312Y-182907614D01*
X178672312Y-182907614D02*
X178529455Y-182836185D01*
X178529455Y-182836185D02*
X178458026Y-182764757D01*
X178458026Y-182764757D02*
X178386598Y-182621900D01*
X178386598Y-182621900D02*
X178386598Y-182479042D01*
X178386598Y-182479042D02*
X178458026Y-182336185D01*
X178458026Y-182336185D02*
X178529455Y-182264757D01*
X178529455Y-182264757D02*
X178672312Y-182193328D01*
X178672312Y-182193328D02*
X179029455Y-182193328D01*
X179029455Y-182193328D02*
X179243741Y-182264757D01*
X179886597Y-183693328D02*
X179886597Y-182193328D01*
X180529455Y-183693328D02*
X180529455Y-182907614D01*
X180529455Y-182907614D02*
X180458026Y-182764757D01*
X180458026Y-182764757D02*
X180315169Y-182693328D01*
X180315169Y-182693328D02*
X180100883Y-182693328D01*
X180100883Y-182693328D02*
X179958026Y-182764757D01*
X179958026Y-182764757D02*
X179886597Y-182836185D01*
X181815169Y-183621900D02*
X181672312Y-183693328D01*
X181672312Y-183693328D02*
X181386598Y-183693328D01*
X181386598Y-183693328D02*
X181243740Y-183621900D01*
X181243740Y-183621900D02*
X181172312Y-183479042D01*
X181172312Y-183479042D02*
X181172312Y-182907614D01*
X181172312Y-182907614D02*
X181243740Y-182764757D01*
X181243740Y-182764757D02*
X181386598Y-182693328D01*
X181386598Y-182693328D02*
X181672312Y-182693328D01*
X181672312Y-182693328D02*
X181815169Y-182764757D01*
X181815169Y-182764757D02*
X181886598Y-182907614D01*
X181886598Y-182907614D02*
X181886598Y-183050471D01*
X181886598Y-183050471D02*
X181172312Y-183193328D01*
X183100883Y-183621900D02*
X182958026Y-183693328D01*
X182958026Y-183693328D02*
X182672312Y-183693328D01*
X182672312Y-183693328D02*
X182529454Y-183621900D01*
X182529454Y-183621900D02*
X182458026Y-183479042D01*
X182458026Y-183479042D02*
X182458026Y-182907614D01*
X182458026Y-182907614D02*
X182529454Y-182764757D01*
X182529454Y-182764757D02*
X182672312Y-182693328D01*
X182672312Y-182693328D02*
X182958026Y-182693328D01*
X182958026Y-182693328D02*
X183100883Y-182764757D01*
X183100883Y-182764757D02*
X183172312Y-182907614D01*
X183172312Y-182907614D02*
X183172312Y-183050471D01*
X183172312Y-183050471D02*
X182458026Y-183193328D01*
X183600883Y-182693328D02*
X184172311Y-182693328D01*
X183815168Y-182193328D02*
X183815168Y-183479042D01*
X183815168Y-183479042D02*
X183886597Y-183621900D01*
X183886597Y-183621900D02*
X184029454Y-183693328D01*
X184029454Y-183693328D02*
X184172311Y-183693328D01*
X184672311Y-183550471D02*
X184743740Y-183621900D01*
X184743740Y-183621900D02*
X184672311Y-183693328D01*
X184672311Y-183693328D02*
X184600883Y-183621900D01*
X184600883Y-183621900D02*
X184672311Y-183550471D01*
X184672311Y-183550471D02*
X184672311Y-183693328D01*
X184672311Y-182764757D02*
X184743740Y-182836185D01*
X184743740Y-182836185D02*
X184672311Y-182907614D01*
X184672311Y-182907614D02*
X184600883Y-182836185D01*
X184600883Y-182836185D02*
X184672311Y-182764757D01*
X184672311Y-182764757D02*
X184672311Y-182907614D01*
X197002200Y-191507200D02*
X197002200Y-194507200D01*
X261002200Y-191507200D02*
X261002200Y-198007200D01*
X95308297Y-89123333D02*
X94832106Y-88790000D01*
X95308297Y-88551905D02*
X94308297Y-88551905D01*
X94308297Y-88551905D02*
X94308297Y-88932857D01*
X94308297Y-88932857D02*
X94355916Y-89028095D01*
X94355916Y-89028095D02*
X94403535Y-89075714D01*
X94403535Y-89075714D02*
X94498773Y-89123333D01*
X94498773Y-89123333D02*
X94641630Y-89123333D01*
X94641630Y-89123333D02*
X94736868Y-89075714D01*
X94736868Y-89075714D02*
X94784487Y-89028095D01*
X94784487Y-89028095D02*
X94832106Y-88932857D01*
X94832106Y-88932857D02*
X94832106Y-88551905D01*
X94308297Y-90028095D02*
X94308297Y-89551905D01*
X94308297Y-89551905D02*
X94784487Y-89504286D01*
X94784487Y-89504286D02*
X94736868Y-89551905D01*
X94736868Y-89551905D02*
X94689249Y-89647143D01*
X94689249Y-89647143D02*
X94689249Y-89885238D01*
X94689249Y-89885238D02*
X94736868Y-89980476D01*
X94736868Y-89980476D02*
X94784487Y-90028095D01*
X94784487Y-90028095D02*
X94879725Y-90075714D01*
X94879725Y-90075714D02*
X95117820Y-90075714D01*
X95117820Y-90075714D02*
X95213058Y-90028095D01*
X95213058Y-90028095D02*
X95260678Y-89980476D01*
X95260678Y-89980476D02*
X95308297Y-89885238D01*
X95308297Y-89885238D02*
X95308297Y-89647143D01*
X95308297Y-89647143D02*
X95260678Y-89551905D01*
X95260678Y-89551905D02*
X95213058Y-89504286D01*
X91906666Y-118579580D02*
X91954285Y-118627200D01*
X91954285Y-118627200D02*
X92097142Y-118674819D01*
X92097142Y-118674819D02*
X92192380Y-118674819D01*
X92192380Y-118674819D02*
X92335237Y-118627200D01*
X92335237Y-118627200D02*
X92430475Y-118531961D01*
X92430475Y-118531961D02*
X92478094Y-118436723D01*
X92478094Y-118436723D02*
X92525713Y-118246247D01*
X92525713Y-118246247D02*
X92525713Y-118103390D01*
X92525713Y-118103390D02*
X92478094Y-117912914D01*
X92478094Y-117912914D02*
X92430475Y-117817676D01*
X92430475Y-117817676D02*
X92335237Y-117722438D01*
X92335237Y-117722438D02*
X92192380Y-117674819D01*
X92192380Y-117674819D02*
X92097142Y-117674819D01*
X92097142Y-117674819D02*
X91954285Y-117722438D01*
X91954285Y-117722438D02*
X91906666Y-117770057D01*
X91430475Y-118674819D02*
X91239999Y-118674819D01*
X91239999Y-118674819D02*
X91144761Y-118627200D01*
X91144761Y-118627200D02*
X91097142Y-118579580D01*
X91097142Y-118579580D02*
X91001904Y-118436723D01*
X91001904Y-118436723D02*
X90954285Y-118246247D01*
X90954285Y-118246247D02*
X90954285Y-117865295D01*
X90954285Y-117865295D02*
X91001904Y-117770057D01*
X91001904Y-117770057D02*
X91049523Y-117722438D01*
X91049523Y-117722438D02*
X91144761Y-117674819D01*
X91144761Y-117674819D02*
X91335237Y-117674819D01*
X91335237Y-117674819D02*
X91430475Y-117722438D01*
X91430475Y-117722438D02*
X91478094Y-117770057D01*
X91478094Y-117770057D02*
X91525713Y-117865295D01*
X91525713Y-117865295D02*
X91525713Y-118103390D01*
X91525713Y-118103390D02*
X91478094Y-118198628D01*
X91478094Y-118198628D02*
X91430475Y-118246247D01*
X91430475Y-118246247D02*
X91335237Y-118293866D01*
X91335237Y-118293866D02*
X91144761Y-118293866D01*
X91144761Y-118293866D02*
X91049523Y-118246247D01*
X91049523Y-118246247D02*
X91001904Y-118198628D01*
X91001904Y-118198628D02*
X90954285Y-118103390D01*
X99993573Y-85973333D02*
X98993573Y-85973333D01*
X98993573Y-85973333D02*
X98993573Y-86211428D01*
X98993573Y-86211428D02*
X99041192Y-86354285D01*
X99041192Y-86354285D02*
X99136430Y-86449523D01*
X99136430Y-86449523D02*
X99231668Y-86497142D01*
X99231668Y-86497142D02*
X99422144Y-86544761D01*
X99422144Y-86544761D02*
X99565001Y-86544761D01*
X99565001Y-86544761D02*
X99755477Y-86497142D01*
X99755477Y-86497142D02*
X99850715Y-86449523D01*
X99850715Y-86449523D02*
X99945954Y-86354285D01*
X99945954Y-86354285D02*
X99993573Y-86211428D01*
X99993573Y-86211428D02*
X99993573Y-85973333D01*
X99707858Y-86925714D02*
X99707858Y-87401904D01*
X99993573Y-86830476D02*
X98993573Y-87163809D01*
X98993573Y-87163809D02*
X99993573Y-87497142D01*
X99993573Y-88354285D02*
X99993573Y-87782857D01*
X99993573Y-88068571D02*
X98993573Y-88068571D01*
X98993573Y-88068571D02*
X99136430Y-87973333D01*
X99136430Y-87973333D02*
X99231668Y-87878095D01*
X99231668Y-87878095D02*
X99279287Y-87782857D01*
X91946666Y-116559580D02*
X91994285Y-116607200D01*
X91994285Y-116607200D02*
X92137142Y-116654819D01*
X92137142Y-116654819D02*
X92232380Y-116654819D01*
X92232380Y-116654819D02*
X92375237Y-116607200D01*
X92375237Y-116607200D02*
X92470475Y-116511961D01*
X92470475Y-116511961D02*
X92518094Y-116416723D01*
X92518094Y-116416723D02*
X92565713Y-116226247D01*
X92565713Y-116226247D02*
X92565713Y-116083390D01*
X92565713Y-116083390D02*
X92518094Y-115892914D01*
X92518094Y-115892914D02*
X92470475Y-115797676D01*
X92470475Y-115797676D02*
X92375237Y-115702438D01*
X92375237Y-115702438D02*
X92232380Y-115654819D01*
X92232380Y-115654819D02*
X92137142Y-115654819D01*
X92137142Y-115654819D02*
X91994285Y-115702438D01*
X91994285Y-115702438D02*
X91946666Y-115750057D01*
X91375237Y-116083390D02*
X91470475Y-116035771D01*
X91470475Y-116035771D02*
X91518094Y-115988152D01*
X91518094Y-115988152D02*
X91565713Y-115892914D01*
X91565713Y-115892914D02*
X91565713Y-115845295D01*
X91565713Y-115845295D02*
X91518094Y-115750057D01*
X91518094Y-115750057D02*
X91470475Y-115702438D01*
X91470475Y-115702438D02*
X91375237Y-115654819D01*
X91375237Y-115654819D02*
X91184761Y-115654819D01*
X91184761Y-115654819D02*
X91089523Y-115702438D01*
X91089523Y-115702438D02*
X91041904Y-115750057D01*
X91041904Y-115750057D02*
X90994285Y-115845295D01*
X90994285Y-115845295D02*
X90994285Y-115892914D01*
X90994285Y-115892914D02*
X91041904Y-115988152D01*
X91041904Y-115988152D02*
X91089523Y-116035771D01*
X91089523Y-116035771D02*
X91184761Y-116083390D01*
X91184761Y-116083390D02*
X91375237Y-116083390D01*
X91375237Y-116083390D02*
X91470475Y-116131009D01*
X91470475Y-116131009D02*
X91518094Y-116178628D01*
X91518094Y-116178628D02*
X91565713Y-116273866D01*
X91565713Y-116273866D02*
X91565713Y-116464342D01*
X91565713Y-116464342D02*
X91518094Y-116559580D01*
X91518094Y-116559580D02*
X91470475Y-116607200D01*
X91470475Y-116607200D02*
X91375237Y-116654819D01*
X91375237Y-116654819D02*
X91184761Y-116654819D01*
X91184761Y-116654819D02*
X91089523Y-116607200D01*
X91089523Y-116607200D02*
X91041904Y-116559580D01*
X91041904Y-116559580D02*
X90994285Y-116464342D01*
X90994285Y-116464342D02*
X90994285Y-116273866D01*
X90994285Y-116273866D02*
X91041904Y-116178628D01*
X91041904Y-116178628D02*
X91089523Y-116131009D01*
X91089523Y-116131009D02*
X91184761Y-116083390D01*
X92345558Y-96783333D02*
X92393178Y-96735714D01*
X92393178Y-96735714D02*
X92440797Y-96592857D01*
X92440797Y-96592857D02*
X92440797Y-96497619D01*
X92440797Y-96497619D02*
X92393178Y-96354762D01*
X92393178Y-96354762D02*
X92297939Y-96259524D01*
X92297939Y-96259524D02*
X92202701Y-96211905D01*
X92202701Y-96211905D02*
X92012225Y-96164286D01*
X92012225Y-96164286D02*
X91869368Y-96164286D01*
X91869368Y-96164286D02*
X91678892Y-96211905D01*
X91678892Y-96211905D02*
X91583654Y-96259524D01*
X91583654Y-96259524D02*
X91488416Y-96354762D01*
X91488416Y-96354762D02*
X91440797Y-96497619D01*
X91440797Y-96497619D02*
X91440797Y-96592857D01*
X91440797Y-96592857D02*
X91488416Y-96735714D01*
X91488416Y-96735714D02*
X91536035Y-96783333D01*
X91440797Y-97688095D02*
X91440797Y-97211905D01*
X91440797Y-97211905D02*
X91916987Y-97164286D01*
X91916987Y-97164286D02*
X91869368Y-97211905D01*
X91869368Y-97211905D02*
X91821749Y-97307143D01*
X91821749Y-97307143D02*
X91821749Y-97545238D01*
X91821749Y-97545238D02*
X91869368Y-97640476D01*
X91869368Y-97640476D02*
X91916987Y-97688095D01*
X91916987Y-97688095D02*
X92012225Y-97735714D01*
X92012225Y-97735714D02*
X92250320Y-97735714D01*
X92250320Y-97735714D02*
X92345558Y-97688095D01*
X92345558Y-97688095D02*
X92393178Y-97640476D01*
X92393178Y-97640476D02*
X92440797Y-97545238D01*
X92440797Y-97545238D02*
X92440797Y-97307143D01*
X92440797Y-97307143D02*
X92393178Y-97211905D01*
X92393178Y-97211905D02*
X92345558Y-97164286D01*
X93191572Y-86529254D02*
X93191572Y-85529254D01*
X93191572Y-85529254D02*
X92953477Y-85529254D01*
X92953477Y-85529254D02*
X92810620Y-85576873D01*
X92810620Y-85576873D02*
X92715382Y-85672111D01*
X92715382Y-85672111D02*
X92667763Y-85767349D01*
X92667763Y-85767349D02*
X92620144Y-85957825D01*
X92620144Y-85957825D02*
X92620144Y-86100682D01*
X92620144Y-86100682D02*
X92667763Y-86291158D01*
X92667763Y-86291158D02*
X92715382Y-86386396D01*
X92715382Y-86386396D02*
X92810620Y-86481635D01*
X92810620Y-86481635D02*
X92953477Y-86529254D01*
X92953477Y-86529254D02*
X93191572Y-86529254D01*
X91715382Y-85529254D02*
X92191572Y-85529254D01*
X92191572Y-85529254D02*
X92239191Y-86005444D01*
X92239191Y-86005444D02*
X92191572Y-85957825D01*
X92191572Y-85957825D02*
X92096334Y-85910206D01*
X92096334Y-85910206D02*
X91858239Y-85910206D01*
X91858239Y-85910206D02*
X91763001Y-85957825D01*
X91763001Y-85957825D02*
X91715382Y-86005444D01*
X91715382Y-86005444D02*
X91667763Y-86100682D01*
X91667763Y-86100682D02*
X91667763Y-86338777D01*
X91667763Y-86338777D02*
X91715382Y-86434015D01*
X91715382Y-86434015D02*
X91763001Y-86481635D01*
X91763001Y-86481635D02*
X91858239Y-86529254D01*
X91858239Y-86529254D02*
X92096334Y-86529254D01*
X92096334Y-86529254D02*
X92191572Y-86481635D01*
X92191572Y-86481635D02*
X92239191Y-86434015D01*
X94758297Y-80507768D02*
X94282106Y-80174435D01*
X94758297Y-79936340D02*
X93758297Y-79936340D01*
X93758297Y-79936340D02*
X93758297Y-80317292D01*
X93758297Y-80317292D02*
X93805916Y-80412530D01*
X93805916Y-80412530D02*
X93853535Y-80460149D01*
X93853535Y-80460149D02*
X93948773Y-80507768D01*
X93948773Y-80507768D02*
X94091630Y-80507768D01*
X94091630Y-80507768D02*
X94186868Y-80460149D01*
X94186868Y-80460149D02*
X94234487Y-80412530D01*
X94234487Y-80412530D02*
X94282106Y-80317292D01*
X94282106Y-80317292D02*
X94282106Y-79936340D01*
X93758297Y-80841102D02*
X93758297Y-81460149D01*
X93758297Y-81460149D02*
X94139249Y-81126816D01*
X94139249Y-81126816D02*
X94139249Y-81269673D01*
X94139249Y-81269673D02*
X94186868Y-81364911D01*
X94186868Y-81364911D02*
X94234487Y-81412530D01*
X94234487Y-81412530D02*
X94329725Y-81460149D01*
X94329725Y-81460149D02*
X94567820Y-81460149D01*
X94567820Y-81460149D02*
X94663058Y-81412530D01*
X94663058Y-81412530D02*
X94710678Y-81364911D01*
X94710678Y-81364911D02*
X94758297Y-81269673D01*
X94758297Y-81269673D02*
X94758297Y-80983959D01*
X94758297Y-80983959D02*
X94710678Y-80888721D01*
X94710678Y-80888721D02*
X94663058Y-80841102D01*
X104673573Y-96936933D02*
X104197382Y-96603600D01*
X104673573Y-96365505D02*
X103673573Y-96365505D01*
X103673573Y-96365505D02*
X103673573Y-96746457D01*
X103673573Y-96746457D02*
X103721192Y-96841695D01*
X103721192Y-96841695D02*
X103768811Y-96889314D01*
X103768811Y-96889314D02*
X103864049Y-96936933D01*
X103864049Y-96936933D02*
X104006906Y-96936933D01*
X104006906Y-96936933D02*
X104102144Y-96889314D01*
X104102144Y-96889314D02*
X104149763Y-96841695D01*
X104149763Y-96841695D02*
X104197382Y-96746457D01*
X104197382Y-96746457D02*
X104197382Y-96365505D01*
X104006906Y-97794076D02*
X104673573Y-97794076D01*
X103625954Y-97555981D02*
X104340239Y-97317886D01*
X104340239Y-97317886D02*
X104340239Y-97936933D01*
X91759166Y-107154819D02*
X92092499Y-106678628D01*
X92330594Y-107154819D02*
X92330594Y-106154819D01*
X92330594Y-106154819D02*
X91949642Y-106154819D01*
X91949642Y-106154819D02*
X91854404Y-106202438D01*
X91854404Y-106202438D02*
X91806785Y-106250057D01*
X91806785Y-106250057D02*
X91759166Y-106345295D01*
X91759166Y-106345295D02*
X91759166Y-106488152D01*
X91759166Y-106488152D02*
X91806785Y-106583390D01*
X91806785Y-106583390D02*
X91854404Y-106631009D01*
X91854404Y-106631009D02*
X91949642Y-106678628D01*
X91949642Y-106678628D02*
X92330594Y-106678628D01*
X91282975Y-107154819D02*
X91092499Y-107154819D01*
X91092499Y-107154819D02*
X90997261Y-107107200D01*
X90997261Y-107107200D02*
X90949642Y-107059580D01*
X90949642Y-107059580D02*
X90854404Y-106916723D01*
X90854404Y-106916723D02*
X90806785Y-106726247D01*
X90806785Y-106726247D02*
X90806785Y-106345295D01*
X90806785Y-106345295D02*
X90854404Y-106250057D01*
X90854404Y-106250057D02*
X90902023Y-106202438D01*
X90902023Y-106202438D02*
X90997261Y-106154819D01*
X90997261Y-106154819D02*
X91187737Y-106154819D01*
X91187737Y-106154819D02*
X91282975Y-106202438D01*
X91282975Y-106202438D02*
X91330594Y-106250057D01*
X91330594Y-106250057D02*
X91378213Y-106345295D01*
X91378213Y-106345295D02*
X91378213Y-106583390D01*
X91378213Y-106583390D02*
X91330594Y-106678628D01*
X91330594Y-106678628D02*
X91282975Y-106726247D01*
X91282975Y-106726247D02*
X91187737Y-106773866D01*
X91187737Y-106773866D02*
X90997261Y-106773866D01*
X90997261Y-106773866D02*
X90902023Y-106726247D01*
X90902023Y-106726247D02*
X90854404Y-106678628D01*
X90854404Y-106678628D02*
X90806785Y-106583390D01*
X100822644Y-108314580D02*
X100870263Y-108362200D01*
X100870263Y-108362200D02*
X101013120Y-108409819D01*
X101013120Y-108409819D02*
X101108358Y-108409819D01*
X101108358Y-108409819D02*
X101251215Y-108362200D01*
X101251215Y-108362200D02*
X101346453Y-108266961D01*
X101346453Y-108266961D02*
X101394072Y-108171723D01*
X101394072Y-108171723D02*
X101441691Y-107981247D01*
X101441691Y-107981247D02*
X101441691Y-107838390D01*
X101441691Y-107838390D02*
X101394072Y-107647914D01*
X101394072Y-107647914D02*
X101346453Y-107552676D01*
X101346453Y-107552676D02*
X101251215Y-107457438D01*
X101251215Y-107457438D02*
X101108358Y-107409819D01*
X101108358Y-107409819D02*
X101013120Y-107409819D01*
X101013120Y-107409819D02*
X100870263Y-107457438D01*
X100870263Y-107457438D02*
X100822644Y-107505057D01*
X99965501Y-107743152D02*
X99965501Y-108409819D01*
X100203596Y-107362200D02*
X100441691Y-108076485D01*
X100441691Y-108076485D02*
X99822644Y-108076485D01*
X91820144Y-84159580D02*
X91867763Y-84207200D01*
X91867763Y-84207200D02*
X92010620Y-84254819D01*
X92010620Y-84254819D02*
X92105858Y-84254819D01*
X92105858Y-84254819D02*
X92248715Y-84207200D01*
X92248715Y-84207200D02*
X92343953Y-84111961D01*
X92343953Y-84111961D02*
X92391572Y-84016723D01*
X92391572Y-84016723D02*
X92439191Y-83826247D01*
X92439191Y-83826247D02*
X92439191Y-83683390D01*
X92439191Y-83683390D02*
X92391572Y-83492914D01*
X92391572Y-83492914D02*
X92343953Y-83397676D01*
X92343953Y-83397676D02*
X92248715Y-83302438D01*
X92248715Y-83302438D02*
X92105858Y-83254819D01*
X92105858Y-83254819D02*
X92010620Y-83254819D01*
X92010620Y-83254819D02*
X91867763Y-83302438D01*
X91867763Y-83302438D02*
X91820144Y-83350057D01*
X91486810Y-83254819D02*
X90820144Y-83254819D01*
X90820144Y-83254819D02*
X91248715Y-84254819D01*
X97372644Y-108194580D02*
X97420263Y-108242200D01*
X97420263Y-108242200D02*
X97563120Y-108289819D01*
X97563120Y-108289819D02*
X97658358Y-108289819D01*
X97658358Y-108289819D02*
X97801215Y-108242200D01*
X97801215Y-108242200D02*
X97896453Y-108146961D01*
X97896453Y-108146961D02*
X97944072Y-108051723D01*
X97944072Y-108051723D02*
X97991691Y-107861247D01*
X97991691Y-107861247D02*
X97991691Y-107718390D01*
X97991691Y-107718390D02*
X97944072Y-107527914D01*
X97944072Y-107527914D02*
X97896453Y-107432676D01*
X97896453Y-107432676D02*
X97801215Y-107337438D01*
X97801215Y-107337438D02*
X97658358Y-107289819D01*
X97658358Y-107289819D02*
X97563120Y-107289819D01*
X97563120Y-107289819D02*
X97420263Y-107337438D01*
X97420263Y-107337438D02*
X97372644Y-107385057D01*
X97039310Y-107289819D02*
X96420263Y-107289819D01*
X96420263Y-107289819D02*
X96753596Y-107670771D01*
X96753596Y-107670771D02*
X96610739Y-107670771D01*
X96610739Y-107670771D02*
X96515501Y-107718390D01*
X96515501Y-107718390D02*
X96467882Y-107766009D01*
X96467882Y-107766009D02*
X96420263Y-107861247D01*
X96420263Y-107861247D02*
X96420263Y-108099342D01*
X96420263Y-108099342D02*
X96467882Y-108194580D01*
X96467882Y-108194580D02*
X96515501Y-108242200D01*
X96515501Y-108242200D02*
X96610739Y-108289819D01*
X96610739Y-108289819D02*
X96896453Y-108289819D01*
X96896453Y-108289819D02*
X96991691Y-108242200D01*
X96991691Y-108242200D02*
X97039310Y-108194580D01*
X94850797Y-96803333D02*
X94374606Y-96470000D01*
X94850797Y-96231905D02*
X93850797Y-96231905D01*
X93850797Y-96231905D02*
X93850797Y-96612857D01*
X93850797Y-96612857D02*
X93898416Y-96708095D01*
X93898416Y-96708095D02*
X93946035Y-96755714D01*
X93946035Y-96755714D02*
X94041273Y-96803333D01*
X94041273Y-96803333D02*
X94184130Y-96803333D01*
X94184130Y-96803333D02*
X94279368Y-96755714D01*
X94279368Y-96755714D02*
X94326987Y-96708095D01*
X94326987Y-96708095D02*
X94374606Y-96612857D01*
X94374606Y-96612857D02*
X94374606Y-96231905D01*
X93946035Y-97184286D02*
X93898416Y-97231905D01*
X93898416Y-97231905D02*
X93850797Y-97327143D01*
X93850797Y-97327143D02*
X93850797Y-97565238D01*
X93850797Y-97565238D02*
X93898416Y-97660476D01*
X93898416Y-97660476D02*
X93946035Y-97708095D01*
X93946035Y-97708095D02*
X94041273Y-97755714D01*
X94041273Y-97755714D02*
X94136511Y-97755714D01*
X94136511Y-97755714D02*
X94279368Y-97708095D01*
X94279368Y-97708095D02*
X94850797Y-97136667D01*
X94850797Y-97136667D02*
X94850797Y-97755714D01*
X97384819Y-121296905D02*
X96384819Y-121296905D01*
X96384819Y-121296905D02*
X96384819Y-121535000D01*
X96384819Y-121535000D02*
X96432438Y-121677857D01*
X96432438Y-121677857D02*
X96527676Y-121773095D01*
X96527676Y-121773095D02*
X96622914Y-121820714D01*
X96622914Y-121820714D02*
X96813390Y-121868333D01*
X96813390Y-121868333D02*
X96956247Y-121868333D01*
X96956247Y-121868333D02*
X97146723Y-121820714D01*
X97146723Y-121820714D02*
X97241961Y-121773095D01*
X97241961Y-121773095D02*
X97337200Y-121677857D01*
X97337200Y-121677857D02*
X97384819Y-121535000D01*
X97384819Y-121535000D02*
X97384819Y-121296905D01*
X96718152Y-122725476D02*
X97384819Y-122725476D01*
X96337200Y-122487381D02*
X97051485Y-122249286D01*
X97051485Y-122249286D02*
X97051485Y-122868333D01*
X92186357Y-112454819D02*
X92519690Y-111978628D01*
X92757785Y-112454819D02*
X92757785Y-111454819D01*
X92757785Y-111454819D02*
X92376833Y-111454819D01*
X92376833Y-111454819D02*
X92281595Y-111502438D01*
X92281595Y-111502438D02*
X92233976Y-111550057D01*
X92233976Y-111550057D02*
X92186357Y-111645295D01*
X92186357Y-111645295D02*
X92186357Y-111788152D01*
X92186357Y-111788152D02*
X92233976Y-111883390D01*
X92233976Y-111883390D02*
X92281595Y-111931009D01*
X92281595Y-111931009D02*
X92376833Y-111978628D01*
X92376833Y-111978628D02*
X92757785Y-111978628D01*
X91233976Y-112454819D02*
X91805404Y-112454819D01*
X91519690Y-112454819D02*
X91519690Y-111454819D01*
X91519690Y-111454819D02*
X91614928Y-111597676D01*
X91614928Y-111597676D02*
X91710166Y-111692914D01*
X91710166Y-111692914D02*
X91805404Y-111740533D01*
X90853023Y-111550057D02*
X90805404Y-111502438D01*
X90805404Y-111502438D02*
X90710166Y-111454819D01*
X90710166Y-111454819D02*
X90472071Y-111454819D01*
X90472071Y-111454819D02*
X90376833Y-111502438D01*
X90376833Y-111502438D02*
X90329214Y-111550057D01*
X90329214Y-111550057D02*
X90281595Y-111645295D01*
X90281595Y-111645295D02*
X90281595Y-111740533D01*
X90281595Y-111740533D02*
X90329214Y-111883390D01*
X90329214Y-111883390D02*
X90900642Y-112454819D01*
X90900642Y-112454819D02*
X90281595Y-112454819D01*
X91710166Y-108024819D02*
X92043499Y-107548628D01*
X92281594Y-108024819D02*
X92281594Y-107024819D01*
X92281594Y-107024819D02*
X91900642Y-107024819D01*
X91900642Y-107024819D02*
X91805404Y-107072438D01*
X91805404Y-107072438D02*
X91757785Y-107120057D01*
X91757785Y-107120057D02*
X91710166Y-107215295D01*
X91710166Y-107215295D02*
X91710166Y-107358152D01*
X91710166Y-107358152D02*
X91757785Y-107453390D01*
X91757785Y-107453390D02*
X91805404Y-107501009D01*
X91805404Y-107501009D02*
X91900642Y-107548628D01*
X91900642Y-107548628D02*
X92281594Y-107548628D01*
X91376832Y-107024819D02*
X90710166Y-107024819D01*
X90710166Y-107024819D02*
X91138737Y-108024819D01*
X92213058Y-80507768D02*
X92260678Y-80460149D01*
X92260678Y-80460149D02*
X92308297Y-80317292D01*
X92308297Y-80317292D02*
X92308297Y-80222054D01*
X92308297Y-80222054D02*
X92260678Y-80079197D01*
X92260678Y-80079197D02*
X92165439Y-79983959D01*
X92165439Y-79983959D02*
X92070201Y-79936340D01*
X92070201Y-79936340D02*
X91879725Y-79888721D01*
X91879725Y-79888721D02*
X91736868Y-79888721D01*
X91736868Y-79888721D02*
X91546392Y-79936340D01*
X91546392Y-79936340D02*
X91451154Y-79983959D01*
X91451154Y-79983959D02*
X91355916Y-80079197D01*
X91355916Y-80079197D02*
X91308297Y-80222054D01*
X91308297Y-80222054D02*
X91308297Y-80317292D01*
X91308297Y-80317292D02*
X91355916Y-80460149D01*
X91355916Y-80460149D02*
X91403535Y-80507768D01*
X91308297Y-81364911D02*
X91308297Y-81174435D01*
X91308297Y-81174435D02*
X91355916Y-81079197D01*
X91355916Y-81079197D02*
X91403535Y-81031578D01*
X91403535Y-81031578D02*
X91546392Y-80936340D01*
X91546392Y-80936340D02*
X91736868Y-80888721D01*
X91736868Y-80888721D02*
X92117820Y-80888721D01*
X92117820Y-80888721D02*
X92213058Y-80936340D01*
X92213058Y-80936340D02*
X92260678Y-80983959D01*
X92260678Y-80983959D02*
X92308297Y-81079197D01*
X92308297Y-81079197D02*
X92308297Y-81269673D01*
X92308297Y-81269673D02*
X92260678Y-81364911D01*
X92260678Y-81364911D02*
X92213058Y-81412530D01*
X92213058Y-81412530D02*
X92117820Y-81460149D01*
X92117820Y-81460149D02*
X91879725Y-81460149D01*
X91879725Y-81460149D02*
X91784487Y-81412530D01*
X91784487Y-81412530D02*
X91736868Y-81364911D01*
X91736868Y-81364911D02*
X91689249Y-81269673D01*
X91689249Y-81269673D02*
X91689249Y-81079197D01*
X91689249Y-81079197D02*
X91736868Y-80983959D01*
X91736868Y-80983959D02*
X91784487Y-80936340D01*
X91784487Y-80936340D02*
X91879725Y-80888721D01*
X91794166Y-122032319D02*
X92127499Y-121556128D01*
X92365594Y-122032319D02*
X92365594Y-121032319D01*
X92365594Y-121032319D02*
X91984642Y-121032319D01*
X91984642Y-121032319D02*
X91889404Y-121079938D01*
X91889404Y-121079938D02*
X91841785Y-121127557D01*
X91841785Y-121127557D02*
X91794166Y-121222795D01*
X91794166Y-121222795D02*
X91794166Y-121365652D01*
X91794166Y-121365652D02*
X91841785Y-121460890D01*
X91841785Y-121460890D02*
X91889404Y-121508509D01*
X91889404Y-121508509D02*
X91984642Y-121556128D01*
X91984642Y-121556128D02*
X92365594Y-121556128D01*
X91222737Y-121460890D02*
X91317975Y-121413271D01*
X91317975Y-121413271D02*
X91365594Y-121365652D01*
X91365594Y-121365652D02*
X91413213Y-121270414D01*
X91413213Y-121270414D02*
X91413213Y-121222795D01*
X91413213Y-121222795D02*
X91365594Y-121127557D01*
X91365594Y-121127557D02*
X91317975Y-121079938D01*
X91317975Y-121079938D02*
X91222737Y-121032319D01*
X91222737Y-121032319D02*
X91032261Y-121032319D01*
X91032261Y-121032319D02*
X90937023Y-121079938D01*
X90937023Y-121079938D02*
X90889404Y-121127557D01*
X90889404Y-121127557D02*
X90841785Y-121222795D01*
X90841785Y-121222795D02*
X90841785Y-121270414D01*
X90841785Y-121270414D02*
X90889404Y-121365652D01*
X90889404Y-121365652D02*
X90937023Y-121413271D01*
X90937023Y-121413271D02*
X91032261Y-121460890D01*
X91032261Y-121460890D02*
X91222737Y-121460890D01*
X91222737Y-121460890D02*
X91317975Y-121508509D01*
X91317975Y-121508509D02*
X91365594Y-121556128D01*
X91365594Y-121556128D02*
X91413213Y-121651366D01*
X91413213Y-121651366D02*
X91413213Y-121841842D01*
X91413213Y-121841842D02*
X91365594Y-121937080D01*
X91365594Y-121937080D02*
X91317975Y-121984700D01*
X91317975Y-121984700D02*
X91222737Y-122032319D01*
X91222737Y-122032319D02*
X91032261Y-122032319D01*
X91032261Y-122032319D02*
X90937023Y-121984700D01*
X90937023Y-121984700D02*
X90889404Y-121937080D01*
X90889404Y-121937080D02*
X90841785Y-121841842D01*
X90841785Y-121841842D02*
X90841785Y-121651366D01*
X90841785Y-121651366D02*
X90889404Y-121556128D01*
X90889404Y-121556128D02*
X90937023Y-121508509D01*
X90937023Y-121508509D02*
X91032261Y-121460890D01*
X100462644Y-104709819D02*
X100462644Y-103709819D01*
X100462644Y-103709819D02*
X100224549Y-103709819D01*
X100224549Y-103709819D02*
X100081692Y-103757438D01*
X100081692Y-103757438D02*
X99986454Y-103852676D01*
X99986454Y-103852676D02*
X99938835Y-103947914D01*
X99938835Y-103947914D02*
X99891216Y-104138390D01*
X99891216Y-104138390D02*
X99891216Y-104281247D01*
X99891216Y-104281247D02*
X99938835Y-104471723D01*
X99938835Y-104471723D02*
X99986454Y-104566961D01*
X99986454Y-104566961D02*
X100081692Y-104662200D01*
X100081692Y-104662200D02*
X100224549Y-104709819D01*
X100224549Y-104709819D02*
X100462644Y-104709819D01*
X99510263Y-104424104D02*
X99034073Y-104424104D01*
X99605501Y-104709819D02*
X99272168Y-103709819D01*
X99272168Y-103709819D02*
X98938835Y-104709819D01*
X98700739Y-103709819D02*
X98081692Y-103709819D01*
X98081692Y-103709819D02*
X98415025Y-104090771D01*
X98415025Y-104090771D02*
X98272168Y-104090771D01*
X98272168Y-104090771D02*
X98176930Y-104138390D01*
X98176930Y-104138390D02*
X98129311Y-104186009D01*
X98129311Y-104186009D02*
X98081692Y-104281247D01*
X98081692Y-104281247D02*
X98081692Y-104519342D01*
X98081692Y-104519342D02*
X98129311Y-104614580D01*
X98129311Y-104614580D02*
X98176930Y-104662200D01*
X98176930Y-104662200D02*
X98272168Y-104709819D01*
X98272168Y-104709819D02*
X98557882Y-104709819D01*
X98557882Y-104709819D02*
X98653120Y-104662200D01*
X98653120Y-104662200D02*
X98700739Y-104614580D01*
X92161857Y-114754819D02*
X92495190Y-114278628D01*
X92733285Y-114754819D02*
X92733285Y-113754819D01*
X92733285Y-113754819D02*
X92352333Y-113754819D01*
X92352333Y-113754819D02*
X92257095Y-113802438D01*
X92257095Y-113802438D02*
X92209476Y-113850057D01*
X92209476Y-113850057D02*
X92161857Y-113945295D01*
X92161857Y-113945295D02*
X92161857Y-114088152D01*
X92161857Y-114088152D02*
X92209476Y-114183390D01*
X92209476Y-114183390D02*
X92257095Y-114231009D01*
X92257095Y-114231009D02*
X92352333Y-114278628D01*
X92352333Y-114278628D02*
X92733285Y-114278628D01*
X91209476Y-114754819D02*
X91780904Y-114754819D01*
X91495190Y-114754819D02*
X91495190Y-113754819D01*
X91495190Y-113754819D02*
X91590428Y-113897676D01*
X91590428Y-113897676D02*
X91685666Y-113992914D01*
X91685666Y-113992914D02*
X91780904Y-114040533D01*
X90257095Y-114754819D02*
X90828523Y-114754819D01*
X90542809Y-114754819D02*
X90542809Y-113754819D01*
X90542809Y-113754819D02*
X90638047Y-113897676D01*
X90638047Y-113897676D02*
X90733285Y-113992914D01*
X90733285Y-113992914D02*
X90828523Y-114040533D01*
X97384819Y-117804642D02*
X96908628Y-117471309D01*
X97384819Y-117233214D02*
X96384819Y-117233214D01*
X96384819Y-117233214D02*
X96384819Y-117614166D01*
X96384819Y-117614166D02*
X96432438Y-117709404D01*
X96432438Y-117709404D02*
X96480057Y-117757023D01*
X96480057Y-117757023D02*
X96575295Y-117804642D01*
X96575295Y-117804642D02*
X96718152Y-117804642D01*
X96718152Y-117804642D02*
X96813390Y-117757023D01*
X96813390Y-117757023D02*
X96861009Y-117709404D01*
X96861009Y-117709404D02*
X96908628Y-117614166D01*
X96908628Y-117614166D02*
X96908628Y-117233214D01*
X97384819Y-118757023D02*
X97384819Y-118185595D01*
X97384819Y-118471309D02*
X96384819Y-118471309D01*
X96384819Y-118471309D02*
X96527676Y-118376071D01*
X96527676Y-118376071D02*
X96622914Y-118280833D01*
X96622914Y-118280833D02*
X96670533Y-118185595D01*
X96384819Y-119376071D02*
X96384819Y-119471309D01*
X96384819Y-119471309D02*
X96432438Y-119566547D01*
X96432438Y-119566547D02*
X96480057Y-119614166D01*
X96480057Y-119614166D02*
X96575295Y-119661785D01*
X96575295Y-119661785D02*
X96765771Y-119709404D01*
X96765771Y-119709404D02*
X97003866Y-119709404D01*
X97003866Y-119709404D02*
X97194342Y-119661785D01*
X97194342Y-119661785D02*
X97289580Y-119614166D01*
X97289580Y-119614166D02*
X97337200Y-119566547D01*
X97337200Y-119566547D02*
X97384819Y-119471309D01*
X97384819Y-119471309D02*
X97384819Y-119376071D01*
X97384819Y-119376071D02*
X97337200Y-119280833D01*
X97337200Y-119280833D02*
X97289580Y-119233214D01*
X97289580Y-119233214D02*
X97194342Y-119185595D01*
X97194342Y-119185595D02*
X97003866Y-119137976D01*
X97003866Y-119137976D02*
X96765771Y-119137976D01*
X96765771Y-119137976D02*
X96575295Y-119185595D01*
X96575295Y-119185595D02*
X96480057Y-119233214D01*
X96480057Y-119233214D02*
X96432438Y-119280833D01*
X96432438Y-119280833D02*
X96384819Y-119376071D01*
%TO.C,R5*%
D13*
X94118478Y-89517064D02*
X94118478Y-89062936D01*
X95588478Y-89517064D02*
X95588478Y-89062936D01*
%TO.C,C9*%
X91478748Y-117485000D02*
X92001252Y-117485000D01*
X91478748Y-118955000D02*
X92001252Y-118955000D01*
%TO.C,DA5*%
X70800000Y-105050000D02*
X70800000Y-106000000D01*
X72200000Y-105050000D02*
X70800000Y-105050000D01*
X87800000Y-105050000D02*
X89200000Y-105050000D01*
X89200000Y-105050000D02*
X89200000Y-106000000D01*
X70800000Y-124000000D02*
X70300000Y-124000000D01*
X70800000Y-124500000D01*
X70800000Y-124000000D01*
G36*
X70800000Y-124500000D02*
G01*
X70300000Y-124000000D01*
X70800000Y-124000000D01*
X70800000Y-124500000D01*
G37*
%TO.C,DA1*%
X96478754Y-85080000D02*
X96478754Y-89200000D01*
X96478754Y-89200000D02*
X96573754Y-89200000D01*
X96573754Y-85080000D02*
X96478754Y-85080000D01*
X101503754Y-89200000D02*
X101598754Y-89200000D01*
X101598754Y-85080000D02*
X101503754Y-85080000D01*
X101598754Y-89200000D02*
X101598754Y-85080000D01*
X101508754Y-89740000D02*
X101838754Y-89980000D01*
X101838754Y-89500000D01*
X101508754Y-89740000D01*
G36*
X101838754Y-89980000D02*
G01*
X101508754Y-89740000D01*
X101838754Y-89500000D01*
X101838754Y-89980000D01*
G37*
%TO.C,C8*%
X91518748Y-115465000D02*
X92041252Y-115465000D01*
X91518748Y-116935000D02*
X92041252Y-116935000D01*
%TO.C,C5*%
X91120978Y-97211252D02*
X91120978Y-96688748D01*
X92590978Y-97211252D02*
X92590978Y-96688748D01*
%TO.C,D5*%
X89793478Y-84964435D02*
X94203478Y-84964435D01*
X89793478Y-87184435D02*
X89793478Y-84964435D01*
X94203478Y-87184435D02*
X89793478Y-87184435D01*
%TO.C,R3*%
X93668478Y-80447371D02*
X93668478Y-80901499D01*
X95138478Y-80447371D02*
X95138478Y-80901499D01*
%TO.C,R4*%
X103483754Y-96876536D02*
X103483754Y-97330664D01*
X104953754Y-96876536D02*
X104953754Y-97330664D01*
%TO.C,R9*%
X91819564Y-105945000D02*
X91365436Y-105945000D01*
X91819564Y-107415000D02*
X91365436Y-107415000D01*
%TO.C,C4*%
X100394726Y-107150000D02*
X100917230Y-107150000D01*
X100394726Y-108620000D02*
X100917230Y-108620000D01*
%TO.C,C7*%
X91914730Y-83065000D02*
X91392226Y-83065000D01*
X91914730Y-84535000D02*
X91392226Y-84535000D01*
%TO.C,C3*%
X97467230Y-107150000D02*
X96944726Y-107150000D01*
X97467230Y-108620000D02*
X96944726Y-108620000D01*
%TO.C,R2*%
X93640978Y-97177064D02*
X93640978Y-96722936D01*
X95110978Y-97177064D02*
X95110978Y-96722936D01*
%TO.C,D4*%
X95970000Y-123720000D02*
X95970000Y-121035000D01*
X97890000Y-121035000D02*
X97890000Y-123720000D01*
X97890000Y-123720000D02*
X95970000Y-123720000D01*
%TO.C,R12*%
X91316436Y-111025000D02*
X91770564Y-111025000D01*
X91316436Y-112495000D02*
X91770564Y-112495000D01*
%TO.C,R7*%
X91770564Y-108485000D02*
X91316436Y-108485000D01*
X91770564Y-109955000D02*
X91316436Y-109955000D01*
%TO.C,C6*%
X91118478Y-80413183D02*
X91118478Y-80935687D01*
X92588478Y-80413183D02*
X92588478Y-80935687D01*
%TO.C,R8*%
X91400436Y-120842500D02*
X91854564Y-120842500D01*
X91400436Y-122312500D02*
X91854564Y-122312500D01*
%TO.C,DA3*%
X96985978Y-106890000D02*
X101605978Y-106890000D01*
X101605978Y-101420000D02*
X96985978Y-101420000D01*
X95435978Y-106435000D02*
X95105978Y-106195000D01*
X95105978Y-106675000D01*
X95435978Y-106435000D01*
G36*
X95435978Y-106435000D02*
G01*
X95105978Y-106675000D01*
X95105978Y-106195000D01*
X95435978Y-106435000D01*
G37*
%TO.C,R11*%
X91746064Y-113565000D02*
X91291936Y-113565000D01*
X91746064Y-115035000D02*
X91291936Y-115035000D01*
%TO.C,R10*%
X96195000Y-118674564D02*
X96195000Y-118220436D01*
X97665000Y-118674564D02*
X97665000Y-118220436D01*
%TD*%
%LPC*%
D14*
%TO.C,J1*%
X83435000Y-81925000D03*
X77655000Y-81925000D03*
D15*
X84865000Y-82455000D03*
D16*
X84865000Y-78275000D03*
D15*
X76225000Y-82455000D03*
D16*
X76225000Y-78275000D03*
%TD*%
D17*
%TO.C,H2*%
X90000000Y-91000000D03*
%TD*%
D18*
%TO.C,BT1*%
X73100000Y-93500000D03*
D19*
X73100000Y-92250000D03*
X73100000Y-91000000D03*
%TD*%
D20*
%TO.C,SW1*%
X72220000Y-77680000D03*
D21*
X73490000Y-77680000D03*
%TD*%
D17*
%TO.C,H1*%
X102740000Y-120500000D03*
%TD*%
D22*
%TO.C,D2*%
X99198754Y-93750000D03*
X99198754Y-96750000D03*
%TD*%
D23*
%TO.C,R5*%
X94853478Y-90202500D03*
X94853478Y-88377500D03*
%TD*%
D24*
%TO.C,C9*%
X90790000Y-118220000D03*
X92690000Y-118220000D03*
%TD*%
D25*
%TO.C,DA5*%
X71250000Y-123260000D03*
X71250000Y-121990000D03*
X71250000Y-120720000D03*
X71250000Y-119450000D03*
X71250000Y-118180000D03*
X71250000Y-116910000D03*
X71250000Y-115640000D03*
X71250000Y-114370000D03*
X71250000Y-113100000D03*
X71250000Y-111830000D03*
X71250000Y-110560000D03*
X71250000Y-109290000D03*
X71250000Y-108020000D03*
X71250000Y-106750000D03*
D26*
X74285000Y-105500000D03*
X75555000Y-105500000D03*
X76825000Y-105500000D03*
X78095000Y-105500000D03*
X79365000Y-105500000D03*
X80635000Y-105500000D03*
X81905000Y-105500000D03*
X83175000Y-105500000D03*
X84445000Y-105500000D03*
X85715000Y-105500000D03*
D25*
X88750000Y-106750000D03*
X88750000Y-108020000D03*
X88750000Y-109290000D03*
X88750000Y-110560000D03*
X88750000Y-111830000D03*
X88750000Y-113100000D03*
X88750000Y-114370000D03*
X88750000Y-115640000D03*
X88750000Y-116910000D03*
X88750000Y-118180000D03*
X88750000Y-119450000D03*
X88750000Y-120720000D03*
X88750000Y-121990000D03*
X88750000Y-123260000D03*
D27*
X77100000Y-114140000D03*
D28*
X77100000Y-114840000D03*
D27*
X77100000Y-115540000D03*
D28*
X77100000Y-116240000D03*
D27*
X77100000Y-116940000D03*
D28*
X77800000Y-114140000D03*
X77800000Y-115540000D03*
X77800000Y-116940000D03*
D27*
X78500000Y-114140000D03*
D28*
X78500000Y-114840000D03*
D27*
X78500000Y-115540000D03*
D28*
X78500000Y-116240000D03*
D27*
X78500000Y-116940000D03*
D28*
X79200000Y-114140000D03*
X79200000Y-115540000D03*
X79200000Y-116940000D03*
D27*
X79900000Y-114140000D03*
D28*
X79900000Y-114840000D03*
D27*
X79900000Y-115540000D03*
D28*
X79900000Y-116240000D03*
D27*
X79900000Y-116940000D03*
%TD*%
D29*
%TO.C,DA1*%
X100943754Y-89615000D03*
X99673754Y-89615000D03*
X98403754Y-89615000D03*
X97133754Y-89615000D03*
X97133754Y-84665000D03*
X98403754Y-84665000D03*
X99673754Y-84665000D03*
X100943754Y-84665000D03*
%TD*%
D24*
%TO.C,C8*%
X90830000Y-116200000D03*
X92730000Y-116200000D03*
%TD*%
D30*
%TO.C,C5*%
X91855978Y-97900000D03*
X91855978Y-96000000D03*
%TD*%
D22*
%TO.C,D3*%
X99258754Y-80574435D03*
X99258754Y-77574435D03*
%TD*%
D31*
%TO.C,D5*%
X90703478Y-86074435D03*
X94203478Y-86074435D03*
%TD*%
D32*
%TO.C,R3*%
X94403478Y-79761935D03*
X94403478Y-81586935D03*
%TD*%
%TO.C,R4*%
X104218754Y-96191100D03*
X104218754Y-98016100D03*
%TD*%
D33*
%TO.C,R9*%
X92505000Y-106680000D03*
X90680000Y-106680000D03*
%TD*%
D24*
%TO.C,C4*%
X99705978Y-107885000D03*
X101605978Y-107885000D03*
%TD*%
D34*
%TO.C,C7*%
X92603478Y-83800000D03*
X90703478Y-83800000D03*
%TD*%
%TO.C,C3*%
X98155978Y-107885000D03*
X96255978Y-107885000D03*
%TD*%
D23*
%TO.C,R2*%
X94375978Y-97862500D03*
X94375978Y-96037500D03*
%TD*%
D35*
%TO.C,D4*%
X96930000Y-122972500D03*
X96930000Y-121097500D03*
%TD*%
D36*
%TO.C,R12*%
X90631000Y-111760000D03*
X92456000Y-111760000D03*
%TD*%
D33*
%TO.C,R7*%
X92456000Y-109220000D03*
X90631000Y-109220000D03*
%TD*%
D37*
%TO.C,C6*%
X91853478Y-79724435D03*
X91853478Y-81624435D03*
%TD*%
D36*
%TO.C,R8*%
X90715000Y-121577500D03*
X92540000Y-121577500D03*
%TD*%
D38*
%TO.C,DA3*%
X96433478Y-106430000D03*
X96433478Y-105780000D03*
X96433478Y-105130000D03*
X96433478Y-104480000D03*
X96433478Y-103830000D03*
X96433478Y-103180000D03*
X96433478Y-102530000D03*
X96433478Y-101880000D03*
X102158478Y-101880000D03*
X102158478Y-102530000D03*
X102158478Y-103180000D03*
X102158478Y-103830000D03*
X102158478Y-104480000D03*
X102158478Y-105130000D03*
X102158478Y-105780000D03*
X102158478Y-106430000D03*
%TD*%
D33*
%TO.C,R11*%
X92431500Y-114300000D03*
X90606500Y-114300000D03*
%TD*%
D23*
%TO.C,R10*%
X96930000Y-119360000D03*
X96930000Y-117535000D03*
%TD*%
%LPD*%
M02*
